G04 EasyPC Gerber Version 21.0.3 Build 4286 *
G04 #@! TF.Part,Single*
G04 #@! TF.FileFunction,Copper,L4,Bot *
G04 #@! TF.FilePolarity,Positive *
%FSLAX34Y34*%
%MOMM*%
%ADD70R,0.65000X1.00000*%
G04 #@! TA.AperFunction,SMDPad*
%ADD138R,1.39000X1.40000*%
%ADD137R,3.36000X4.86000*%
G04 #@! TD.AperFunction*
%ADD10C,0.12700*%
%ADD78C,0.16000*%
%ADD117C,0.32000*%
G04 #@! TA.AperFunction,ViaPad*
%ADD133C,0.62000*%
G04 #@! TD.AperFunction*
%ADD118C,0.63500*%
G04 #@! TA.AperFunction,SMDPad*
%ADD136R,0.75000X0.50000*%
G04 #@! TD.AperFunction*
%ADD71R,1.00000X0.65000*%
G04 #@! TA.AperFunction,SMDPad*
%ADD134R,2.20000X0.80000*%
%ADD135R,1.90000X1.10000*%
G04 #@! TD.AperFunction*
%ADD15C,1.70000*%
G04 #@! TA.AperFunction,ComponentPad*
%ADD124C,1.80000*%
%ADD131C,3.50000*%
G04 #@! TA.AperFunction,WasherPad*
%ADD120C,5.50000*%
X0Y0D02*
D02*
D10*
X116635Y135635D02*
Y85635D01*
X121635Y80635*
X160635*
X168635Y72635*
X226385*
Y135635*
X116635*
G36*
Y85635*
X121635Y80635*
X160635*
X168635Y72635*
X226385*
Y135635*
X116635*
G37*
X220385Y238385D02*
X218135Y240635D01*
X166635*
X163635Y237635*
Y236635*
X162635Y235635*
X158635*
X156635Y233635*
Y219135*
X156620Y219120*
Y216600*
X154100*
X151635Y214135*
X122885*
X119385Y217635*
Y262385*
X6985*
Y201755*
X111880*
G75*
G02X113914Y200914I4J-2869*
G01*
X137574Y177255*
X210446*
X220015Y186824*
Y208130*
G75*
G02Y208134I716J2*
G01*
G75*
G02Y208135I541J1*
G01*
G75*
G02X220385Y209545I2871*
G01*
Y238385*
G36*
X218135Y240635*
X166635*
X163635Y237635*
Y236635*
X162635Y235635*
X158635*
X156635Y233635*
Y219135*
X156620Y219120*
Y216600*
X154100*
X151635Y214135*
X122885*
X119385Y217635*
Y262385*
X6985*
Y201755*
X111880*
G75*
G02X113914Y200914I4J-2869*
G01*
X137574Y177255*
X210446*
X220015Y186824*
Y208130*
G75*
G02Y208134I716J2*
G01*
G75*
G02Y208135I541J1*
G01*
G75*
G02X220385Y209545I2871*
G01*
Y238385*
G37*
X230135Y139385D02*
Y72635D01*
X320635*
X331635Y83635*
Y237885*
X273885*
X263635Y227635*
Y220635*
X260870Y217870*
Y216600*
X259600*
X258635Y215635*
X230385*
X222885Y208135*
Y185635*
X211635Y174385*
X136385*
X111885Y198885*
X6985*
Y139385*
X230135*
G36*
Y72635*
X320635*
X331635Y83635*
Y237885*
X273885*
X263635Y227635*
Y220635*
X260870Y217870*
Y216600*
X259600*
X258635Y215635*
X230385*
X222885Y208135*
Y185635*
X211635Y174385*
X136385*
X111885Y198885*
X6985*
Y139385*
X230135*
G37*
X349635Y336575D02*
X344575Y341635D01*
X327205*
G75*
G02X314065I-6570J28999*
G01*
X303635*
X280635Y364635*
X69635*
X46635Y341635*
X45695*
X45669Y341609*
G75*
G02X43635Y340764I-2034J2026*
G01*
X9764*
X6985Y337985*
Y265635*
X122635*
X123635Y264635*
Y250635*
X127635Y246635*
X157774*
G75*
G02X161496I1861J-5001*
G01*
X175635*
X177635Y244635*
X231635*
X235635Y248635*
X269635*
X276635Y241635*
X331635*
Y309635*
X332287Y310287*
G75*
G02X332609Y310669I2347J-1652*
G01*
X349635Y327695*
Y336575*
G36*
X344575Y341635*
X327205*
G75*
G02X314065I-6570J28999*
G01*
X303635*
X280635Y364635*
X69635*
X46635Y341635*
X45695*
X45669Y341609*
G75*
G02X43635Y340764I-2034J2026*
G01*
X9764*
X6985Y337985*
Y265635*
X122635*
X123635Y264635*
Y250635*
X127635Y246635*
X157774*
G75*
G02X161496I1861J-5001*
G01*
X175635*
X177635Y244635*
X231635*
X235635Y248635*
X269635*
X276635Y241635*
X331635*
Y309635*
X332287Y310287*
G75*
G02X332609Y310669I2347J-1652*
G01*
X349635Y327695*
Y336575*
G37*
X584635Y389635D02*
X579985Y394285D01*
X6985*
Y343635*
X43635*
X67635Y367635*
X283635*
X306635Y344635*
X345635*
X352635Y337635*
Y326635*
X334635Y308635*
Y82635*
X333979Y81979*
G75*
G02X333664Y81606I-2341J1657*
G01*
X322664Y70606*
G75*
G02X322291Y70291I-2031J2026*
G01*
X321635Y69635*
X167635*
X166979Y70291*
G75*
G02X166606Y70606I1658J2341*
G01*
X159576Y77635*
X120635*
X119979Y78291*
G75*
G02X119606Y78606I1658J2341*
G01*
X114606Y83606*
G75*
G02X114291Y83979I2026J2030*
G01*
X113635Y84635*
Y135635*
X6985*
Y6985*
X426985*
X431635Y11635*
Y60635*
X443635Y72635*
Y141635*
X447635Y145635*
Y174635*
X452635Y179635*
X464635*
X467635Y182635*
Y197635*
X477635Y207635*
Y295635*
X483635Y301635*
X543635*
X552635Y310635*
X577635*
X583400Y316400*
Y319370*
X584635*
Y389635*
X526464Y357070D02*
G75*
G02X547370Y353635I10171J-3435D01*
G01*
G75*
G02X526464Y350200I-10735*
G01*
X427058*
X374320Y297462*
Y250442*
G75*
G02X376800Y250967I2313J-4807*
G01*
Y262926*
G75*
G02X375300Y266635I3835J3709*
G01*
G75*
G02X385970I5335*
G01*
G75*
G02X384470Y262926I-5335*
G01*
Y252224*
X405342Y231352*
G75*
G02X406470Y228635I-2707J-2717*
G01*
Y167635*
G75*
G02X405342Y164918I-3835*
G01*
X389470Y149047*
Y98344*
G75*
G02X390970Y94635I-3835J-3709*
G01*
G75*
G02X380300I-5335*
G01*
G75*
G02X381800Y98344I5335*
G01*
Y150635*
G75*
G02X382928Y153352I3835*
G01*
X398800Y169224*
Y227047*
X395360Y230487*
G75*
G02X395420Y229885I-2976J-601*
G01*
Y176135*
G75*
G02X394531Y173989I-3035*
G01*
X381108Y160566*
G75*
G02X381470Y158635I-4973J-1932*
G01*
G75*
G02X370800I-5335*
G01*
G75*
G02X375924Y163966I5335*
G01*
X389350Y177392*
Y185726*
X377697Y173885*
G75*
G02X377720Y173385I-5312J-495*
G01*
G75*
G02X367050I-5335*
G01*
G75*
G02X372800Y178704I5335*
G01*
X382111Y188165*
G75*
G02X380468Y187701I-1726J2969*
G01*
G75*
G02X371050Y191135I-4083J3434*
G01*
G75*
G02X379704Y195312I5335*
G01*
X380200Y195808*
Y200166*
G75*
G02X372414Y200872I-3565J3969*
G01*
X371783Y200241*
G75*
G02X370934Y199642I-2149J2144*
G01*
X366670Y195378*
Y78070*
G75*
G02X374970Y73635I2965J-4435*
G01*
G75*
G02X364927Y71127I-5335*
G01*
G75*
G02X364489Y71489I1707J2511*
G01*
X361489Y74489*
G75*
G02X360600Y76635I2146J2146*
G01*
Y196635*
G75*
G02X361489Y198781I3035*
G01*
X368487Y205779*
G75*
G02X369345Y206382I2147J-2143*
G01*
G75*
G02X371388Y207170I2040J-2248*
G01*
X372247*
G75*
G02X380200Y208104I4388J-3035*
G01*
Y222227*
X365968Y236675*
G75*
G02X356800Y240385I-3833J3710*
G01*
G75*
G02X366217Y243820I5335*
G01*
X367135*
G75*
G02X367450Y243806I5J-3435*
G01*
Y298885*
G75*
G02X368459Y301317I3435*
G01*
X423203Y356061*
G75*
G02X425635Y357070I2432J-2426*
G01*
X526464*
X246400Y52870D02*
X260870D01*
Y41900*
X246400*
Y42147*
G75*
G02X242870Y42680I-1014J5238*
G01*
Y41900*
X228400*
Y52870*
X242870*
Y52090*
G75*
G02X246400Y52623I2516J-4705*
G01*
Y52870*
X266247Y66670D02*
G75*
G02X275970Y63635I4388J-3035D01*
G01*
G75*
G02X266247Y60600I-5335*
G01*
X264633*
G75*
G02X262635Y59850I-1998J2286*
G01*
X260870*
Y57400*
X246400*
Y68370*
X260870*
Y66104*
G75*
G02X262635Y66670I1765J-2469*
G01*
X266247*
X139900Y49120D02*
X154370D01*
Y38150*
X139900*
Y38397*
G75*
G02X136370Y38930I-1014J5238*
G01*
Y38150*
X121900*
Y49120*
X136370*
Y48340*
G75*
G02X139900Y48873I2516J-4705*
G01*
Y49120*
X146050Y69635D02*
G75*
G02X156720I5335D01*
G01*
G75*
G02X153205Y64620I-5335*
G01*
X154370*
Y53650*
X139900*
Y64620*
X144100*
Y65385*
G75*
G02X144989Y67531I3035*
G01*
X146136Y68679*
G75*
G02X146050Y69635I5247J954*
G01*
X431635Y47385D02*
G36*
X260870D01*
Y41900*
X246400*
Y42147*
G75*
G02X242870Y42680I-1016J5230*
G01*
Y41900*
X228400*
Y47385*
X154370*
Y38150*
X139900*
Y38397*
G75*
G02X136370Y38930I-1016J5230*
G01*
Y38150*
X121900*
Y47385*
X7620*
Y7620*
X427620*
X431635Y11635*
Y47385*
G37*
X434185Y63185D02*
G36*
X275951D01*
G75*
G02X266247Y60600I-5316J450*
G01*
X264633*
G75*
G02X262635Y59850I-2000J2291*
G01*
X260870*
Y57400*
X246400*
Y63185*
X154370*
Y53650*
X139900*
Y63185*
X7620*
Y47385*
X121900*
Y49120*
X136370*
Y48340*
G75*
G02X139900Y48873I2514J-4697*
G01*
Y49120*
X154370*
Y47385*
X228400*
Y52870*
X242870*
Y52090*
G75*
G02X246400Y52623I2514J-4697*
G01*
Y52870*
X260870*
Y47385*
X431635*
Y60635*
X434185Y63185*
G37*
X477635Y216335D02*
G36*
X406470D01*
Y167635*
G75*
G02Y167634I-3581*
G01*
G75*
G02X405342Y164918I-3834*
G01*
X389470Y149047*
Y98344*
G75*
G02X390970Y94635I-3835J-3709*
G01*
G75*
G02X380300I-5335*
G01*
G75*
G02X381800Y98344I5335*
G01*
Y150635*
G75*
G02Y150636I3581J1*
G01*
G75*
G02X382928Y153352I3834*
G01*
X398800Y169224*
Y216335*
X395420*
Y176135*
G75*
G02X394531Y173989I-3036J1*
G01*
X381108Y160566*
G75*
G02X381470Y158637I-4958J-1929*
G01*
G75*
G02Y158635I-4584J-1*
G01*
G75*
G02X370800I-5335*
G01*
G75*
G02X375924Y163966I5336J-1*
G01*
X389350Y177392*
Y185726*
X377697Y173885*
G75*
G02X377720Y173385I-5680J-512*
G01*
G75*
G02X367050I-5335*
G01*
G75*
G02X372800Y178704I5335*
G01*
X382111Y188165*
G75*
G02X380468Y187701I-1723J2960*
G01*
G75*
G02X371050Y191135I-4083J3435*
G01*
G75*
G02X379704Y195312I5335*
G01*
X380200Y195808*
Y200166*
G75*
G02X372414Y200872I-3565J3970*
G01*
X371783Y200241*
G75*
G02X370934Y199642I-2159J2159*
G01*
X366670Y195378*
Y78070*
G75*
G02X374970Y73635I2965J-4436*
G01*
G75*
G02X364927Y71127I-5335*
G01*
G75*
G02X364489Y71489I1785J2606*
G01*
X361489Y74489*
G75*
G02X360600Y76635I2147J2147*
G01*
Y196635*
G75*
G02X361489Y198781I3036J-1*
G01*
X368487Y205779*
G75*
G02X369345Y206382I2148J-2145*
G01*
G75*
G02X371388Y207170I2039J-2243*
G01*
X372247*
G75*
G02X380200Y208104I4388J-3034*
G01*
Y216335*
X334635*
Y82635*
X333979Y81979*
G75*
G02X333664Y81606I-2447J1747*
G01*
X322664Y70606*
G75*
G02X322291Y70291I-2120J2132*
G01*
X321635Y69635*
X167635*
X166979Y70291*
G75*
G02X166606Y70606I1747J2447*
G01*
X159576Y77635*
X120635*
X119979Y78291*
G75*
G02X119606Y78606I1747J2447*
G01*
X114606Y83606*
G75*
G02X114291Y83979I2132J2120*
G01*
X113635Y84635*
Y135635*
X7620*
Y63185*
X139900*
Y64620*
X144100*
Y65385*
G75*
G02X144989Y67531I3036J-1*
G01*
X146136Y68679*
G75*
G02X146050Y69623I5138J944*
G01*
G75*
G02Y69635I5289J6*
G01*
G75*
G02X156720I5335*
G01*
G75*
G02X153205Y64620I-5335*
G01*
X154370*
Y63185*
X246400*
Y68370*
X260870*
Y66104*
G75*
G02X262635Y66670I1765J-2468*
G01*
X266247*
G75*
G02X275970Y63635I4388J-3035*
G01*
G75*
G02X275951Y63185I-5340*
G01*
X434185*
X443635Y72635*
Y141635*
X447635Y145635*
Y174635*
X452635Y179635*
X464635*
X467635Y182635*
Y197635*
X477635Y207635*
Y216335*
G37*
X406470D02*
G36*
X477635D01*
Y295635*
X483635Y301635*
X543635*
X552635Y310635*
X577635*
X583400Y316400*
Y319370*
X584000*
Y390270*
X580620Y393650*
X7620*
Y343635*
X43635*
X67635Y367635*
X283635*
X306635Y344635*
X345635*
X352635Y337635*
Y326635*
X334635Y308635*
Y216335*
X380200*
Y222227*
X365968Y236675*
G75*
G02X356800Y240385I-3833J3710*
G01*
G75*
G02X366217Y243820I5335*
G01*
X367135*
G75*
G02X367450Y243806I20J-3095*
G01*
Y298885*
G75*
G02Y298887I3183J1*
G01*
G75*
G02X368459Y301317I3430*
G01*
X423203Y356061*
G75*
G02X425635Y357070I2430J-2421*
G01*
X526464*
G75*
G02X547370Y353635I10171J-3435*
G01*
G75*
G02X526464Y350200I-10735*
G01*
X427058*
X374320Y297462*
Y250442*
G75*
G02X376800Y250967I2312J-4803*
G01*
Y262926*
G75*
G02X375300Y266635I3835J3709*
G01*
G75*
G02X385970I5335*
G01*
G75*
G02X384470Y262926I-5335*
G01*
Y252224*
X405342Y231352*
G75*
G02X406470Y228636I-2706J-2716*
G01*
G75*
G02Y228635I-3581*
G01*
Y216335*
G37*
X398800D02*
G36*
Y227047D01*
X395360Y230487*
G75*
G02X395420Y229887I-2971J-600*
G01*
G75*
G02Y229885I-3472J-1*
G01*
Y216335*
X398800*
G37*
D02*
D15*
X536635Y353635D02*
D03*
X556635D02*
D03*
D02*
D70*
X568885Y140635D02*
D03*
X572885Y210635D02*
D03*
Y230635D02*
D03*
X573885Y179635D02*
D03*
X584385Y140635D02*
D03*
X588385Y210635D02*
D03*
Y230635D02*
D03*
X589385Y179635D02*
D03*
X622885Y223635D02*
D03*
X623885Y169635D02*
D03*
Y203635D02*
D03*
X638385Y223635D02*
D03*
X639385Y169635D02*
D03*
Y203635D02*
D03*
D02*
D71*
X129135Y43635D02*
D03*
Y59135D02*
D03*
X131385Y222085D02*
D03*
Y237585D02*
D03*
X147135Y43635D02*
D03*
Y59135D02*
D03*
X149385Y222085D02*
D03*
Y237585D02*
D03*
X235635Y47385D02*
D03*
Y62885D02*
D03*
Y222085D02*
D03*
Y237585D02*
D03*
X253635Y47385D02*
D03*
Y62885D02*
D03*
Y222085D02*
D03*
Y237585D02*
D03*
X457885Y171385D02*
D03*
Y186885D02*
D03*
X478635Y170885D02*
D03*
Y186385D02*
D03*
X496635Y170885D02*
D03*
Y186385D02*
D03*
X568635Y79885D02*
D03*
Y95385D02*
D03*
D02*
D78*
X131385Y237585D02*
X125585D01*
X123635Y235635*
X110635*
X147135Y59135D02*
Y65385D01*
X151385Y69635*
X149385Y237585D02*
X155585D01*
X159635Y241635*
X235635Y237585D02*
Y239635D01*
X239635Y243635*
X268635*
X273635Y238635*
Y236885*
X279635Y230885*
X291385*
X265885Y237585D02*
X253635D01*
X270635Y63635D02*
X262635D01*
Y62885*
X253635*
X362135Y240385D02*
Y240135D01*
X367135*
X383635Y223635*
Y194385*
X380385Y191135*
X376385*
X369635Y73635D02*
X366635D01*
X363635Y76635*
Y196635*
X370635Y203635*
X369635Y202385*
X371385Y204135*
X376635*
X372385Y173385D02*
Y173635D01*
X387885Y189135*
Y225635*
X370885Y242635*
Y298885*
X425635Y353635*
X536635*
X376135Y158635D02*
Y159885D01*
X392385Y176135*
Y229885*
X376635Y245635*
X478635Y186385D02*
Y195635D01*
X476635Y197635*
X478685Y107635D02*
X495635D01*
X506635Y118635*
Y131635*
X478685Y123635D02*
X487635D01*
X492635Y128635*
Y142635*
X482635D02*
Y137635D01*
X475635Y130635*
X471635*
X469635Y128635*
Y116635*
X470635Y115635*
X478685*
X492635Y154635D02*
X506635D01*
X512635Y148635*
Y103635*
X496635Y186385D02*
Y190135D01*
X482635Y204135*
X505635Y207635D02*
Y214635D01*
X501635Y218635*
Y273635*
X516635Y288635*
X549135*
X558635Y298135*
X596635*
X511635Y222635D02*
Y272135D01*
X522635Y283135*
X596635*
X512635Y103635D02*
X508635Y99635D01*
X478685*
X546635Y192635D02*
X557635D01*
X560635Y189635*
Y179635*
X573885*
X562635Y140635D02*
X568885D01*
X568635Y79885D02*
Y74635D01*
X564635Y70635*
X522635*
X510635Y58635*
Y30635*
X568635Y95385D02*
X584385Y140635*
X599635D01*
X596635Y313135D02*
X613135D01*
X615635Y310635*
Y258635*
X609635Y252635*
X570635*
X557635Y239635*
Y192635*
X600635Y170635D02*
Y177635D01*
X598635Y179635*
X589385*
X603635Y198635D02*
Y206635D01*
X599635Y210635*
X588385*
X605635Y223635D02*
Y226635D01*
X601635Y230635*
X588385*
X639635Y168635D02*
Y169635D01*
X639385*
D02*
D117*
X138885Y43635D02*
X129135D01*
X140635Y222085D02*
X131385D01*
X147135Y43635D02*
X138885D01*
X149385Y222085D02*
X140635D01*
X235635D02*
X244385D01*
X253635*
X245385Y47385D02*
X235635D01*
X253635D02*
X245385D01*
X376635Y215635D02*
X352635D01*
X346635Y209635*
Y79635*
X324635Y57635*
X313135*
X309885Y60885*
X385635Y94635D02*
Y150635D01*
X402635Y167635*
Y228635*
X380635Y250635*
Y266635*
X450635Y107635D02*
Y90635D01*
X457635Y83635*
X500635*
X450635Y115635D02*
Y107635D01*
Y123635D02*
Y115635D01*
X457885Y171385D02*
Y142885D01*
X450635Y135635*
Y123635*
X461185Y99635D02*
Y93085D01*
X463635Y90635*
X486635*
X461185Y107635D02*
X450635D01*
X461185Y115635D02*
X450635D01*
X461185Y123635D02*
X450635D01*
X478635Y170885D02*
X458385D01*
X457885Y171385*
X478635Y170885D02*
X496635D01*
X478635D02*
Y165635D01*
X474635Y161635*
X483635Y261635D02*
Y215635D01*
X506635Y192635*
Y174385*
X503635Y171385*
X497135*
X496635Y170885*
X499635Y282635D02*
X480635D01*
X462635Y264635*
Y191635*
X457885Y186885*
X500635Y83635D02*
X533635D01*
X541635Y91635*
Y142635*
X559635Y160635*
X609635*
X610635Y161635*
Y169635*
X501635Y139135D02*
Y138635D01*
X499635Y136635*
Y125635*
X494635Y120635*
X572885Y210635D02*
Y230635D01*
X608135Y187135D02*
X605635Y189635D01*
X585885*
X572885Y202635*
Y210635*
X610635Y169635D02*
Y184635D01*
X608135Y187135*
X613635Y203635D02*
Y216635D01*
Y203635D02*
Y192635D01*
X608135Y187135*
X622885Y223635D02*
X619635D01*
X612635Y230635*
Y235635*
X605635Y242635*
X623885Y169635D02*
X610635D01*
X623885Y203635D02*
X613635D01*
X638385Y223635D02*
Y219635D01*
X639385Y203635D02*
*
D118*
X532635Y239635D02*
Y255135D01*
X545635Y268135*
X596635*
D02*
D120*
X30635Y30635D02*
D03*
Y370635D02*
D03*
X320635D02*
D03*
X350635Y30635D02*
D03*
X620635D02*
D03*
Y370635D02*
D03*
D02*
D124*
X460635Y30635D02*
D03*
X485635D02*
D03*
X510635D02*
D03*
X535635D02*
D03*
X560635D02*
D03*
D02*
D131*
X70635Y107635D02*
D03*
Y169635D02*
D03*
Y231635D02*
D03*
Y293635D02*
D03*
D02*
D133*
X100635Y12635D02*
D03*
Y145635D02*
D03*
Y165635D02*
D03*
Y185635D02*
D03*
Y195635D02*
D03*
Y215635D02*
D03*
Y235635D02*
D03*
Y255635D02*
D03*
X105635Y22635D02*
D03*
Y155635D02*
D03*
Y175635D02*
D03*
Y225635D02*
D03*
Y245635D02*
D03*
X110635Y12635D02*
D03*
Y145635D02*
D03*
Y165635D02*
D03*
Y185635D02*
D03*
Y215635D02*
D03*
Y235635D02*
D03*
Y255635D02*
D03*
Y325635D02*
D03*
Y345635D02*
D03*
X115635Y22635D02*
D03*
Y205635D02*
D03*
Y335635D02*
D03*
Y355635D02*
D03*
X120635Y12635D02*
D03*
Y105635D02*
D03*
Y325635D02*
D03*
Y345635D02*
D03*
X125635Y22635D02*
D03*
Y95635D02*
D03*
Y115635D02*
D03*
Y205635D02*
D03*
Y335635D02*
D03*
Y355635D02*
D03*
X130635Y12635D02*
D03*
Y85635D02*
D03*
Y105635D02*
D03*
Y125635D02*
D03*
Y195635D02*
D03*
Y325635D02*
D03*
Y345635D02*
D03*
X135635Y22635D02*
D03*
Y95635D02*
D03*
Y115635D02*
D03*
Y185635D02*
D03*
Y205635D02*
D03*
Y335635D02*
D03*
Y355635D02*
D03*
X138885Y43635D02*
D03*
X140635Y12635D02*
D03*
Y85635D02*
D03*
Y105635D02*
D03*
Y125635D02*
D03*
Y195635D02*
D03*
Y222085D02*
D03*
Y325635D02*
D03*
Y345635D02*
D03*
X145635Y22635D02*
D03*
Y185635D02*
D03*
Y335635D02*
D03*
Y355635D02*
D03*
X150635Y12635D02*
D03*
Y195635D02*
D03*
Y325635D02*
D03*
Y345635D02*
D03*
X151385Y69635D02*
D03*
X155635Y22635D02*
D03*
Y185635D02*
D03*
Y335635D02*
D03*
Y355635D02*
D03*
X159635Y241635D02*
D03*
X160635Y12635D02*
D03*
Y195635D02*
D03*
Y325635D02*
D03*
Y345635D02*
D03*
X165635Y22635D02*
D03*
Y185635D02*
D03*
Y335635D02*
D03*
Y355635D02*
D03*
X170635Y12635D02*
D03*
Y195635D02*
D03*
Y325635D02*
D03*
Y345635D02*
D03*
X175635Y22635D02*
D03*
Y185635D02*
D03*
Y205635D02*
D03*
Y335635D02*
D03*
Y355635D02*
D03*
X180635Y12635D02*
D03*
Y195635D02*
D03*
Y215635D02*
D03*
Y325635D02*
D03*
Y345635D02*
D03*
X185635Y22635D02*
D03*
Y185635D02*
D03*
Y205635D02*
D03*
Y335635D02*
D03*
Y355635D02*
D03*
X190635Y12635D02*
D03*
Y195635D02*
D03*
Y215635D02*
D03*
Y325635D02*
D03*
Y345635D02*
D03*
X195635Y22635D02*
D03*
Y185635D02*
D03*
Y335635D02*
D03*
Y355635D02*
D03*
X200635Y12635D02*
D03*
Y195635D02*
D03*
Y325635D02*
D03*
Y345635D02*
D03*
X205635Y22635D02*
D03*
Y185635D02*
D03*
Y335635D02*
D03*
Y355635D02*
D03*
X210635Y12635D02*
D03*
Y195635D02*
D03*
Y325635D02*
D03*
Y345635D02*
D03*
X215635Y22635D02*
D03*
Y335635D02*
D03*
Y355635D02*
D03*
X220635Y12635D02*
D03*
Y325635D02*
D03*
Y345635D02*
D03*
X225635Y22635D02*
D03*
Y335635D02*
D03*
Y355635D02*
D03*
X230635Y12635D02*
D03*
Y155635D02*
D03*
Y175635D02*
D03*
Y325635D02*
D03*
Y345635D02*
D03*
X235635Y22635D02*
D03*
Y165635D02*
D03*
Y335635D02*
D03*
Y355635D02*
D03*
X240635Y12635D02*
D03*
Y155635D02*
D03*
Y175635D02*
D03*
Y325635D02*
D03*
Y345635D02*
D03*
X244385Y222085D02*
D03*
X245385Y47385D02*
D03*
X245635Y22635D02*
D03*
Y165635D02*
D03*
Y335635D02*
D03*
Y355635D02*
D03*
X250635Y12635D02*
D03*
Y155635D02*
D03*
Y175635D02*
D03*
Y325635D02*
D03*
Y345635D02*
D03*
X255635Y22635D02*
D03*
Y165635D02*
D03*
Y335635D02*
D03*
Y355635D02*
D03*
X260635Y12635D02*
D03*
Y155635D02*
D03*
Y175635D02*
D03*
Y325635D02*
D03*
Y345635D02*
D03*
X265635Y22635D02*
D03*
Y165635D02*
D03*
Y335635D02*
D03*
Y355635D02*
D03*
X265885Y237585D02*
D03*
X270635Y12635D02*
D03*
Y63635D02*
D03*
Y155635D02*
D03*
Y175635D02*
D03*
Y325635D02*
D03*
Y345635D02*
D03*
X275635Y22635D02*
D03*
Y165635D02*
D03*
Y335635D02*
D03*
Y355635D02*
D03*
X280635Y12635D02*
D03*
Y155635D02*
D03*
Y175635D02*
D03*
Y325635D02*
D03*
Y345635D02*
D03*
X285635Y22635D02*
D03*
Y165635D02*
D03*
Y335635D02*
D03*
Y355635D02*
D03*
X290635Y12635D02*
D03*
Y155635D02*
D03*
Y175635D02*
D03*
Y325635D02*
D03*
X295635Y22635D02*
D03*
Y165635D02*
D03*
Y335635D02*
D03*
X300635Y12635D02*
D03*
Y155635D02*
D03*
Y175635D02*
D03*
Y325635D02*
D03*
X305635Y22635D02*
D03*
Y165635D02*
D03*
Y335635D02*
D03*
X310635Y12635D02*
D03*
Y155635D02*
D03*
Y175635D02*
D03*
Y325635D02*
D03*
X315635Y22635D02*
D03*
Y165635D02*
D03*
Y335635D02*
D03*
X320635Y155635D02*
D03*
Y175635D02*
D03*
Y325635D02*
D03*
X325635Y165635D02*
D03*
Y335635D02*
D03*
X330635Y325635D02*
D03*
X340635Y89635D02*
D03*
Y100635D02*
D03*
Y111635D02*
D03*
Y175635D02*
D03*
Y186635D02*
D03*
Y197635D02*
D03*
X341635Y233635D02*
D03*
X353635Y88635D02*
D03*
Y99635D02*
D03*
X362135Y240385D02*
D03*
X369635Y73635D02*
D03*
X371635Y225635D02*
D03*
X372385Y173385D02*
D03*
X376135Y158635D02*
D03*
X376385Y191135D02*
D03*
X376635Y204135D02*
D03*
Y215635D02*
D03*
Y245635D02*
D03*
X380635Y12635D02*
D03*
Y266635D02*
D03*
X385635Y22635D02*
D03*
Y94635D02*
D03*
X390635Y12635D02*
D03*
Y32635D02*
D03*
X395635Y22635D02*
D03*
Y42635D02*
D03*
X400635Y12635D02*
D03*
Y32635D02*
D03*
X405635Y22635D02*
D03*
Y42635D02*
D03*
X410635Y12635D02*
D03*
Y32635D02*
D03*
X415635Y22635D02*
D03*
Y42635D02*
D03*
X420635Y32635D02*
D03*
Y135635D02*
D03*
Y145635D02*
D03*
Y155635D02*
D03*
Y165635D02*
D03*
Y175635D02*
D03*
Y185635D02*
D03*
Y195635D02*
D03*
Y205635D02*
D03*
Y215635D02*
D03*
X425635Y42635D02*
D03*
X430635Y135635D02*
D03*
Y145635D02*
D03*
Y155635D02*
D03*
Y165635D02*
D03*
Y175635D02*
D03*
Y185635D02*
D03*
Y195635D02*
D03*
Y205635D02*
D03*
Y215635D02*
D03*
X440635Y305635D02*
D03*
Y365635D02*
D03*
X445635Y315635D02*
D03*
Y375635D02*
D03*
X450635Y305635D02*
D03*
Y365635D02*
D03*
X455635Y315635D02*
D03*
Y375635D02*
D03*
X460635Y305635D02*
D03*
Y365635D02*
D03*
X465635Y315635D02*
D03*
Y375635D02*
D03*
X470635Y305635D02*
D03*
Y365635D02*
D03*
X474635Y161635D02*
D03*
X475635Y315635D02*
D03*
Y375635D02*
D03*
X476635Y197635D02*
D03*
X482635Y142635D02*
D03*
Y204135D02*
D03*
X483635Y261635D02*
D03*
X486635Y90635D02*
D03*
X492635Y142635D02*
D03*
Y154635D02*
D03*
X494635Y120635D02*
D03*
X499635Y282635D02*
D03*
X500635Y83635D02*
D03*
X501635Y139135D02*
D03*
X505635Y207635D02*
D03*
X506635Y131635D02*
D03*
X511635Y222635D02*
D03*
X512635Y103635D02*
D03*
X532635Y239635D02*
D03*
X546635Y192635D02*
D03*
X562635Y140635D02*
D03*
X568635Y95385D02*
D03*
X599635Y140635D02*
D03*
X600635Y170635D02*
D03*
X603635Y198635D02*
D03*
X605635Y223635D02*
D03*
Y242635D02*
D03*
X613635Y216635D02*
D03*
X638385Y219635D02*
D03*
X639385Y203635D02*
D03*
X639635Y168635D02*
D03*
D02*
D134*
X596635Y268135D02*
D03*
Y283135D02*
D03*
Y298135D02*
D03*
Y313135D02*
D03*
D02*
D135*
X631135Y248385D02*
D03*
Y332635D02*
D03*
D02*
D136*
X461185Y99635D02*
D03*
Y107635D02*
D03*
Y115635D02*
D03*
Y123635D02*
D03*
X478685Y99635D02*
D03*
Y107635D02*
D03*
Y115635D02*
D03*
Y123635D02*
D03*
D02*
D137*
X200635Y100635D02*
D03*
Y270635D02*
D03*
X300635Y100635D02*
D03*
Y270635D02*
D03*
D02*
D138*
X191385Y60885D02*
D03*
Y230885D02*
D03*
X209885Y60885D02*
D03*
Y230885D02*
D03*
X291385Y60885D02*
D03*
Y230885D02*
D03*
X309885Y60885D02*
D03*
Y230885D02*
D03*
X0Y0D02*
M02*
