%FSLAX34Y34*%
%MOMM*%
G04 EasyPC Gerber Version 18.0.6 Build 3620 *
%ADD20R,0.65000X1.00000*%
%ADD94R,1.39000X1.40000*%
%ADD93R,3.36000X4.86000*%
%ADD10C,0.12700*%
%ADD106C,0.16000*%
%ADD11C,0.25400*%
%ADD129C,0.32000*%
%ADD128C,0.62000*%
%ADD75C,0.63500*%
%ADD22C,1.70000*%
%ADD27C,1.80000*%
%ADD83C,3.50000*%
%ADD124C,5.50000*%
%ADD104R,0.75000X0.50000*%
%ADD25R,1.00000X0.65000*%
%ADD109R,2.20000X0.80000*%
%ADD110R,1.90000X1.10000*%
X0Y0D02*
D02*
D10*
X6985Y135635D02*
Y6985D01*
X426985*
X431635Y11635*
Y60635*
X443635Y72635*
Y141635*
X447635Y145635*
Y174635*
X452635Y179635*
X464635*
X467635Y182635*
Y197635*
X477635Y207635*
Y295635*
X483635Y301635*
X543635*
X552635Y310635*
X577635*
X583400Y316400*
Y319370*
X584635*
Y389635*
X579985Y394285*
X6985*
Y343635*
X43635*
X67635Y367635*
X283635*
X306635Y344635*
X345635*
X352635Y337635*
Y326635*
X334635Y308635*
Y82635*
X333979Y81979*
G75*
G02X333664Y81606I-2341J1657*
G01*
X322664Y70606*
G75*
G02X322291Y70291I-2030J2026*
G01*
X321635Y69635*
X167635*
X166979Y70291*
G75*
G02X166606Y70606I1657J2341*
G01*
X159576Y77635*
X120635*
X119979Y78291*
G75*
G02X119606Y78606I1657J2341*
G01*
X114606Y83606*
G75*
G02X114291Y83979I2026J2030*
G01*
X113635Y84635*
Y135635*
X6985*
X136370Y38930D02*
Y38150D01*
X121900*
Y49120*
X136370*
Y48340*
G75*
G02X139900Y48873I2516J-4705*
G01*
Y49120*
X154370*
Y38150*
X139900*
Y38397*
G75*
G02X136370Y38930I-1014J5238*
G01*
X144100Y64620D02*
Y65385D01*
G75*
G02X144989Y67531I3035*
G01*
X146136Y68679*
G75*
G02X146050Y69635I5246J954*
G01*
G75*
G02X156720I5335*
G01*
G75*
G02X153205Y64620I-5335*
G01*
X154370*
Y53650*
X139900*
Y64620*
X144100*
X242870Y42680D02*
Y41900D01*
X228400*
Y52870*
X242870*
Y52090*
G75*
G02X246400Y52623I2516J-4705*
G01*
Y52870*
X260870*
Y41900*
X246400*
Y42147*
G75*
G02X242870Y42680I-1014J5238*
G01*
X260870Y59850D02*
Y57400D01*
X246400*
Y68370*
X260870*
Y66104*
G75*
G02X262635Y66670I1765J-2469*
G01*
X266247*
G75*
G02X275970Y63635I4388J-3035*
G01*
G75*
G02X266247Y60600I-5335*
G01*
X264633*
G75*
G02X262635Y59850I-1998J2286*
G01*
X260870*
X364927Y71127D02*
G75*
G02X364489Y71489I1706J2510D01*
G01*
X361489Y74489*
G75*
G02X360600Y76635I2146J2146*
G01*
Y196635*
G75*
G02X361489Y198781I3035*
G01*
X368489Y205781*
G75*
G02X369345Y206382I2145J-2146*
G01*
G75*
G02X371385Y207170I2040J-2247*
G01*
X372247*
G75*
G02X380200Y208104I4388J-3035*
G01*
Y222227*
X365968Y236675*
G75*
G02X356800Y240385I-3833J3710*
G01*
G75*
G02X366217Y243820I5335*
G01*
X367135*
G75*
G02X367450Y243806I5J-3434*
G01*
Y298885*
G75*
G02X368456Y301314I3435*
G01*
X423206Y356064*
G75*
G02X425635Y357070I2429J-2429*
G01*
X526464*
G75*
G02X536635Y364370I10171J-3435*
G01*
G75*
G02Y342900J-10735*
G01*
G75*
G02X526464Y350200J10735*
G01*
X427058*
X374320Y297462*
Y250442*
G75*
G02X376800Y250967I2313J-4807*
G01*
Y262926*
G75*
G02X375300Y266635I3835J3709*
G01*
G75*
G02X385970I5335*
G01*
G75*
G02X384470Y262926I-5335*
G01*
Y252224*
X405347Y231347*
G75*
G02X406470Y228635I-2712J-2712*
G01*
Y167635*
G75*
G02X405347Y164923I-3835*
G01*
X389470Y149047*
Y98344*
G75*
G02X390970Y94635I-3835J-3709*
G01*
G75*
G02X380300I-5335*
G01*
G75*
G02X381800Y98344I5335*
G01*
Y150635*
G75*
G02X382923Y153347I3835*
G01*
X398800Y169224*
Y227047*
X395360Y230487*
G75*
G02X395420Y229885I-2976J-601*
G01*
Y176135*
G75*
G02X394531Y173989I-3035*
G01*
X381108Y160566*
G75*
G02X381470Y158635I-4973J-1932*
G01*
G75*
G02X370800I-5335*
G01*
G75*
G02X375924Y163966I5335*
G01*
X389350Y177392*
Y185726*
X377696Y173885*
G75*
G02X377720Y173385I-5311J-506*
G01*
G75*
G02X367050I-5335*
G01*
G75*
G02X372800Y178704I5335*
G01*
X382111Y188165*
G75*
G02X380468Y187701I-1726J2969*
G01*
G75*
G02X371050Y191135I-4083J3434*
G01*
G75*
G02X379704Y195312I5335*
G01*
X380200Y195808*
Y200166*
G75*
G02X372414Y200872I-3565J3969*
G01*
X371781Y200239*
G75*
G02X370934Y199642I-2147J2147*
G01*
X366670Y195378*
Y78070*
G75*
G02X374970Y73635I2965J-4435*
G01*
G75*
G02X364927Y71127I-5335*
G01*
X6985Y43635D02*
G36*
Y6985D01*
X426985*
X431635Y11635*
Y43635*
X260870*
Y41900*
X246400*
Y42147*
G75*
G02X242870Y42680I-1014J5238*
G01*
Y41900*
X228400*
Y43635*
X154370*
Y38150*
X139900*
Y38397*
G75*
G02X136370Y38930I-1014J5238*
G01*
Y38150*
X121900*
Y43635*
X6985*
G37*
X121900D02*
G36*
Y49120D01*
X136370*
Y48340*
G75*
G02X139900Y48873I2516J-4705*
G01*
Y49120*
X154370*
Y43635*
X228400*
Y52870*
X242870*
Y52090*
G75*
G02X246400Y52623I2516J-4705*
G01*
Y52870*
X260870*
Y43635*
X431635*
Y60635*
X435310Y64310*
X275927*
G75*
G02X275970Y63635I-5293J-676*
G01*
G75*
G02X266247Y60600I-5335*
G01*
X264633*
G75*
G02X262635Y59850I-1998J2286*
G01*
X260870*
Y57400*
X246400*
Y64310*
X154370*
Y53650*
X139900*
Y64310*
X6985*
Y43635*
X121900*
G37*
X139900Y64310D02*
G36*
Y64620D01*
X144100*
Y65385*
G75*
G02X144989Y67531I3035*
G01*
X146136Y68679*
G75*
G02X146050Y69635I5246J954*
G01*
G75*
G02X156720I5335*
G01*
G75*
G02X153205Y64620I-5335*
G01*
X154370*
Y64310*
X246400*
Y68370*
X260870*
Y66104*
G75*
G02X262635Y66670I1765J-2469*
G01*
X266247*
G75*
G02X275927Y64310I4388J-3035*
G01*
X435310*
X443635Y72635*
Y141635*
X447635Y145635*
Y174635*
X452635Y179635*
X464635*
X467635Y182635*
Y197635*
X477635Y207635*
Y216335*
X406470*
Y167635*
G75*
G02X405347Y164923I-3835*
G01*
X389470Y149047*
Y98344*
G75*
G02X390970Y94635I-3835J-3709*
G01*
G75*
G02X380300I-5335*
G01*
G75*
G02X381800Y98344I5335*
G01*
Y150635*
G75*
G02X382923Y153347I3835*
G01*
X398800Y169224*
Y227047*
X395360Y230487*
G75*
G02X395420Y229885I-2976J-601*
G01*
Y176135*
G75*
G02X394531Y173989I-3035*
G01*
X381108Y160566*
G75*
G02X381470Y158635I-4973J-1932*
G01*
G75*
G02X370800I-5335*
G01*
G75*
G02X375924Y163966I5335*
G01*
X389350Y177392*
Y185726*
X377696Y173885*
G75*
G02X377720Y173385I-5311J-506*
G01*
G75*
G02X367050I-5335*
G01*
G75*
G02X372800Y178704I5335*
G01*
X382111Y188165*
G75*
G02X380468Y187701I-1726J2969*
G01*
G75*
G02X371050Y191135I-4083J3434*
G01*
G75*
G02X379704Y195312I5335*
G01*
X380200Y195808*
Y200166*
G75*
G02X372414Y200872I-3565J3969*
G01*
X371781Y200239*
G75*
G02X370934Y199642I-2147J2147*
G01*
X366670Y195378*
Y78070*
G75*
G02X374970Y73635I2965J-4435*
G01*
G75*
G02X364927Y71127I-5335*
G01*
G75*
G02X364489Y71489I1706J2510*
G01*
X361489Y74489*
G75*
G02X360600Y76635I2146J2146*
G01*
Y196635*
G75*
G02X361489Y198781I3035*
G01*
X368489Y205781*
G75*
G02X369345Y206382I2145J-2146*
G01*
G75*
G02X371385Y207170I2040J-2247*
G01*
X372247*
G75*
G02X380200Y208104I4388J-3035*
G01*
Y216335*
X334635*
Y82635*
X333979Y81979*
G75*
G02X333664Y81606I-2341J1657*
G01*
X322664Y70606*
G75*
G02X322291Y70291I-2030J2026*
G01*
X321635Y69635*
X167635*
X166979Y70291*
G75*
G02X166606Y70606I1657J2341*
G01*
X159576Y77635*
X120635*
X119979Y78291*
G75*
G02X119606Y78606I1657J2341*
G01*
X114606Y83606*
G75*
G02X114291Y83979I2026J2030*
G01*
X113635Y84635*
Y135635*
X6985*
Y64310*
X139900*
G37*
X380200Y216335D02*
G36*
Y222227D01*
X365968Y236675*
G75*
G02X356800Y240385I-3833J3710*
G01*
G75*
G02X366217Y243820I5335*
G01*
X367135*
G75*
G02X367450Y243806I5J-3434*
G01*
Y298885*
G75*
G02X368456Y301314I3435*
G01*
X423206Y356064*
G75*
G02X425635Y357070I2429J-2429*
G01*
X526464*
G75*
G02X536635Y364370I10171J-3435*
G01*
G75*
G02Y342900J-10735*
G01*
G75*
G02X526464Y350200J10735*
G01*
X427058*
X374320Y297462*
Y250442*
G75*
G02X376800Y250967I2313J-4807*
G01*
Y262926*
G75*
G02X375300Y266635I3835J3709*
G01*
G75*
G02X385970I5335*
G01*
G75*
G02X384470Y262926I-5335*
G01*
Y252224*
X405347Y231347*
G75*
G02X406470Y228635I-2712J-2712*
G01*
Y216335*
X477635*
Y295635*
X483635Y301635*
X543635*
X552635Y310635*
X577635*
X583400Y316400*
Y319370*
X584635*
Y389635*
X579985Y394285*
X6985*
Y343635*
X43635*
X67635Y367635*
X283635*
X306635Y344635*
X345635*
X352635Y337635*
Y326635*
X334635Y308635*
Y216335*
X380200*
G37*
X6985Y139385D02*
X230135D01*
Y72635*
X320635*
X331635Y83635*
Y237885*
X273885*
X263635Y227635*
Y220635*
X260870Y217870*
Y216600*
X259600*
X258635Y215635*
X230385*
X222885Y208135*
Y185635*
X211635Y174385*
X136385*
X111885Y198885*
X6985*
Y139385*
G36*
X230135*
Y72635*
X320635*
X331635Y83635*
Y237885*
X273885*
X263635Y227635*
Y220635*
X260870Y217870*
Y216600*
X259600*
X258635Y215635*
X230385*
X222885Y208135*
Y185635*
X211635Y174385*
X136385*
X111885Y198885*
X6985*
Y139385*
G37*
Y262385D02*
Y201755D01*
X111885*
G75*
G02X113914Y200914I-1J-2870*
G01*
X137574Y177255*
X210446*
X220015Y186824*
Y208135*
G75*
G02X220385Y209545I2871*
G01*
Y238385*
X218135Y240635*
X166635*
X163635Y237635*
Y236635*
X162635Y235635*
X158635*
X156635Y233635*
Y219135*
X156620Y219120*
Y216600*
X154100*
X151635Y214135*
X122885*
X119385Y217635*
Y262385*
X6985*
G36*
Y201755*
X111885*
G75*
G02X113914Y200914I-1J-2870*
G01*
X137574Y177255*
X210446*
X220015Y186824*
Y208135*
G75*
G02X220385Y209545I2871*
G01*
Y238385*
X218135Y240635*
X166635*
X163635Y237635*
Y236635*
X162635Y235635*
X158635*
X156635Y233635*
Y219135*
X156620Y219120*
Y216600*
X154100*
X151635Y214135*
X122885*
X119385Y217635*
Y262385*
X6985*
G37*
Y265635D02*
X122635D01*
X123635Y264635*
Y250635*
X127635Y246635*
X157774*
G75*
G02X161496I1861J-5001*
G01*
X175635*
X177635Y244635*
X231635*
X235635Y248635*
X269635*
X276635Y241635*
X331635*
Y309635*
X332287Y310287*
G75*
G02X332605Y310665I2346J-1651*
G01*
X349635Y327695*
Y336575*
X344575Y341635*
X327205*
G75*
G02X314065I-6570J28999*
G01*
X303635*
X280635Y364635*
X69635*
X46635Y341635*
X45695*
X45665Y341605*
G75*
G02X43635Y340764I-2030J2030*
G01*
X9764*
X6985Y337985*
Y265635*
G36*
X122635*
X123635Y264635*
Y250635*
X127635Y246635*
X157774*
G75*
G02X161496I1861J-5001*
G01*
X175635*
X177635Y244635*
X231635*
X235635Y248635*
X269635*
X276635Y241635*
X331635*
Y309635*
X332287Y310287*
G75*
G02X332605Y310665I2346J-1651*
G01*
X349635Y327695*
Y336575*
X344575Y341635*
X327205*
G75*
G02X314065I-6570J28999*
G01*
X303635*
X280635Y364635*
X69635*
X46635Y341635*
X45695*
X45665Y341605*
G75*
G02X43635Y340764I-2030J2030*
G01*
X9764*
X6985Y337985*
Y265635*
G37*
X116635Y135635D02*
Y85635D01*
X121635Y80635*
X160635*
X168635Y72635*
X226385*
Y135635*
X116635*
G36*
Y85635*
X121635Y80635*
X160635*
X168635Y72635*
X226385*
Y135635*
X116635*
G37*
D02*
D11*
X12088Y12088D02*
X8495Y8495D01*
X12088Y49182D02*
X8495Y52775D01*
X12088Y352088D02*
X8495Y348495D01*
X12088Y389182D02*
X8495Y392775D01*
X49182Y12088D02*
X52775Y8495D01*
X49182Y49182D02*
X52775Y52775D01*
X49182Y389182D02*
X52775Y392775D01*
X54405Y107635D02*
X49325D01*
X54405Y169635D02*
X49325D01*
X54405Y231635D02*
X49325D01*
X54405Y293635D02*
X49325D01*
X70635Y91405D02*
Y86325D01*
Y123865D02*
Y128945D01*
Y153405D02*
Y148325D01*
Y185865D02*
Y190945D01*
Y215405D02*
Y210325D01*
Y247865D02*
Y252945D01*
Y277405D02*
Y272325D01*
Y309865D02*
Y314945D01*
X86865Y107635D02*
X91945D01*
X86865Y169635D02*
X91945D01*
X86865Y231635D02*
X91945D01*
X86865Y293635D02*
X91945D01*
X98805Y195635D02*
X93725D01*
X98805Y215635D02*
X93725D01*
X98805Y235635D02*
X93725D01*
X99341Y11341D02*
X95749Y7749D01*
X99341Y13929D02*
X95749Y17521D01*
X99341Y144341D02*
X95749Y140749D01*
X99341Y146929D02*
X95749Y150521D01*
X99341Y164341D02*
X95749Y160749D01*
X99341Y166929D02*
X95749Y170521D01*
X99341Y184341D02*
X95749Y180749D01*
X99341Y186929D02*
X95749Y190521D01*
X99341Y254341D02*
X95749Y250749D01*
X99341Y256929D02*
X95749Y260521D01*
X100635Y193805D02*
Y188725D01*
Y213805D02*
Y208725D01*
Y217465D02*
Y222545D01*
Y233805D02*
Y228725D01*
Y237465D02*
Y242545D01*
X101929Y11341D02*
X105521Y7749D01*
X101929Y13929D02*
X105521Y17521D01*
X101929Y144341D02*
X105521Y140749D01*
X101929Y146929D02*
X105521Y150521D01*
X101929Y164341D02*
X105521Y160749D01*
X101929Y166929D02*
X105521Y170521D01*
X101929Y184341D02*
X105521Y180749D01*
X101929Y186929D02*
X105521Y190521D01*
X101929Y254341D02*
X105521Y250749D01*
X101929Y256929D02*
X105521Y260521D01*
X102465Y195635D02*
X107545D01*
X102465Y215635D02*
X107545D01*
X102465Y235635D02*
X107545D01*
X103805Y22635D02*
X98725D01*
X103805Y155635D02*
X98725D01*
X103805Y175635D02*
X98725D01*
X103805Y225635D02*
X98725D01*
X103805Y245635D02*
X98725D01*
X105635Y20805D02*
Y15725D01*
Y24465D02*
Y29545D01*
Y153805D02*
Y148725D01*
Y157465D02*
Y162545D01*
Y173805D02*
Y168725D01*
Y177465D02*
Y182545D01*
Y223805D02*
Y218725D01*
Y227465D02*
Y232545D01*
Y243805D02*
Y238725D01*
Y247465D02*
Y252545D01*
X107465Y22635D02*
X112545D01*
X107465Y155635D02*
X112545D01*
X107465Y175635D02*
X112545D01*
X107465Y225635D02*
X112545D01*
X107465Y245635D02*
X112545D01*
X108805Y165635D02*
X103725D01*
X108805Y185635D02*
X103725D01*
X109341Y11341D02*
X105749Y7749D01*
X109341Y13929D02*
X105749Y17521D01*
X109341Y144341D02*
X105749Y140749D01*
X109341Y146929D02*
X105749Y150521D01*
X109341Y214341D02*
X105749Y210749D01*
X109341Y216929D02*
X105749Y220521D01*
X109341Y234341D02*
X105749Y230749D01*
X109341Y236929D02*
X105749Y240521D01*
X109341Y254341D02*
X105749Y250749D01*
X109341Y256929D02*
X105749Y260521D01*
X109341Y324341D02*
X105749Y320749D01*
X109341Y326929D02*
X105749Y330521D01*
X109341Y344341D02*
X105749Y340749D01*
X109341Y346929D02*
X105749Y350521D01*
X110635Y163805D02*
Y158725D01*
Y167465D02*
Y172545D01*
Y183805D02*
Y178725D01*
Y187465D02*
Y192545D01*
X111929Y11341D02*
X115521Y7749D01*
X111929Y13929D02*
X115521Y17521D01*
X111929Y144341D02*
X115521Y140749D01*
X111929Y146929D02*
X115521Y150521D01*
X111929Y214341D02*
X115521Y210749D01*
X111929Y216929D02*
X115521Y220521D01*
X111929Y234341D02*
X115521Y230749D01*
X111929Y236929D02*
X115521Y240521D01*
X111929Y254341D02*
X115521Y250749D01*
X111929Y256929D02*
X115521Y260521D01*
X111929Y324341D02*
X115521Y320749D01*
X111929Y326929D02*
X115521Y330521D01*
X111929Y344341D02*
X115521Y340749D01*
X111929Y346929D02*
X115521Y350521D01*
X112465Y165635D02*
X117545D01*
X112465Y185635D02*
X117545D01*
X113805Y205635D02*
X108725D01*
X113805Y335635D02*
X108725D01*
X113805Y355635D02*
X108725D01*
X114341Y21341D02*
X110749Y17749D01*
X114341Y23929D02*
X110749Y27521D01*
X115635Y207465D02*
Y212545D01*
Y333805D02*
Y328725D01*
Y337465D02*
Y342545D01*
Y353805D02*
Y348725D01*
Y357465D02*
Y362545D01*
X116929Y21341D02*
X120521Y17749D01*
X116929Y23929D02*
X120521Y27521D01*
X117465Y205635D02*
X122545D01*
X117465Y335635D02*
X122545D01*
X117465Y355635D02*
X122545D01*
X118805Y325635D02*
X113725D01*
X118805Y345635D02*
X113725D01*
X119341Y11341D02*
X115749Y7749D01*
X119341Y13929D02*
X115749Y17521D01*
X120635Y103805D02*
Y98725D01*
Y107465D02*
Y112545D01*
Y323805D02*
Y318725D01*
Y327465D02*
Y332545D01*
Y343805D02*
Y338725D01*
Y347465D02*
Y352545D01*
X121929Y11341D02*
X125521Y7749D01*
X121929Y13929D02*
X125521Y17521D01*
X122465Y325635D02*
X127545D01*
X122465Y345635D02*
X127545D01*
X123805Y22635D02*
X118725D01*
X123805Y115635D02*
X118725D01*
X124341Y94341D02*
X120749Y90749D01*
X124341Y96929D02*
X120749Y100521D01*
X124341Y204341D02*
X120749Y200749D01*
X124341Y206929D02*
X120749Y210521D01*
X124341Y334341D02*
X120749Y330749D01*
X124341Y336929D02*
X120749Y340521D01*
X124341Y354341D02*
X120749Y350749D01*
X124341Y356929D02*
X120749Y360521D01*
X125405Y59135D02*
X120325D01*
X125635Y20805D02*
Y15725D01*
Y24465D02*
Y29545D01*
Y113805D02*
Y108725D01*
Y117465D02*
Y122545D01*
X126929Y94341D02*
X130521Y90749D01*
X126929Y96929D02*
X130521Y100521D01*
X126929Y204341D02*
X130521Y200749D01*
X126929Y206929D02*
X130521Y210521D01*
X126929Y334341D02*
X130521Y330749D01*
X126929Y336929D02*
X130521Y340521D01*
X126929Y354341D02*
X130521Y350749D01*
X126929Y356929D02*
X130521Y360521D01*
X127465Y22635D02*
X132545D01*
X127465Y115635D02*
X132545D01*
X128805Y85635D02*
X123725D01*
X128805Y105635D02*
X123725D01*
X128805Y125635D02*
X123725D01*
X128805Y195635D02*
X123725D01*
X129135Y57155D02*
Y52075D01*
Y61115D02*
Y66195D01*
X129341Y11341D02*
X125749Y7749D01*
X129341Y13929D02*
X125749Y17521D01*
X129341Y324341D02*
X125749Y320749D01*
X129341Y326929D02*
X125749Y330521D01*
X129341Y344341D02*
X125749Y340749D01*
X129341Y346929D02*
X125749Y350521D01*
X130635Y87465D02*
Y92545D01*
Y103805D02*
Y98725D01*
Y107465D02*
Y112545D01*
Y123805D02*
Y118725D01*
Y127465D02*
Y132545D01*
Y193805D02*
Y188725D01*
Y197465D02*
Y202545D01*
X131929Y11341D02*
X135521Y7749D01*
X131929Y13929D02*
X135521Y17521D01*
X131929Y324341D02*
X135521Y320749D01*
X131929Y326929D02*
X135521Y330521D01*
X131929Y344341D02*
X135521Y340749D01*
X131929Y346929D02*
X135521Y350521D01*
X132465Y85635D02*
X137545D01*
X132465Y105635D02*
X137545D01*
X132465Y125635D02*
X137545D01*
X132465Y195635D02*
X137545D01*
X132865Y59135D02*
X137945D01*
X133805Y95635D02*
X128725D01*
X133805Y205635D02*
X128725D01*
X133805Y335635D02*
X128725D01*
X133805Y355635D02*
X128725D01*
X134341Y21341D02*
X130749Y17749D01*
X134341Y23929D02*
X130749Y27521D01*
X134341Y114341D02*
X130749Y110749D01*
X134341Y116929D02*
X130749Y120521D01*
X134341Y186929D02*
X130749Y190521D01*
X135635Y93805D02*
Y88725D01*
Y97465D02*
Y102545D01*
Y203805D02*
Y198725D01*
Y207465D02*
Y212545D01*
Y333805D02*
Y328725D01*
Y337465D02*
Y342545D01*
Y353805D02*
Y348725D01*
Y357465D02*
Y362545D01*
X136929Y21341D02*
X140521Y17749D01*
X136929Y23929D02*
X140521Y27521D01*
X136929Y114341D02*
X140521Y110749D01*
X136929Y116929D02*
X140521Y120521D01*
X136929Y184341D02*
X140521Y180749D01*
X136929Y186929D02*
X140521Y190521D01*
X137465Y95635D02*
X142545D01*
X137465Y205635D02*
X142545D01*
X137465Y335635D02*
X142545D01*
X137465Y355635D02*
X142545D01*
X138805Y325635D02*
X133725D01*
X138805Y345635D02*
X133725D01*
X139341Y11341D02*
X135749Y7749D01*
X139341Y13929D02*
X135749Y17521D01*
X139341Y104341D02*
X135749Y100749D01*
X139341Y106929D02*
X135749Y110521D01*
X139341Y124341D02*
X135749Y120749D01*
X139341Y126929D02*
X135749Y130521D01*
X139341Y194341D02*
X135749Y190749D01*
X139341Y196929D02*
X135749Y200521D01*
X140635Y87465D02*
Y92545D01*
Y323805D02*
Y318725D01*
Y327465D02*
Y332545D01*
Y343805D02*
Y338725D01*
Y347465D02*
Y352545D01*
X141929Y11341D02*
X145521Y7749D01*
X141929Y13929D02*
X145521Y17521D01*
X141929Y104341D02*
X145521Y100749D01*
X141929Y106929D02*
X145521Y110521D01*
X141929Y124341D02*
X145521Y120749D01*
X141929Y126929D02*
X145521Y130521D01*
X141929Y194341D02*
X145521Y190749D01*
X141929Y196929D02*
X145521Y200521D01*
X142465Y85635D02*
X147545D01*
X142465Y325635D02*
X147545D01*
X142465Y345635D02*
X147545D01*
X143805Y22635D02*
X138725D01*
X143805Y185635D02*
X138725D01*
X144341Y334341D02*
X140749Y330749D01*
X144341Y336929D02*
X140749Y340521D01*
X144341Y354341D02*
X140749Y350749D01*
X144341Y356929D02*
X140749Y360521D01*
X145635Y20805D02*
Y15725D01*
Y24465D02*
Y29545D01*
Y183805D02*
Y178725D01*
Y187465D02*
Y192545D01*
X146929Y334341D02*
X150521Y330749D01*
X146929Y336929D02*
X150521Y340521D01*
X146929Y354341D02*
X150521Y350749D01*
X146929Y356929D02*
X150521Y360521D01*
X147465Y22635D02*
X152545D01*
X147465Y185635D02*
X152545D01*
X148805Y195635D02*
X143725D01*
X149341Y11341D02*
X145749Y7749D01*
X149341Y13929D02*
X145749Y17521D01*
X149341Y324341D02*
X145749Y320749D01*
X149341Y326929D02*
X145749Y330521D01*
X149341Y344341D02*
X145749Y340749D01*
X149341Y346929D02*
X145749Y350521D01*
X150635Y193805D02*
Y188725D01*
Y197465D02*
Y202545D01*
X151929Y11341D02*
X155521Y7749D01*
X151929Y13929D02*
X155521Y17521D01*
X151929Y324341D02*
X155521Y320749D01*
X151929Y326929D02*
X155521Y330521D01*
X151929Y344341D02*
X155521Y340749D01*
X151929Y346929D02*
X155521Y350521D01*
X152465Y195635D02*
X157545D01*
X153805Y335635D02*
X148725D01*
X153805Y355635D02*
X148725D01*
X154341Y21341D02*
X150749Y17749D01*
X154341Y23929D02*
X150749Y27521D01*
X154341Y184341D02*
X150749Y180749D01*
X154341Y186929D02*
X150749Y190521D01*
X155635Y333805D02*
Y328725D01*
Y337465D02*
Y342545D01*
Y353805D02*
Y348725D01*
Y357465D02*
Y362545D01*
X156929Y21341D02*
X160521Y17749D01*
X156929Y23929D02*
X160521Y27521D01*
X156929Y184341D02*
X160521Y180749D01*
X156929Y186929D02*
X160521Y190521D01*
X157465Y335635D02*
X162545D01*
X157465Y355635D02*
X162545D01*
X158805Y325635D02*
X153725D01*
X158805Y345635D02*
X153725D01*
X159341Y11341D02*
X155749Y7749D01*
X159341Y13929D02*
X155749Y17521D01*
X159341Y194341D02*
X155749Y190749D01*
X159341Y196929D02*
X155749Y200521D01*
X160635Y323805D02*
Y318725D01*
Y327465D02*
Y332545D01*
Y343805D02*
Y338725D01*
Y347465D02*
Y352545D01*
X161929Y11341D02*
X165521Y7749D01*
X161929Y13929D02*
X165521Y17521D01*
X161929Y194341D02*
X165521Y190749D01*
X161929Y196929D02*
X165521Y200521D01*
X162465Y325635D02*
X167545D01*
X162465Y345635D02*
X167545D01*
X163805Y22635D02*
X158725D01*
X163805Y185635D02*
X158725D01*
X164341Y334341D02*
X160749Y330749D01*
X164341Y336929D02*
X160749Y340521D01*
X164341Y354341D02*
X160749Y350749D01*
X164341Y356929D02*
X160749Y360521D01*
X165635Y20805D02*
Y15725D01*
Y24465D02*
Y29545D01*
Y183805D02*
Y178725D01*
Y187465D02*
Y192545D01*
X166929Y334341D02*
X170521Y330749D01*
X166929Y336929D02*
X170521Y340521D01*
X166929Y354341D02*
X170521Y350749D01*
X166929Y356929D02*
X170521Y360521D01*
X167465Y22635D02*
X172545D01*
X167465Y185635D02*
X172545D01*
X168805Y195635D02*
X163725D01*
X169341Y11341D02*
X165749Y7749D01*
X169341Y13929D02*
X165749Y17521D01*
X169341Y324341D02*
X165749Y320749D01*
X169341Y326929D02*
X165749Y330521D01*
X169341Y344341D02*
X165749Y340749D01*
X169341Y346929D02*
X165749Y350521D01*
X170635Y193805D02*
Y188725D01*
Y197465D02*
Y202545D01*
X171929Y11341D02*
X175521Y7749D01*
X171929Y13929D02*
X175521Y17521D01*
X171929Y324341D02*
X175521Y320749D01*
X171929Y326929D02*
X175521Y330521D01*
X171929Y344341D02*
X175521Y340749D01*
X171929Y346929D02*
X175521Y350521D01*
X172465Y195635D02*
X177545D01*
X173805Y205635D02*
X168725D01*
X173805Y335635D02*
X168725D01*
X173805Y355635D02*
X168725D01*
X174341Y21341D02*
X170749Y17749D01*
X174341Y23929D02*
X170749Y27521D01*
X174341Y184341D02*
X170749Y180749D01*
X174341Y186929D02*
X170749Y190521D01*
X175635Y203805D02*
Y198725D01*
Y207465D02*
Y212545D01*
Y333805D02*
Y328725D01*
Y337465D02*
Y342545D01*
Y353805D02*
Y348725D01*
Y357465D02*
Y362545D01*
X176929Y21341D02*
X180521Y17749D01*
X176929Y23929D02*
X180521Y27521D01*
X176929Y184341D02*
X180521Y180749D01*
X176929Y186929D02*
X180521Y190521D01*
X177465Y205635D02*
X182545D01*
X177465Y335635D02*
X182545D01*
X177465Y355635D02*
X182545D01*
X178805Y215635D02*
X173725D01*
X178805Y325635D02*
X173725D01*
X178805Y345635D02*
X173725D01*
X179341Y11341D02*
X175749Y7749D01*
X179341Y13929D02*
X175749Y17521D01*
X179341Y194341D02*
X175749Y190749D01*
X179341Y196929D02*
X175749Y200521D01*
X180635Y213805D02*
Y208725D01*
Y217465D02*
Y222545D01*
Y323805D02*
Y318725D01*
Y327465D02*
Y332545D01*
Y343805D02*
Y338725D01*
Y347465D02*
Y352545D01*
X181929Y11341D02*
X185521Y7749D01*
X181929Y13929D02*
X185521Y17521D01*
X181929Y194341D02*
X185521Y190749D01*
X181929Y196929D02*
X185521Y200521D01*
X182465Y215635D02*
X187545D01*
X182465Y325635D02*
X187545D01*
X182465Y345635D02*
X187545D01*
X183805Y22635D02*
X178725D01*
X183805Y185635D02*
X178725D01*
X184341Y204341D02*
X180749Y200749D01*
X184341Y206929D02*
X180749Y210521D01*
X184341Y334341D02*
X180749Y330749D01*
X184341Y336929D02*
X180749Y340521D01*
X184341Y354341D02*
X180749Y350749D01*
X184341Y356929D02*
X180749Y360521D01*
X184733Y84733D02*
X180025Y80025D01*
X184733Y116537D02*
X180025Y121245D01*
X184733Y254733D02*
X180025Y250025D01*
X184733Y286537D02*
X180025Y291245D01*
X185635Y20805D02*
Y15725D01*
Y24465D02*
Y29545D01*
Y183805D02*
Y178725D01*
Y187465D02*
Y192545D01*
X185705Y60885D02*
X180625D01*
X185705Y230885D02*
X180625D01*
X186929Y204341D02*
X190521Y200749D01*
X186929Y206929D02*
X190521Y210521D01*
X186929Y334341D02*
X190521Y330749D01*
X186929Y336929D02*
X190521Y340521D01*
X186929Y354341D02*
X190521Y350749D01*
X186929Y356929D02*
X190521Y360521D01*
X187465Y22635D02*
X192545D01*
X187465Y185635D02*
X192545D01*
X188805Y195635D02*
X183725D01*
X189341Y11341D02*
X185749Y7749D01*
X189341Y13929D02*
X185749Y17521D01*
X189341Y214341D02*
X185749Y210749D01*
X189341Y216929D02*
X185749Y220521D01*
X189341Y324341D02*
X185749Y320749D01*
X189341Y326929D02*
X185749Y330521D01*
X189341Y344341D02*
X185749Y340749D01*
X189341Y346929D02*
X185749Y350521D01*
X190635Y193805D02*
Y188725D01*
Y197465D02*
Y202545D01*
X191385Y55155D02*
Y50075D01*
Y225155D02*
Y220075D01*
X191929Y11341D02*
X195521Y7749D01*
X191929Y13929D02*
X195521Y17521D01*
X191929Y214341D02*
X195521Y210749D01*
X191929Y216929D02*
X195521Y220521D01*
X191929Y324341D02*
X195521Y320749D01*
X191929Y326929D02*
X195521Y330521D01*
X191929Y344341D02*
X195521Y340749D01*
X191929Y346929D02*
X195521Y350521D01*
X192465Y195635D02*
X197545D01*
X193805Y335635D02*
X188725D01*
X193805Y355635D02*
X188725D01*
X194341Y21341D02*
X190749Y17749D01*
X194341Y23929D02*
X190749Y27521D01*
X194341Y184341D02*
X190749Y180749D01*
X194341Y186929D02*
X190749Y190521D01*
X195635Y333805D02*
Y328725D01*
Y337465D02*
Y342545D01*
Y353805D02*
Y348725D01*
Y357465D02*
Y362545D01*
X196929Y21341D02*
X200521Y17749D01*
X196929Y23929D02*
X200521Y27521D01*
X196929Y184341D02*
X200521Y180749D01*
X196929Y186929D02*
X200521Y190521D01*
X197465Y335635D02*
X202545D01*
X197465Y355635D02*
X202545D01*
X198805Y325635D02*
X193725D01*
X198805Y345635D02*
X193725D01*
X199341Y11341D02*
X195749Y7749D01*
X199341Y13929D02*
X195749Y17521D01*
X199341Y194341D02*
X195749Y190749D01*
X199341Y196929D02*
X195749Y200521D01*
X200635Y323805D02*
Y318725D01*
Y327465D02*
Y332545D01*
Y343805D02*
Y338725D01*
Y347465D02*
Y352545D01*
X201929Y11341D02*
X205521Y7749D01*
X201929Y13929D02*
X205521Y17521D01*
X201929Y194341D02*
X205521Y190749D01*
X201929Y196929D02*
X205521Y200521D01*
X202465Y325635D02*
X207545D01*
X202465Y345635D02*
X207545D01*
X203805Y22635D02*
X198725D01*
X203805Y185635D02*
X198725D01*
X204205Y60885D02*
X199125D01*
X204205Y230885D02*
X199125D01*
X204341Y334341D02*
X200749Y330749D01*
X204341Y336929D02*
X200749Y340521D01*
X204341Y354341D02*
X200749Y350749D01*
X204341Y356929D02*
X200749Y360521D01*
X205635Y20805D02*
Y15725D01*
Y24465D02*
Y29545D01*
Y183805D02*
Y178725D01*
Y187465D02*
Y192545D01*
X206929Y334341D02*
X210521Y330749D01*
X206929Y336929D02*
X210521Y340521D01*
X206929Y354341D02*
X210521Y350749D01*
X206929Y356929D02*
X210521Y360521D01*
X207465Y22635D02*
X212545D01*
X207465Y185635D02*
X212545D01*
X208805Y195635D02*
X203725D01*
X209341Y11341D02*
X205749Y7749D01*
X209341Y13929D02*
X205749Y17521D01*
X209341Y324341D02*
X205749Y320749D01*
X209341Y326929D02*
X205749Y330521D01*
X209341Y344341D02*
X205749Y340749D01*
X209341Y346929D02*
X205749Y350521D01*
X209885Y55155D02*
Y50075D01*
Y225155D02*
Y220075D01*
X210635Y193805D02*
Y188725D01*
Y197465D02*
Y202545D01*
X211929Y11341D02*
X215521Y7749D01*
X211929Y13929D02*
X215521Y17521D01*
X211929Y324341D02*
X215521Y320749D01*
X211929Y326929D02*
X215521Y330521D01*
X211929Y344341D02*
X215521Y340749D01*
X211929Y346929D02*
X215521Y350521D01*
X212465Y195635D02*
X217545D01*
X213805Y335635D02*
X208725D01*
X213805Y355635D02*
X208725D01*
X214341Y21341D02*
X210749Y17749D01*
X214341Y23929D02*
X210749Y27521D01*
X215565Y60885D02*
X220645D01*
X215635Y333805D02*
Y328725D01*
Y337465D02*
Y342545D01*
Y353805D02*
Y348725D01*
Y357465D02*
Y362545D01*
X216537Y84733D02*
X221245Y80025D01*
X216537Y116537D02*
X221245Y121245D01*
X216537Y254733D02*
X221245Y250025D01*
X216537Y286537D02*
X221245Y291245D01*
X216929Y21341D02*
X220521Y17749D01*
X216929Y23929D02*
X220521Y27521D01*
X217465Y335635D02*
X222545D01*
X217465Y355635D02*
X222545D01*
X218805Y325635D02*
X213725D01*
X218805Y345635D02*
X213725D01*
X219341Y11341D02*
X215749Y7749D01*
X219341Y13929D02*
X215749Y17521D01*
X220635Y323805D02*
Y318725D01*
Y327465D02*
Y332545D01*
Y343805D02*
Y338725D01*
Y347465D02*
Y352545D01*
X221929Y11341D02*
X225521Y7749D01*
X221929Y13929D02*
X225521Y17521D01*
X222465Y325635D02*
X227545D01*
X222465Y345635D02*
X227545D01*
X223805Y22635D02*
X218725D01*
X224341Y334341D02*
X220749Y330749D01*
X224341Y336929D02*
X220749Y340521D01*
X224341Y354341D02*
X220749Y350749D01*
X224341Y356929D02*
X220749Y360521D01*
X225635Y20805D02*
Y15725D01*
Y24465D02*
Y29545D01*
X226929Y334341D02*
X230521Y330749D01*
X226929Y336929D02*
X230521Y340521D01*
X226929Y354341D02*
X230521Y350749D01*
X226929Y356929D02*
X230521Y360521D01*
X227465Y22635D02*
X232545D01*
X228805Y175635D02*
X223725D01*
X229341Y11341D02*
X225749Y7749D01*
X229341Y13929D02*
X225749Y17521D01*
X229341Y154341D02*
X225749Y150749D01*
X229341Y156929D02*
X225749Y160521D01*
X229341Y324341D02*
X225749Y320749D01*
X229341Y326929D02*
X225749Y330521D01*
X229341Y344341D02*
X225749Y340749D01*
X229341Y346929D02*
X225749Y350521D01*
X230635Y173805D02*
Y168725D01*
Y177465D02*
Y182545D01*
X231905Y62885D02*
X226825D01*
X231929Y11341D02*
X235521Y7749D01*
X231929Y13929D02*
X235521Y17521D01*
X231929Y154341D02*
X235521Y150749D01*
X231929Y156929D02*
X235521Y160521D01*
X231929Y324341D02*
X235521Y320749D01*
X231929Y326929D02*
X235521Y330521D01*
X231929Y344341D02*
X235521Y340749D01*
X231929Y346929D02*
X235521Y350521D01*
X232465Y175635D02*
X237545D01*
X233805Y165635D02*
X228725D01*
X233805Y335635D02*
X228725D01*
X233805Y355635D02*
X228725D01*
X234341Y21341D02*
X230749Y17749D01*
X234341Y23929D02*
X230749Y27521D01*
X235635Y60905D02*
Y55825D01*
Y163805D02*
Y158725D01*
Y167465D02*
Y172545D01*
Y333805D02*
Y328725D01*
Y337465D02*
Y342545D01*
Y353805D02*
Y348725D01*
Y357465D02*
Y362545D01*
X236929Y21341D02*
X240521Y17749D01*
X236929Y23929D02*
X240521Y27521D01*
X237465Y165635D02*
X242545D01*
X237465Y335635D02*
X242545D01*
X237465Y355635D02*
X242545D01*
X238805Y155635D02*
X233725D01*
X238805Y325635D02*
X233725D01*
X238805Y345635D02*
X233725D01*
X239341Y11341D02*
X235749Y7749D01*
X239341Y13929D02*
X235749Y17521D01*
X239341Y174341D02*
X235749Y170749D01*
X239341Y176929D02*
X235749Y180521D01*
X239365Y62885D02*
X244445D01*
X240635Y153805D02*
Y148725D01*
Y157465D02*
Y162545D01*
Y323805D02*
Y318725D01*
Y327465D02*
Y332545D01*
Y343805D02*
Y338725D01*
Y347465D02*
Y352545D01*
X241929Y11341D02*
X245521Y7749D01*
X241929Y13929D02*
X245521Y17521D01*
X241929Y174341D02*
X245521Y170749D01*
X241929Y176929D02*
X245521Y180521D01*
X242465Y155635D02*
X247545D01*
X242465Y325635D02*
X247545D01*
X242465Y345635D02*
X247545D01*
X243805Y22635D02*
X238725D01*
X244341Y164341D02*
X240749Y160749D01*
X244341Y166929D02*
X240749Y170521D01*
X244341Y334341D02*
X240749Y330749D01*
X244341Y336929D02*
X240749Y340521D01*
X244341Y354341D02*
X240749Y350749D01*
X244341Y356929D02*
X240749Y360521D01*
X245635Y20805D02*
Y15725D01*
Y24465D02*
Y29545D01*
X246929Y164341D02*
X250521Y160749D01*
X246929Y166929D02*
X250521Y170521D01*
X246929Y334341D02*
X250521Y330749D01*
X246929Y336929D02*
X250521Y340521D01*
X246929Y354341D02*
X250521Y350749D01*
X246929Y356929D02*
X250521Y360521D01*
X247465Y22635D02*
X252545D01*
X248805Y175635D02*
X243725D01*
X249341Y11341D02*
X245749Y7749D01*
X249341Y13929D02*
X245749Y17521D01*
X249341Y154341D02*
X245749Y150749D01*
X249341Y156929D02*
X245749Y160521D01*
X249341Y324341D02*
X245749Y320749D01*
X249341Y326929D02*
X245749Y330521D01*
X249341Y344341D02*
X245749Y340749D01*
X249341Y346929D02*
X245749Y350521D01*
X250635Y173805D02*
Y168725D01*
Y177465D02*
Y182545D01*
X251929Y11341D02*
X255521Y7749D01*
X251929Y13929D02*
X255521Y17521D01*
X251929Y154341D02*
X255521Y150749D01*
X251929Y156929D02*
X255521Y160521D01*
X251929Y324341D02*
X255521Y320749D01*
X251929Y326929D02*
X255521Y330521D01*
X251929Y344341D02*
X255521Y340749D01*
X251929Y346929D02*
X255521Y350521D01*
X252465Y175635D02*
X257545D01*
X253805Y165635D02*
X248725D01*
X253805Y335635D02*
X248725D01*
X253805Y355635D02*
X248725D01*
X254341Y21341D02*
X250749Y17749D01*
X254341Y23929D02*
X250749Y27521D01*
X255635Y163805D02*
Y158725D01*
Y167465D02*
Y172545D01*
Y333805D02*
Y328725D01*
Y337465D02*
Y342545D01*
Y353805D02*
Y348725D01*
Y357465D02*
Y362545D01*
X256929Y21341D02*
X260521Y17749D01*
X256929Y23929D02*
X260521Y27521D01*
X257465Y165635D02*
X262545D01*
X257465Y335635D02*
X262545D01*
X257465Y355635D02*
X262545D01*
X258805Y325635D02*
X253725D01*
X258805Y345635D02*
X253725D01*
X259341Y11341D02*
X255749Y7749D01*
X259341Y13929D02*
X255749Y17521D01*
X259341Y154341D02*
X255749Y150749D01*
X259341Y156929D02*
X255749Y160521D01*
X259341Y174341D02*
X255749Y170749D01*
X259341Y176929D02*
X255749Y180521D01*
X260635Y323805D02*
Y318725D01*
Y327465D02*
Y332545D01*
Y343805D02*
Y338725D01*
Y347465D02*
Y352545D01*
X261929Y11341D02*
X265521Y7749D01*
X261929Y13929D02*
X265521Y17521D01*
X261929Y154341D02*
X265521Y150749D01*
X261929Y156929D02*
X265521Y160521D01*
X261929Y174341D02*
X265521Y170749D01*
X261929Y176929D02*
X265521Y180521D01*
X262465Y325635D02*
X267545D01*
X262465Y345635D02*
X267545D01*
X263805Y22635D02*
X258725D01*
X264341Y164341D02*
X260749Y160749D01*
X264341Y166929D02*
X260749Y170521D01*
X264341Y334341D02*
X260749Y330749D01*
X264341Y336929D02*
X260749Y340521D01*
X264341Y354341D02*
X260749Y350749D01*
X264341Y356929D02*
X260749Y360521D01*
X265635Y20805D02*
Y15725D01*
Y24465D02*
Y29545D01*
X266929Y164341D02*
X270521Y160749D01*
X266929Y166929D02*
X270521Y170521D01*
X266929Y334341D02*
X270521Y330749D01*
X266929Y336929D02*
X270521Y340521D01*
X266929Y354341D02*
X270521Y350749D01*
X266929Y356929D02*
X270521Y360521D01*
X267465Y22635D02*
X272545D01*
X268805Y155635D02*
X263725D01*
X268805Y175635D02*
X263725D01*
X269341Y11341D02*
X265749Y7749D01*
X269341Y13929D02*
X265749Y17521D01*
X269341Y324341D02*
X265749Y320749D01*
X269341Y326929D02*
X265749Y330521D01*
X269341Y344341D02*
X265749Y340749D01*
X269341Y346929D02*
X265749Y350521D01*
X270635Y153805D02*
Y148725D01*
Y157465D02*
Y162545D01*
Y173805D02*
Y168725D01*
Y177465D02*
Y182545D01*
X271929Y11341D02*
X275521Y7749D01*
X271929Y13929D02*
X275521Y17521D01*
X271929Y324341D02*
X275521Y320749D01*
X271929Y326929D02*
X275521Y330521D01*
X271929Y344341D02*
X275521Y340749D01*
X271929Y346929D02*
X275521Y350521D01*
X272465Y155635D02*
X277545D01*
X272465Y175635D02*
X277545D01*
X273805Y165635D02*
X268725D01*
X273805Y335635D02*
X268725D01*
X273805Y355635D02*
X268725D01*
X274341Y21341D02*
X270749Y17749D01*
X274341Y23929D02*
X270749Y27521D01*
X275635Y163805D02*
Y158725D01*
Y167465D02*
Y172545D01*
Y333805D02*
Y328725D01*
Y337465D02*
Y342545D01*
Y353805D02*
Y348725D01*
Y357465D02*
Y362545D01*
X276929Y21341D02*
X280521Y17749D01*
X276929Y23929D02*
X280521Y27521D01*
X277465Y165635D02*
X282545D01*
X277465Y335635D02*
X282545D01*
X277465Y355635D02*
X282545D01*
X278805Y325635D02*
X273725D01*
X278805Y345635D02*
X273725D01*
X279341Y11341D02*
X275749Y7749D01*
X279341Y13929D02*
X275749Y17521D01*
X279341Y154341D02*
X275749Y150749D01*
X279341Y156929D02*
X275749Y160521D01*
X279341Y174341D02*
X275749Y170749D01*
X279341Y176929D02*
X275749Y180521D01*
X280635Y323805D02*
Y318725D01*
Y327465D02*
Y332545D01*
Y343805D02*
Y338725D01*
Y347465D02*
Y352545D01*
X281929Y11341D02*
X285521Y7749D01*
X281929Y13929D02*
X285521Y17521D01*
X281929Y154341D02*
X285521Y150749D01*
X281929Y156929D02*
X285521Y160521D01*
X281929Y174341D02*
X285521Y170749D01*
X281929Y176929D02*
X285521Y180521D01*
X282465Y325635D02*
X287545D01*
X282465Y345635D02*
X287545D01*
X283805Y22635D02*
X278725D01*
X284341Y164341D02*
X280749Y160749D01*
X284341Y166929D02*
X280749Y170521D01*
X284341Y334341D02*
X280749Y330749D01*
X284341Y336929D02*
X280749Y340521D01*
X284341Y354341D02*
X280749Y350749D01*
X284341Y356929D02*
X280749Y360521D01*
X284733Y84733D02*
X280025Y80025D01*
X284733Y116537D02*
X280025Y121245D01*
X285105Y270635D02*
X280025D01*
X285635Y20805D02*
Y15725D01*
Y24465D02*
Y29545D01*
X285705Y60885D02*
X280625D01*
X285705Y230885D02*
X280625D01*
X286929Y164341D02*
X290521Y160749D01*
X286929Y166929D02*
X290521Y170521D01*
X286929Y334341D02*
X290521Y330749D01*
X286929Y336929D02*
X290521Y340521D01*
X286929Y354341D02*
X290521Y350749D01*
X287465Y22635D02*
X292545D01*
X288805Y175635D02*
X283725D01*
X289341Y11341D02*
X285749Y7749D01*
X289341Y13929D02*
X285749Y17521D01*
X289341Y154341D02*
X285749Y150749D01*
X289341Y156929D02*
X285749Y160521D01*
X289341Y324341D02*
X285749Y320749D01*
X289341Y326929D02*
X285749Y330521D01*
X290635Y173805D02*
Y168725D01*
Y177465D02*
Y182545D01*
X291385Y55155D02*
Y50075D01*
Y225155D02*
Y220075D01*
X291929Y11341D02*
X295521Y7749D01*
X291929Y13929D02*
X295521Y17521D01*
X291929Y154341D02*
X295521Y150749D01*
X291929Y156929D02*
X295521Y160521D01*
X291929Y324341D02*
X295521Y320749D01*
X291929Y326929D02*
X295521Y330521D01*
X292465Y175635D02*
X297545D01*
X293805Y165635D02*
X288725D01*
X293805Y335635D02*
X288725D01*
X294341Y21341D02*
X290749Y17749D01*
X294341Y23929D02*
X290749Y27521D01*
X295635Y163805D02*
Y158725D01*
Y167465D02*
Y172545D01*
Y333805D02*
Y328725D01*
Y337465D02*
Y342545D01*
X296929Y21341D02*
X300521Y17749D01*
X296929Y23929D02*
X300521Y27521D01*
X297465Y165635D02*
X302545D01*
X297465Y335635D02*
X302545D01*
X298805Y155635D02*
X293725D01*
X298805Y325635D02*
X293725D01*
X299341Y11341D02*
X295749Y7749D01*
X299341Y13929D02*
X295749Y17521D01*
X299341Y174341D02*
X295749Y170749D01*
X299341Y176929D02*
X295749Y180521D01*
X300635Y153805D02*
Y148725D01*
Y157465D02*
Y162545D01*
Y247605D02*
Y242525D01*
Y293665D02*
Y298745D01*
Y323805D02*
Y318725D01*
Y327465D02*
Y332545D01*
X301929Y11341D02*
X305521Y7749D01*
X301929Y13929D02*
X305521Y17521D01*
X301929Y174341D02*
X305521Y170749D01*
X301929Y176929D02*
X305521Y180521D01*
X302088Y389182D02*
X298495Y392775D01*
X302465Y155635D02*
X307545D01*
X302465Y325635D02*
X307545D01*
X303805Y22635D02*
X298725D01*
X304205Y60885D02*
X299125D01*
X304205Y230885D02*
X299125D01*
X304341Y164341D02*
X300749Y160749D01*
X304341Y166929D02*
X300749Y170521D01*
X304341Y334341D02*
X300749Y330749D01*
X304341Y336929D02*
X300749Y340521D01*
X305635Y20805D02*
Y15725D01*
Y24465D02*
Y29545D01*
X306929Y164341D02*
X310521Y160749D01*
X306929Y166929D02*
X310521Y170521D01*
X306929Y334341D02*
X310521Y330749D01*
X306929Y336929D02*
X310521Y340521D01*
X307465Y22635D02*
X312545D01*
X308805Y175635D02*
X303725D01*
X309341Y11341D02*
X305749Y7749D01*
X309341Y13929D02*
X305749Y17521D01*
X309341Y154341D02*
X305749Y150749D01*
X309341Y156929D02*
X305749Y160521D01*
X309341Y324341D02*
X305749Y320749D01*
X309341Y326929D02*
X305749Y330521D01*
X309885Y55155D02*
Y50075D01*
Y225155D02*
Y220075D01*
X310635Y173805D02*
Y168725D01*
Y177465D02*
Y182545D01*
X311929Y11341D02*
X315521Y7749D01*
X311929Y13929D02*
X315521Y17521D01*
X311929Y154341D02*
X315521Y150749D01*
X311929Y156929D02*
X315521Y160521D01*
X311929Y324341D02*
X315521Y320749D01*
X311929Y326929D02*
X315521Y330521D01*
X312465Y175635D02*
X317545D01*
X313805Y165635D02*
X308725D01*
X313805Y335635D02*
X308725D01*
X314341Y21341D02*
X310749Y17749D01*
X314341Y23929D02*
X310749Y27521D01*
X315565Y60885D02*
X320645D01*
X315565Y230885D02*
X320645D01*
X315635Y163805D02*
Y158725D01*
Y167465D02*
Y172545D01*
Y333805D02*
Y328725D01*
X316165Y270635D02*
X321245D01*
X316537Y84733D02*
X321245Y80025D01*
X316537Y116537D02*
X321245Y121245D01*
X316929Y21341D02*
X320521Y17749D01*
X316929Y23929D02*
X320521Y27521D01*
X317465Y165635D02*
X322545D01*
X317465Y335635D02*
X322545D01*
X318805Y155635D02*
X313725D01*
X319341Y174341D02*
X315749Y170749D01*
X319341Y176929D02*
X315749Y180521D01*
X319341Y324341D02*
X315749Y320749D01*
X319341Y326929D02*
X315749Y330521D01*
X320635Y153805D02*
Y148725D01*
Y157465D02*
Y162545D01*
X321929Y174341D02*
X325521Y170749D01*
X321929Y176929D02*
X325521Y180521D01*
X321929Y324341D02*
X325521Y320749D01*
X321929Y326929D02*
X325521Y330521D01*
X322465Y155635D02*
X327545D01*
X324341Y164341D02*
X320749Y160749D01*
X324341Y166929D02*
X320749Y170521D01*
X324341Y334341D02*
X320749Y330749D01*
X326929Y164341D02*
X330521Y160749D01*
X326929Y166929D02*
X330521Y170521D01*
X326929Y334341D02*
X330521Y330749D01*
X326929Y336929D02*
X330521Y340521D01*
X328805Y325635D02*
X323725D01*
X330635Y323805D02*
Y318725D01*
Y327465D02*
Y332545D01*
X332088Y12088D02*
X328495Y8495D01*
X332088Y49182D02*
X328495Y52775D01*
X332465Y325635D02*
X337545D01*
X339182Y352088D02*
X342775Y348495D01*
X339182Y389182D02*
X342775Y392775D01*
X339341Y88341D02*
X335749Y84749D01*
X339341Y90929D02*
X335749Y94521D01*
X339341Y99341D02*
X335749Y95749D01*
X339341Y101929D02*
X335749Y105521D01*
X339341Y110341D02*
X335749Y106749D01*
X339341Y112929D02*
X335749Y116521D01*
X339341Y174341D02*
X335749Y170749D01*
X339341Y176929D02*
X335749Y180521D01*
X339341Y185341D02*
X335749Y181749D01*
X339341Y187929D02*
X335749Y191521D01*
X339341Y196341D02*
X335749Y192749D01*
X339341Y198929D02*
X335749Y202521D01*
X340341Y232341D02*
X336749Y228749D01*
X340341Y234929D02*
X336749Y238521D01*
X341929Y88341D02*
X345521Y84749D01*
X341929Y90929D02*
X345521Y94521D01*
X341929Y99341D02*
X345521Y95749D01*
X341929Y101929D02*
X345521Y105521D01*
X341929Y110341D02*
X345521Y106749D01*
X341929Y112929D02*
X345521Y116521D01*
X341929Y174341D02*
X345521Y170749D01*
X341929Y176929D02*
X345521Y180521D01*
X341929Y185341D02*
X345521Y181749D01*
X341929Y187929D02*
X345521Y191521D01*
X341929Y196341D02*
X345521Y192749D01*
X341929Y198929D02*
X345521Y202521D01*
X342929Y232341D02*
X346521Y228749D01*
X342929Y234929D02*
X346521Y238521D01*
X352341Y87341D02*
X348749Y83749D01*
X352341Y89929D02*
X348749Y93521D01*
X352341Y98341D02*
X348749Y94749D01*
X352341Y100929D02*
X348749Y104521D01*
X354929Y87341D02*
X358521Y83749D01*
X354929Y89929D02*
X358521Y93521D01*
X354929Y98341D02*
X358521Y94749D01*
X354929Y100929D02*
X358521Y104521D01*
X369182Y12088D02*
X372775Y8495D01*
X369182Y49182D02*
X372775Y52775D01*
X370341Y224341D02*
X366749Y220749D01*
X370341Y226929D02*
X366749Y230521D01*
X372929Y224341D02*
X376521Y220749D01*
X374805Y215635D02*
X369725D01*
X376635Y217465D02*
Y222545D01*
X379341Y11341D02*
X375749Y7749D01*
X379341Y13929D02*
X375749Y17521D01*
X381929Y11341D02*
X385521Y7749D01*
X381929Y13929D02*
X385521Y17521D01*
X383805Y22635D02*
X378725D01*
X385635Y20805D02*
Y15725D01*
Y24465D02*
Y29545D01*
X387465Y22635D02*
X392545D01*
X388805Y32635D02*
X383725D01*
X389341Y11341D02*
X385749Y7749D01*
X389341Y13929D02*
X385749Y17521D01*
X390635Y30805D02*
Y25725D01*
Y34465D02*
Y39545D01*
X391929Y11341D02*
X395521Y7749D01*
X391929Y13929D02*
X395521Y17521D01*
X392465Y32635D02*
X397545D01*
X393805Y42635D02*
X388725D01*
X394341Y21341D02*
X390749Y17749D01*
X394341Y23929D02*
X390749Y27521D01*
X395635Y40805D02*
Y35725D01*
Y44465D02*
Y49545D01*
X396929Y21341D02*
X400521Y17749D01*
X396929Y23929D02*
X400521Y27521D01*
X397465Y42635D02*
X402545D01*
X399341Y11341D02*
X395749Y7749D01*
X399341Y13929D02*
X395749Y17521D01*
X399341Y31341D02*
X395749Y27749D01*
X399341Y33929D02*
X395749Y37521D01*
X401929Y11341D02*
X405521Y7749D01*
X401929Y13929D02*
X405521Y17521D01*
X401929Y31341D02*
X405521Y27749D01*
X401929Y33929D02*
X405521Y37521D01*
X403805Y22635D02*
X398725D01*
X404341Y41341D02*
X400749Y37749D01*
X404341Y43929D02*
X400749Y47521D01*
X405635Y20805D02*
Y15725D01*
Y24465D02*
Y29545D01*
X406929Y41341D02*
X410521Y37749D01*
X406929Y43929D02*
X410521Y47521D01*
X407465Y22635D02*
X412545D01*
X408805Y32635D02*
X403725D01*
X409341Y11341D02*
X405749Y7749D01*
X409341Y13929D02*
X405749Y17521D01*
X410635Y30805D02*
Y25725D01*
Y34465D02*
Y39545D01*
X411929Y11341D02*
X415521Y7749D01*
X411929Y13929D02*
X415521Y17521D01*
X412465Y32635D02*
X417545D01*
X413805Y42635D02*
X408725D01*
X414341Y21341D02*
X410749Y17749D01*
X414341Y23929D02*
X410749Y27521D01*
X415635Y40805D02*
Y35725D01*
Y44465D02*
Y49545D01*
X416929Y21341D02*
X420521Y17749D01*
X416929Y23929D02*
X420521Y27521D01*
X417465Y42635D02*
X422545D01*
X418805Y135635D02*
X413725D01*
X418805Y155635D02*
X413725D01*
X418805Y195635D02*
X413725D01*
X418805Y215635D02*
X413725D01*
X419341Y31341D02*
X415749Y27749D01*
X419341Y33929D02*
X415749Y37521D01*
X419341Y144341D02*
X415749Y140749D01*
X419341Y146929D02*
X415749Y150521D01*
X419341Y164341D02*
X415749Y160749D01*
X419341Y166929D02*
X415749Y170521D01*
X419341Y174341D02*
X415749Y170749D01*
X419341Y176929D02*
X415749Y180521D01*
X419341Y184341D02*
X415749Y180749D01*
X419341Y186929D02*
X415749Y190521D01*
X419341Y204341D02*
X415749Y200749D01*
X419341Y206929D02*
X415749Y210521D01*
X420635Y133805D02*
Y128725D01*
Y137465D02*
Y142545D01*
Y153805D02*
Y148725D01*
Y157465D02*
Y162545D01*
Y193805D02*
Y188725D01*
Y197465D02*
Y202545D01*
Y213805D02*
Y208725D01*
Y217465D02*
Y222545D01*
X421929Y31341D02*
X425521Y27749D01*
X421929Y33929D02*
X425521Y37521D01*
X421929Y144341D02*
X425521Y140749D01*
X421929Y146929D02*
X425521Y150521D01*
X421929Y164341D02*
X425521Y160749D01*
X421929Y166929D02*
X425521Y170521D01*
X421929Y174341D02*
X425521Y170749D01*
X421929Y176929D02*
X425521Y180521D01*
X421929Y184341D02*
X425521Y180749D01*
X421929Y186929D02*
X425521Y190521D01*
X421929Y204341D02*
X425521Y200749D01*
X421929Y206929D02*
X425521Y210521D01*
X422465Y135635D02*
X427545D01*
X422465Y155635D02*
X427545D01*
X422465Y195635D02*
X427545D01*
X422465Y215635D02*
X427545D01*
X424341Y41341D02*
X420749Y37749D01*
X424341Y43929D02*
X420749Y47521D01*
X426929Y41341D02*
X430521Y37749D01*
X426929Y43929D02*
X430521Y47521D01*
X428805Y145635D02*
X423725D01*
X428805Y175635D02*
X423725D01*
X428805Y205635D02*
X423725D01*
X429341Y134341D02*
X425749Y130749D01*
X429341Y136929D02*
X425749Y140521D01*
X429341Y154341D02*
X425749Y150749D01*
X429341Y156929D02*
X425749Y160521D01*
X429341Y164341D02*
X425749Y160749D01*
X429341Y166929D02*
X425749Y170521D01*
X429341Y184341D02*
X425749Y180749D01*
X429341Y186929D02*
X425749Y190521D01*
X429341Y194341D02*
X425749Y190749D01*
X429341Y196929D02*
X425749Y200521D01*
X429341Y214341D02*
X425749Y210749D01*
X429341Y216929D02*
X425749Y220521D01*
X430635Y143805D02*
Y138725D01*
Y147465D02*
Y152545D01*
Y173805D02*
Y168725D01*
Y177465D02*
Y182545D01*
Y203805D02*
Y198725D01*
Y207465D02*
Y212545D01*
X431929Y134341D02*
X435521Y130749D01*
X431929Y136929D02*
X435521Y140521D01*
X431929Y154341D02*
X435521Y150749D01*
X431929Y156929D02*
X435521Y160521D01*
X431929Y164341D02*
X435521Y160749D01*
X431929Y166929D02*
X435521Y170521D01*
X431929Y184341D02*
X435521Y180749D01*
X431929Y186929D02*
X435521Y190521D01*
X431929Y194341D02*
X435521Y190749D01*
X431929Y196929D02*
X435521Y200521D01*
X431929Y214341D02*
X435521Y210749D01*
X431929Y216929D02*
X435521Y220521D01*
X432465Y145635D02*
X437545D01*
X432465Y175635D02*
X437545D01*
X432465Y205635D02*
X437545D01*
X438805Y305635D02*
X433725D01*
X438805Y365635D02*
X433725D01*
X440635Y303805D02*
Y298725D01*
Y307465D02*
Y312545D01*
Y363805D02*
Y358725D01*
Y367465D02*
Y372545D01*
X442465Y305635D02*
X447545D01*
X442465Y365635D02*
X447545D01*
X443805Y315635D02*
X438725D01*
X443805Y375635D02*
X438725D01*
X445635Y313805D02*
Y308725D01*
Y317465D02*
Y322545D01*
Y373805D02*
Y368725D01*
Y377465D02*
Y382545D01*
X447465Y315635D02*
X452545D01*
X447465Y375635D02*
X452545D01*
X449341Y304341D02*
X445749Y300749D01*
X449341Y306929D02*
X445749Y310521D01*
X449341Y364341D02*
X445749Y360749D01*
X449341Y366929D02*
X445749Y370521D01*
X451929Y304341D02*
X455521Y300749D01*
X451929Y306929D02*
X455521Y310521D01*
X451929Y364341D02*
X455521Y360749D01*
X451929Y366929D02*
X455521Y370521D01*
X454155Y186885D02*
X449075D01*
X454341Y314341D02*
X450749Y310749D01*
X454341Y316929D02*
X450749Y320521D01*
X454341Y374341D02*
X450749Y370749D01*
X454341Y376929D02*
X450749Y380521D01*
X456929Y314341D02*
X460521Y310749D01*
X456929Y316929D02*
X460521Y320521D01*
X456929Y374341D02*
X460521Y370749D01*
X456929Y376929D02*
X460521Y380521D01*
X457885Y188865D02*
Y193945D01*
X458805Y305635D02*
X453725D01*
X458805Y365635D02*
X453725D01*
X460635Y303805D02*
Y298725D01*
Y307465D02*
Y312545D01*
Y363805D02*
Y358725D01*
Y367465D02*
Y372545D01*
X461615Y186885D02*
X466695D01*
X462465Y305635D02*
X467545D01*
X462465Y365635D02*
X467545D01*
X463805Y315635D02*
X458725D01*
X463805Y375635D02*
X458725D01*
X465635Y313805D02*
Y308725D01*
Y317465D02*
Y322545D01*
Y373805D02*
Y368725D01*
Y377465D02*
Y382545D01*
X467465Y315635D02*
X472545D01*
X467465Y375635D02*
X472545D01*
X469341Y304341D02*
X465749Y300749D01*
X469341Y306929D02*
X465749Y310521D01*
X469341Y364341D02*
X465749Y360749D01*
X469341Y366929D02*
X465749Y370521D01*
X471929Y304341D02*
X475521Y300749D01*
X471929Y306929D02*
X475521Y310521D01*
X471929Y364341D02*
X475521Y360749D01*
X471929Y366929D02*
X475521Y370521D01*
X474341Y314341D02*
X470749Y310749D01*
X474341Y316929D02*
X470749Y320521D01*
X474341Y374341D02*
X470749Y370749D01*
X474341Y376929D02*
X470749Y380521D01*
X476929Y314341D02*
X480521Y310749D01*
X476929Y316929D02*
X480521Y320521D01*
X476929Y374341D02*
X480521Y370749D01*
X476929Y376929D02*
X480521Y380521D01*
X551523Y348523D02*
X547931Y344931D01*
X551523Y358747D02*
X547931Y362339D01*
X561747Y348523D02*
X565339Y344931D01*
X561747Y358747D02*
X565339Y362339D01*
D02*
D20*
X568885Y140635D02*
D03*
X572885Y210635D02*
D03*
Y230635D02*
D03*
X573885Y179635D02*
D03*
X584385Y140635D02*
D03*
X588385Y210635D02*
D03*
Y230635D02*
D03*
X589385Y179635D02*
D03*
X623885Y169635D02*
D03*
Y203635D02*
D03*
X639385Y169635D02*
D03*
Y203635D02*
D03*
D02*
D22*
X536635Y353635D02*
D03*
X556635D02*
D03*
D02*
D25*
X129135Y43635D02*
D03*
Y59135D02*
D03*
X131385Y222085D02*
D03*
Y237585D02*
D03*
X147135Y43635D02*
D03*
Y59135D02*
D03*
X149385Y222085D02*
D03*
Y237585D02*
D03*
X235635Y47385D02*
D03*
Y62885D02*
D03*
Y222085D02*
D03*
Y237585D02*
D03*
X253635Y47385D02*
D03*
Y62885D02*
D03*
Y222085D02*
D03*
Y237585D02*
D03*
X457885Y171385D02*
D03*
Y186885D02*
D03*
X478635Y170885D02*
D03*
Y186385D02*
D03*
X496635Y170885D02*
D03*
Y186385D02*
D03*
X568635Y79885D02*
D03*
Y95385D02*
D03*
D02*
D27*
X460635Y30635D02*
D03*
X485635D02*
D03*
X510635D02*
D03*
X535635D02*
D03*
X560635D02*
D03*
D02*
D75*
X532635Y239635D02*
Y255135D01*
X545635Y268135*
X596635*
D02*
D83*
X70635Y107635D02*
D03*
Y169635D02*
D03*
Y231635D02*
D03*
Y293635D02*
D03*
D02*
D93*
X200635Y100635D02*
D03*
Y270635D02*
D03*
X300635Y100635D02*
D03*
Y270635D02*
D03*
D02*
D94*
X191385Y60885D02*
D03*
Y230885D02*
D03*
X209885Y60885D02*
D03*
Y230885D02*
D03*
X291385Y60885D02*
D03*
Y230885D02*
D03*
X309885Y60885D02*
D03*
Y230885D02*
D03*
D02*
D104*
X461185Y99635D02*
D03*
Y107635D02*
D03*
Y115635D02*
D03*
Y123635D02*
D03*
X478685Y99635D02*
D03*
Y107635D02*
D03*
Y115635D02*
D03*
Y123635D02*
D03*
D02*
D106*
X131385Y237585D02*
X125585D01*
X123635Y235635*
X110635*
X147135Y59135D02*
Y65385D01*
X151385Y69635*
X149385Y237585D02*
X155585D01*
X159635Y241635*
X235635Y237585D02*
Y239635D01*
X239635Y243635*
X268635*
X273635Y238635*
Y236885*
X279635Y230885*
X291385*
X265885Y237585D02*
X253635D01*
X270635Y63635D02*
X262635D01*
Y62885*
X253635*
X362135Y240385D02*
Y240135D01*
X367135*
X383635Y223635*
Y194385*
X380385Y191135*
X376385*
X369635Y73635D02*
X366635D01*
X363635Y76635*
Y196635*
X370635Y203635*
X369635Y202385*
X371385Y204135*
X376635*
X372385Y173385D02*
Y173635D01*
X387885Y189135*
Y225635*
X370885Y242635*
Y298885*
X425635Y353635*
X536635*
X376135Y158635D02*
Y159885D01*
X392385Y176135*
Y229885*
X376635Y245635*
X478635Y186385D02*
Y195635D01*
X476635Y197635*
X478685Y107635D02*
X495635D01*
X506635Y118635*
Y131635*
X478685Y123635D02*
X487635D01*
X492635Y128635*
Y142635*
X482635D02*
Y137635D01*
X475635Y130635*
X471635*
X469635Y128635*
Y116635*
X470635Y115635*
X478685*
X492635Y154635D02*
X506635D01*
X512635Y148635*
Y103635*
X496635Y186385D02*
Y190135D01*
X482635Y204135*
X505635Y207635D02*
Y214635D01*
X501635Y218635*
Y273635*
X516635Y288635*
X549135*
X558635Y298135*
X596635*
X511635Y222635D02*
Y272135D01*
X522635Y283135*
X596635*
X512635Y103635D02*
X508635Y99635D01*
X478685*
X546635Y192635D02*
X557635D01*
X560635Y189635*
Y179635*
X573885*
X562635Y140635D02*
X568885D01*
X568635Y79885D02*
Y74635D01*
X564635Y70635*
X522635*
X510635Y58635*
Y30635*
X568635Y95385D02*
X584385Y140635*
X599635D01*
X596635Y313135D02*
X613135D01*
X615635Y310635*
Y258635*
X609635Y252635*
X570635*
X557635Y239635*
Y192635*
X600635Y170635D02*
Y177635D01*
X598635Y179635*
X589385*
X603635Y198635D02*
Y206635D01*
X599635Y210635*
X588385*
X605635Y223635D02*
Y226635D01*
X601635Y230635*
X588385*
X639635Y168635D02*
Y169635D01*
X639385*
D02*
D109*
X596635Y268135D02*
D03*
Y283135D02*
D03*
Y298135D02*
D03*
Y313135D02*
D03*
D02*
D110*
X631135Y248385D02*
D03*
Y332635D02*
D03*
D02*
D124*
X30635Y30635D02*
D03*
Y370635D02*
D03*
X320635D02*
D03*
X350635Y30635D02*
D03*
X620635D02*
D03*
Y370635D02*
D03*
D02*
D128*
X100635Y12635D02*
D03*
Y145635D02*
D03*
Y165635D02*
D03*
Y185635D02*
D03*
Y195635D02*
D03*
Y215635D02*
D03*
Y235635D02*
D03*
Y255635D02*
D03*
X105635Y22635D02*
D03*
Y155635D02*
D03*
Y175635D02*
D03*
Y225635D02*
D03*
Y245635D02*
D03*
X110635Y12635D02*
D03*
Y145635D02*
D03*
Y165635D02*
D03*
Y185635D02*
D03*
Y215635D02*
D03*
Y235635D02*
D03*
Y255635D02*
D03*
Y325635D02*
D03*
Y345635D02*
D03*
X115635Y22635D02*
D03*
Y205635D02*
D03*
Y335635D02*
D03*
Y355635D02*
D03*
X120635Y12635D02*
D03*
Y105635D02*
D03*
Y325635D02*
D03*
Y345635D02*
D03*
X125635Y22635D02*
D03*
Y95635D02*
D03*
Y115635D02*
D03*
Y205635D02*
D03*
Y335635D02*
D03*
Y355635D02*
D03*
X130635Y12635D02*
D03*
Y85635D02*
D03*
Y105635D02*
D03*
Y125635D02*
D03*
Y195635D02*
D03*
Y325635D02*
D03*
Y345635D02*
D03*
X135635Y22635D02*
D03*
Y95635D02*
D03*
Y115635D02*
D03*
Y185635D02*
D03*
Y205635D02*
D03*
Y335635D02*
D03*
Y355635D02*
D03*
X138885Y43635D02*
D03*
X140635Y12635D02*
D03*
Y85635D02*
D03*
Y105635D02*
D03*
Y125635D02*
D03*
Y195635D02*
D03*
Y222085D02*
D03*
Y325635D02*
D03*
Y345635D02*
D03*
X145635Y22635D02*
D03*
Y185635D02*
D03*
Y335635D02*
D03*
Y355635D02*
D03*
X150635Y12635D02*
D03*
Y195635D02*
D03*
Y325635D02*
D03*
Y345635D02*
D03*
X151385Y69635D02*
D03*
X155635Y22635D02*
D03*
Y185635D02*
D03*
Y335635D02*
D03*
Y355635D02*
D03*
X159635Y241635D02*
D03*
X160635Y12635D02*
D03*
Y195635D02*
D03*
Y325635D02*
D03*
Y345635D02*
D03*
X165635Y22635D02*
D03*
Y185635D02*
D03*
Y335635D02*
D03*
Y355635D02*
D03*
X170635Y12635D02*
D03*
Y195635D02*
D03*
Y325635D02*
D03*
Y345635D02*
D03*
X175635Y22635D02*
D03*
Y185635D02*
D03*
Y205635D02*
D03*
Y335635D02*
D03*
Y355635D02*
D03*
X180635Y12635D02*
D03*
Y195635D02*
D03*
Y215635D02*
D03*
Y325635D02*
D03*
Y345635D02*
D03*
X185635Y22635D02*
D03*
Y185635D02*
D03*
Y205635D02*
D03*
Y335635D02*
D03*
Y355635D02*
D03*
X190635Y12635D02*
D03*
Y195635D02*
D03*
Y215635D02*
D03*
Y325635D02*
D03*
Y345635D02*
D03*
X195635Y22635D02*
D03*
Y185635D02*
D03*
Y335635D02*
D03*
Y355635D02*
D03*
X200635Y12635D02*
D03*
Y195635D02*
D03*
Y325635D02*
D03*
Y345635D02*
D03*
X205635Y22635D02*
D03*
Y185635D02*
D03*
Y335635D02*
D03*
Y355635D02*
D03*
X210635Y12635D02*
D03*
Y195635D02*
D03*
Y325635D02*
D03*
Y345635D02*
D03*
X215635Y22635D02*
D03*
Y335635D02*
D03*
Y355635D02*
D03*
X220635Y12635D02*
D03*
Y325635D02*
D03*
Y345635D02*
D03*
X225635Y22635D02*
D03*
Y335635D02*
D03*
Y355635D02*
D03*
X230635Y12635D02*
D03*
Y155635D02*
D03*
Y175635D02*
D03*
Y325635D02*
D03*
Y345635D02*
D03*
X235635Y22635D02*
D03*
Y165635D02*
D03*
Y335635D02*
D03*
Y355635D02*
D03*
X240635Y12635D02*
D03*
Y155635D02*
D03*
Y175635D02*
D03*
Y325635D02*
D03*
Y345635D02*
D03*
X244385Y222085D02*
D03*
X245385Y47385D02*
D03*
X245635Y22635D02*
D03*
Y165635D02*
D03*
Y335635D02*
D03*
Y355635D02*
D03*
X250635Y12635D02*
D03*
Y155635D02*
D03*
Y175635D02*
D03*
Y325635D02*
D03*
Y345635D02*
D03*
X255635Y22635D02*
D03*
Y165635D02*
D03*
Y335635D02*
D03*
Y355635D02*
D03*
X260635Y12635D02*
D03*
Y155635D02*
D03*
Y175635D02*
D03*
Y325635D02*
D03*
Y345635D02*
D03*
X265635Y22635D02*
D03*
Y165635D02*
D03*
Y335635D02*
D03*
Y355635D02*
D03*
X265885Y237585D02*
D03*
X270635Y12635D02*
D03*
Y63635D02*
D03*
Y155635D02*
D03*
Y175635D02*
D03*
Y325635D02*
D03*
Y345635D02*
D03*
X275635Y22635D02*
D03*
Y165635D02*
D03*
Y335635D02*
D03*
Y355635D02*
D03*
X280635Y12635D02*
D03*
Y155635D02*
D03*
Y175635D02*
D03*
Y325635D02*
D03*
Y345635D02*
D03*
X285635Y22635D02*
D03*
Y165635D02*
D03*
Y335635D02*
D03*
Y355635D02*
D03*
X290635Y12635D02*
D03*
Y155635D02*
D03*
Y175635D02*
D03*
Y325635D02*
D03*
X295635Y22635D02*
D03*
Y165635D02*
D03*
Y335635D02*
D03*
X300635Y12635D02*
D03*
Y155635D02*
D03*
Y175635D02*
D03*
Y325635D02*
D03*
X305635Y22635D02*
D03*
Y165635D02*
D03*
Y335635D02*
D03*
X310635Y12635D02*
D03*
Y155635D02*
D03*
Y175635D02*
D03*
Y325635D02*
D03*
X315635Y22635D02*
D03*
Y165635D02*
D03*
Y335635D02*
D03*
X320635Y155635D02*
D03*
Y175635D02*
D03*
Y325635D02*
D03*
X325635Y165635D02*
D03*
Y335635D02*
D03*
X330635Y325635D02*
D03*
X340635Y89635D02*
D03*
Y100635D02*
D03*
Y111635D02*
D03*
Y175635D02*
D03*
Y186635D02*
D03*
Y197635D02*
D03*
X341635Y233635D02*
D03*
X353635Y88635D02*
D03*
Y99635D02*
D03*
X362135Y240385D02*
D03*
X369635Y73635D02*
D03*
X371635Y225635D02*
D03*
X372385Y173385D02*
D03*
X376135Y158635D02*
D03*
X376385Y191135D02*
D03*
X376635Y204135D02*
D03*
Y215635D02*
D03*
Y245635D02*
D03*
X380635Y12635D02*
D03*
Y266635D02*
D03*
X385635Y22635D02*
D03*
Y94635D02*
D03*
X390635Y12635D02*
D03*
Y32635D02*
D03*
X395635Y22635D02*
D03*
Y42635D02*
D03*
X400635Y12635D02*
D03*
Y32635D02*
D03*
X405635Y22635D02*
D03*
Y42635D02*
D03*
X410635Y12635D02*
D03*
Y32635D02*
D03*
X415635Y22635D02*
D03*
Y42635D02*
D03*
X420635Y32635D02*
D03*
Y135635D02*
D03*
Y145635D02*
D03*
Y155635D02*
D03*
Y165635D02*
D03*
Y175635D02*
D03*
Y185635D02*
D03*
Y195635D02*
D03*
Y205635D02*
D03*
Y215635D02*
D03*
X425635Y42635D02*
D03*
X430635Y135635D02*
D03*
Y145635D02*
D03*
Y155635D02*
D03*
Y165635D02*
D03*
Y175635D02*
D03*
Y185635D02*
D03*
Y195635D02*
D03*
Y205635D02*
D03*
Y215635D02*
D03*
X440635Y305635D02*
D03*
Y365635D02*
D03*
X445635Y315635D02*
D03*
Y375635D02*
D03*
X450635Y305635D02*
D03*
Y365635D02*
D03*
X455635Y315635D02*
D03*
Y375635D02*
D03*
X460635Y305635D02*
D03*
Y365635D02*
D03*
X465635Y315635D02*
D03*
Y375635D02*
D03*
X470635Y305635D02*
D03*
Y365635D02*
D03*
X474635Y161635D02*
D03*
X475635Y315635D02*
D03*
Y375635D02*
D03*
X476635Y197635D02*
D03*
X482635Y142635D02*
D03*
Y204135D02*
D03*
X483635Y261635D02*
D03*
X486635Y90635D02*
D03*
X492635Y142635D02*
D03*
Y154635D02*
D03*
X494635Y120635D02*
D03*
X499635Y282635D02*
D03*
X500635Y83635D02*
D03*
X501635Y139135D02*
D03*
X505635Y207635D02*
D03*
X506635Y131635D02*
D03*
X511635Y222635D02*
D03*
X512635Y103635D02*
D03*
X532635Y239635D02*
D03*
X546635Y192635D02*
D03*
X562635Y140635D02*
D03*
X568635Y95385D02*
D03*
X599635Y140635D02*
D03*
X600635Y170635D02*
D03*
X603635Y198635D02*
D03*
X605635Y223635D02*
D03*
X639385Y203635D02*
D03*
X639635Y168635D02*
D03*
D02*
D129*
X138885Y43635D02*
X129135D01*
X140635Y222085D02*
X131385D01*
X147135Y43635D02*
X138885D01*
X149385Y222085D02*
X140635D01*
X235635D02*
X244385D01*
X253635*
X245385Y47385D02*
X235635D01*
X253635D02*
X245385D01*
X376635Y215635D02*
X352635D01*
X346635Y209635*
Y79635*
X324635Y57635*
X313135*
X309885Y60885*
X385635Y94635D02*
Y150635D01*
X402635Y167635*
Y228635*
X380635Y250635*
Y266635*
X450635Y107635D02*
Y90635D01*
X457635Y83635*
X500635*
X450635Y115635D02*
Y107635D01*
Y123635D02*
Y115635D01*
X457885Y171385D02*
Y142885D01*
X450635Y135635*
Y123635*
X461185Y99635D02*
Y93085D01*
X463635Y90635*
X486635*
X461185Y107635D02*
X450635D01*
X461185Y115635D02*
X450635D01*
X461185Y123635D02*
X450635D01*
X478635Y170885D02*
X458385D01*
X457885Y171385*
X478635Y170885D02*
X496635D01*
X478635D02*
Y165635D01*
X474635Y161635*
X483635Y261635D02*
Y215635D01*
X506635Y192635*
Y174385*
X503635Y171385*
X497135*
X496635Y170885*
X499635Y282635D02*
X480635D01*
X462635Y264635*
Y191635*
X457885Y186885*
X500635Y83635D02*
X533635D01*
X541635Y91635*
Y142635*
X559635Y160635*
X609635*
X610635Y161635*
Y169635*
X501635Y139135D02*
Y138635D01*
X499635Y136635*
Y125635*
X494635Y120635*
X572885Y210635D02*
Y230635D01*
X608135Y187135D02*
X605635Y189635D01*
X585885*
X572885Y202635*
Y210635*
X610635Y169635D02*
Y184635D01*
X608135Y187135*
X623885Y169635D02*
X610635D01*
X623885Y203635D02*
X617635D01*
X613635Y199635*
Y192635*
X608135Y187135*
X639385Y203635D02*
X0Y0*
M02*
