%FSLAX34Y34*%
%MOMM*%
G04 EasyPC Gerber Version 18.0.6 Build 3620 *
%ADD20R,0.65000X1.00000*%
%ADD88R,0.80000X0.90000*%
%ADD107R,0.80000X1.00000*%
%ADD98R,0.90000X1.30000*%
%ADD84R,1.50000X2.50000*%
%ADD126R,3.00000X5.00000*%
%ADD85R,7.00000X7.00000*%
%ADD10C,0.12700*%
%ADD106C,0.16000*%
%ADD11C,0.25400*%
%ADD129C,0.32000*%
%ADD128C,0.62000*%
%ADD75C,0.63500*%
%ADD22C,1.70000*%
%ADD27C,1.80000*%
%ADD83C,3.50000*%
%ADD124C,5.50000*%
%ADD125R,1.65000X0.45000*%
%ADD127R,2.03200X0.63500*%
%ADD25R,1.00000X0.65000*%
%ADD87R,1.20000X0.80000*%
%ADD70R,4.50000X2.50000*%
X0Y0D02*
D02*
D10*
X6985Y139385D02*
X116635D01*
X121385Y144135*
Y182635*
X105256Y198764*
X6985*
Y139385*
G36*
X116635*
X121385Y144135*
Y182635*
X105256Y198764*
X6985*
Y139385*
G37*
Y201635D02*
X108635D01*
X124635Y185635*
Y141635*
X116385Y133385*
Y89135*
X123885Y81635*
X154175*
G75*
G02X154635Y81670I460J-3003*
G01*
X216420*
X222385Y87635*
Y236885*
X216385Y242885*
X172635*
X169385Y239635*
Y207385*
X166752Y204752*
Y203938*
X165938*
X164885Y202885*
X145635*
X135385Y213135*
Y221136*
G75*
G02Y223034I5252J949*
G01*
Y253385*
X126385Y262385*
X6985*
Y201635*
G36*
X108635*
X124635Y185635*
Y141635*
X116385Y133385*
Y89135*
X123885Y81635*
X154175*
G75*
G02X154635Y81670I460J-3003*
G01*
X216420*
X222385Y87635*
Y236885*
X216385Y242885*
X172635*
X169385Y239635*
Y207385*
X166752Y204752*
Y203938*
X165938*
X164885Y202885*
X145635*
X135385Y213135*
Y221136*
G75*
G02Y223034I5252J949*
G01*
Y253385*
X126385Y262385*
X6985*
Y201635*
G37*
Y266135D02*
X128635D01*
X144385Y250385*
X164925*
G75*
G02X165385Y250420I460J-3003*
G01*
X337670*
X345385Y258135*
Y290385*
X365635Y310635*
X410635*
X420635Y320635*
Y394285*
X338659*
G75*
G02X350370Y370635I-18024J-23650*
G01*
G75*
G02X290900I-29735*
G01*
G75*
G02X302611Y394285I29734J1*
G01*
X48659*
G75*
G02X60370Y370635I-18024J-23650*
G01*
G75*
G02X6985Y352611I-29735*
G01*
Y266135*
G36*
X128635*
X144385Y250385*
X164925*
G75*
G02X165385Y250420I460J-3003*
G01*
X337670*
X345385Y258135*
Y290385*
X365635Y310635*
X410635*
X420635Y320635*
Y394285*
X338659*
G75*
G02X350370Y370635I-18024J-23650*
G01*
G75*
G02X290900I-29735*
G01*
G75*
G02X302611Y394285I29734J1*
G01*
X48659*
G75*
G02X60370Y370635I-18024J-23650*
G01*
G75*
G02X6985Y352611I-29735*
G01*
Y266135*
G37*
X111755Y136515D02*
X6985D01*
Y6985*
X429985*
X430635Y7635*
Y54635*
X445635Y69635*
Y83800*
X432635*
G75*
G02X429923Y84923J3835*
G01*
X421923Y92923*
G75*
G02X420800Y95635I2712J2712*
G01*
Y115047*
X417870Y117977*
Y104900*
X415870*
Y99120*
X417370*
Y84650*
X406400*
Y99120*
X407400*
Y104900*
X405400*
Y118370*
X417477*
X417047Y118800*
X394224*
X393794Y118370*
X394870*
Y104900*
X382400*
Y107800*
X379385*
G75*
G02X377120Y108540J3835*
G01*
Y105150*
X367320*
Y88635*
G75*
G02X366314Y86206I-3435*
G01*
X352778Y72670*
X361378*
X364489Y75781*
G75*
G02X364927Y76143I2144J-2148*
G01*
G75*
G02X374970Y73635I4708J-2508*
G01*
G75*
G02X366564Y69272I-5335*
G01*
X364781Y67489*
G75*
G02X362635Y66600I-2146J2146*
G01*
X280600*
X278635Y64635*
Y58635*
X276635Y56635*
X271635*
X268635Y53635*
Y36635*
X266752Y34752*
Y33938*
X265938*
X265635Y33635*
X244635*
X239635Y38635*
Y66635*
X237635Y68635*
X176635*
X171635Y63635*
Y35635*
X169635Y33635*
X138635*
X133635Y38635*
Y42686*
G75*
G02Y44584I5252J949*
G01*
Y78635*
X120635*
X112635Y86635*
Y135635*
X111755Y136515*
X385546Y89301D02*
G75*
G02X380300Y94635I89J5334D01*
G01*
G75*
G02X390859Y95720I5335*
G01*
X390900*
Y99120*
X401870*
Y84650*
X390900*
Y88050*
X388385*
G75*
G02X385673Y89173J3835*
G01*
X385546Y89301*
X367320Y92310D02*
G36*
Y88635D01*
G75*
G02X366314Y86206I-3435*
G01*
X352778Y72670*
X361378*
X364489Y75781*
G75*
G02X364927Y76143I2144J-2148*
G01*
G75*
G02X374970Y73635I4708J-2508*
G01*
G75*
G02X366564Y69272I-5335*
G01*
X364781Y67489*
G75*
G02X362635Y66600I-2146J2146*
G01*
X280600*
X278635Y64635*
Y58635*
X276635Y56635*
X271635*
X268635Y53635*
Y36635*
X266752Y34752*
Y33938*
X265938*
X265635Y33635*
X244635*
X239635Y38635*
Y66635*
X237635Y68635*
X176635*
X171635Y63635*
Y35635*
X169635Y33635*
X138635*
X133635Y38635*
Y42686*
G75*
G02Y44584I5252J949*
G01*
Y78635*
X120635*
X112635Y86635*
Y135635*
X111755Y136515*
X6985*
Y6985*
X429985*
X430635Y7635*
Y54635*
X445635Y69635*
Y83800*
X432635*
G75*
G02X429923Y84923J3835*
G01*
X421923Y92923*
G75*
G02X420800Y95635I2712J2712*
G01*
Y115047*
X417870Y117977*
Y104900*
X415870*
Y99120*
X417370*
Y84650*
X406400*
Y92310*
X401870*
Y84650*
X390900*
Y88050*
X388385*
G75*
G02X385673Y89173J3835*
G01*
X385546Y89301*
G75*
G02X380833Y92310I89J5334*
G01*
X367320*
G37*
X380833D02*
G36*
G75*
G02X380300Y94635I4802J2324D01*
G01*
G75*
G02X390859Y95720I5335*
G01*
X390900*
Y99120*
X401870*
Y92310*
X406400*
Y99120*
X407400*
Y104900*
X405400*
Y118370*
X417477*
X417047Y118800*
X394224*
X393794Y118370*
X394870*
Y104900*
X382400*
Y107800*
X379385*
G75*
G02X377120Y108540J3835*
G01*
Y105150*
X367320*
Y92310*
X380833*
G37*
X239635Y219656D02*
G75*
G02Y224514I4750J2429D01*
G01*
Y239135*
X237385Y241385*
X228385*
X226635Y239635*
Y86385*
X231635Y81385*
X319385*
X327885Y89885*
Y225135*
X317385Y235635*
X277385*
X271135Y229385*
Y204635*
X269385Y202885*
X241135*
X239635Y204385*
Y219656*
G36*
G75*
G02Y224514I4750J2429*
G01*
Y239135*
X237385Y241385*
X228385*
X226635Y239635*
Y86385*
X231635Y81385*
X319385*
X327885Y89885*
Y225135*
X317385Y235635*
X277385*
X271135Y229385*
Y204635*
X269385Y202885*
X241135*
X239635Y204385*
Y219656*
G37*
X327070Y77070D02*
X347462D01*
X360450Y90058*
Y127135*
G75*
G02X360497Y127700I3435J-1*
G01*
X348650*
Y130150*
X343892*
X337670Y123928*
Y91635*
G75*
G02X336781Y89489I-3035*
G01*
X332635Y85343*
Y82635*
X327070Y77070*
G36*
X347462*
X360450Y90058*
Y127135*
G75*
G02X360497Y127700I3435J-1*
G01*
X348650*
Y130150*
X343892*
X337670Y123928*
Y91635*
G75*
G02X336781Y89489I-3035*
G01*
X332635Y85343*
Y82635*
X327070Y77070*
G37*
X332635Y127477D02*
X340489Y135331D01*
G75*
G02X342635Y136220I2146J-2146*
G01*
X348650*
Y138670*
X363120*
Y138212*
X364850Y139942*
Y145883*
G75*
G02X363685Y145650I-1166J2802*
G01*
X363120*
Y143200*
X348650*
Y154170*
X363120*
Y152412*
X364100Y153392*
Y160885*
G75*
G02X364989Y163031I3035*
G01*
X369239Y167281*
G75*
G02X371270Y168168I2146J-2146*
G01*
G75*
G02X367997Y170350I1115J5218*
G01*
X362870*
Y167900*
X348400*
Y178870*
X362870*
Y176420*
X367997*
G75*
G02X377563Y174670I4388J-3035*
G01*
X382850*
Y181600*
X367885*
G75*
G02X365739Y182489J3035*
G01*
X362489Y185739*
G75*
G02X361600Y187885I2146J2146*
G01*
Y203900*
X348000*
Y214870*
X362470*
Y212303*
G75*
G02X363781Y211531I-835J-2918*
G01*
X365600Y209712*
Y218128*
X362470Y221258*
Y219400*
X348000*
Y221850*
X332635*
Y127477*
G36*
X340489Y135331*
G75*
G02X342635Y136220I2146J-2146*
G01*
X348650*
Y138670*
X363120*
Y138212*
X364850Y139942*
Y145883*
G75*
G02X363685Y145650I-1166J2802*
G01*
X363120*
Y143200*
X348650*
Y154170*
X363120*
Y152412*
X364100Y153392*
Y160885*
G75*
G02X364989Y163031I3035*
G01*
X369239Y167281*
G75*
G02X371270Y168168I2146J-2146*
G01*
G75*
G02X367997Y170350I1115J5218*
G01*
X362870*
Y167900*
X348400*
Y178870*
X362870*
Y176420*
X367997*
G75*
G02X377563Y174670I4388J-3035*
G01*
X382850*
Y181600*
X367885*
G75*
G02X365739Y182489J3035*
G01*
X362489Y185739*
G75*
G02X361600Y187885I2146J2146*
G01*
Y203900*
X348000*
Y214870*
X362470*
Y212303*
G75*
G02X363781Y211531I-835J-2918*
G01*
X365600Y209712*
Y218128*
X362470Y221258*
Y219400*
X348000*
Y221850*
X332635*
Y127477*
G37*
Y227920D02*
X348000D01*
Y230370*
X362470*
Y227920*
X363135*
G75*
G02X365281Y227031J-3035*
G01*
X370781Y221531*
G75*
G02X371670Y219385I-2146J-2146*
G01*
Y206087*
G75*
G02X381023Y207170I4965J-1952*
G01*
X382850*
Y208620*
X403820*
Y128150*
X382850*
Y135300*
X382470*
Y130635*
G75*
G02X381347Y127923I-3835*
G01*
X376417Y122994*
Y119620*
X377120*
Y116220*
X378635*
G75*
G02X380913Y115470J-3835*
G01*
X382400*
Y118370*
X384800*
Y118635*
G75*
G02X385923Y121347I3835*
G01*
X389923Y125347*
G75*
G02X392635Y126470I2712J-2712*
G01*
X418635*
G75*
G02X421347Y125347J-3835*
G01*
X427347Y119347*
G75*
G02X428470Y116635I-2712J-2712*
G01*
Y97224*
X434224Y91470*
X445635*
Y95900*
X439900*
Y113370*
X442800*
Y113635*
G75*
G02X443923Y116347I3835*
G01*
X445635Y118059*
Y224635*
X447236Y226236*
X435385*
G75*
G02X432628Y227378J3899*
G01*
X427878Y232128*
G75*
G02X426736Y234885I2757J2757*
G01*
Y238636*
X419270*
Y235300*
X408300*
Y249770*
X419270*
Y246434*
X426800*
Y256800*
X419270*
Y253400*
X408300*
Y267870*
X419270*
Y264470*
X430635*
G75*
G02X434470Y260635J-3835*
G01*
Y243239*
G75*
G02X434534Y242535I-3838J-704*
G01*
Y236500*
X437000Y234034*
X455034*
X455635Y234635*
Y261635*
X463800Y269800*
X404224*
X402294Y267870*
X403770*
Y253400*
X392800*
Y267870*
X394450*
Y269285*
G75*
G02X395573Y271997I3835*
G01*
X399923Y276347*
G75*
G02X402635Y277470I2712J-2712*
G01*
X471635*
G75*
G02X474024Y276635J-3835*
G01*
X476635*
X501635Y301635*
Y308635*
X507635Y314635*
X568635*
X576635Y322635*
Y391635*
X573985Y394285*
X426635*
Y320635*
X410635Y304635*
X368635*
X350635Y286635*
Y270470*
X376926*
G75*
G02X385970Y266635I3709J-3835*
G01*
G75*
G02X376926Y262800I-5335*
G01*
X350635*
Y259470*
X380635*
G75*
G02X383347Y258347J-3835*
G01*
X390347Y251347*
G75*
G02X391470Y248635I-2712J-2712*
G01*
Y233924*
X396047Y229347*
G75*
G02X397170Y226635I-2712J-2712*
G01*
Y221620*
X403820*
Y212650*
X382850*
Y221620*
X389500*
Y225047*
X384923Y229623*
G75*
G02X383800Y232335I2712J2712*
G01*
Y247047*
X379047Y251800*
X345800*
X344420Y250420*
X374276*
G75*
G02X381970Y245635I2359J-4785*
G01*
G75*
G02X371457Y244350I-5335*
G01*
X365704*
G75*
G02X367470Y240385I-3569J-3966*
G01*
G75*
G02X357747Y237350I-5335*
G01*
X332635*
Y227920*
X536635Y364370D02*
G75*
G02Y342900J-10735D01*
G01*
G75*
G02Y364370J10735*
G01*
X426635Y353635D02*
G36*
Y320635D01*
X410635Y304635*
X368635*
X350635Y286635*
Y270470*
X376926*
G75*
G02X385970Y266635I3709J-3835*
G01*
G75*
G02X376926Y262800I-5335*
G01*
X350635*
Y259470*
X380635*
G75*
G02X383347Y258347J-3835*
G01*
X390347Y251347*
G75*
G02X391470Y248635I-2712J-2712*
G01*
Y233924*
X396047Y229347*
G75*
G02X397170Y226635I-2712J-2712*
G01*
Y221620*
X403820*
Y212650*
X382850*
Y221620*
X389500*
Y225047*
X384923Y229623*
G75*
G02X383800Y232335I2712J2712*
G01*
Y247047*
X379047Y251800*
X345800*
X344420Y250420*
X374276*
G75*
G02X381970Y245635I2359J-4785*
G01*
G75*
G02X371457Y244350I-5335*
G01*
X365704*
G75*
G02X367470Y240385I-3569J-3966*
G01*
G75*
G02X357747Y237350I-5335*
G01*
X332635*
Y227920*
X348000*
Y230370*
X362470*
Y227920*
X363135*
G75*
G02X365281Y227031J-3035*
G01*
X370781Y221531*
G75*
G02X371670Y219385I-2146J-2146*
G01*
Y206087*
G75*
G02X381023Y207170I4965J-1952*
G01*
X382850*
Y208620*
X403820*
Y128150*
X382850*
Y135300*
X382470*
Y130635*
G75*
G02X381347Y127923I-3835*
G01*
X376417Y122994*
Y119620*
X377120*
Y116220*
X378635*
G75*
G02X380913Y115470J-3835*
G01*
X382400*
Y118370*
X384800*
Y118635*
G75*
G02X385923Y121347I3835*
G01*
X389923Y125347*
G75*
G02X392635Y126470I2712J-2712*
G01*
X418635*
G75*
G02X421347Y125347J-3835*
G01*
X427347Y119347*
G75*
G02X428470Y116635I-2712J-2712*
G01*
Y97224*
X434224Y91470*
X445635*
Y95900*
X439900*
Y113370*
X442800*
Y113635*
G75*
G02X443923Y116347I3835*
G01*
X445635Y118059*
Y224635*
X447236Y226236*
X435385*
G75*
G02X432628Y227378J3899*
G01*
X427878Y232128*
G75*
G02X426736Y234885I2757J2757*
G01*
Y238636*
X419270*
Y235300*
X408300*
Y249770*
X419270*
Y246434*
X426800*
Y256800*
X419270*
Y253400*
X408300*
Y267870*
X419270*
Y264470*
X430635*
G75*
G02X434470Y260635J-3835*
G01*
Y243239*
G75*
G02X434534Y242535I-3838J-704*
G01*
Y236500*
X437000Y234034*
X455034*
X455635Y234635*
Y261635*
X463800Y269800*
X404224*
X402294Y267870*
X403770*
Y253400*
X392800*
Y267870*
X394450*
Y269285*
G75*
G02X395573Y271997I3835*
G01*
X399923Y276347*
G75*
G02X402635Y277470I2712J-2712*
G01*
X471635*
G75*
G02X474024Y276635J-3835*
G01*
X476635*
X501635Y301635*
Y308635*
X507635Y314635*
X568635*
X576635Y322635*
Y353635*
X547370*
G75*
G02X536635Y342900I-10735*
G01*
G75*
G02X525900Y353635J10735*
G01*
X426635*
G37*
X525900D02*
G36*
G75*
G02X536635Y364370I10735D01*
G01*
G75*
G02X547370Y353635J-10735*
G01*
X576635*
Y391635*
X573985Y394285*
X426635*
Y353635*
X525900*
G37*
D02*
D11*
X12088Y12088D02*
X8495Y8495D01*
X12088Y49182D02*
X8495Y52775D01*
X49182Y12088D02*
X52775Y8495D01*
X49182Y49182D02*
X52775Y52775D01*
X54405Y107635D02*
X49325D01*
X54405Y169635D02*
X49325D01*
X54405Y231635D02*
X49325D01*
X54405Y293635D02*
X49325D01*
X70635Y91405D02*
Y86325D01*
Y123865D02*
Y128945D01*
Y153405D02*
Y148325D01*
Y185865D02*
Y190945D01*
Y215405D02*
Y210325D01*
Y247865D02*
Y252945D01*
Y277405D02*
Y272325D01*
Y309865D02*
Y314945D01*
X86865Y107635D02*
X91945D01*
X86865Y169635D02*
X91945D01*
X86865Y231635D02*
X91945D01*
X86865Y293635D02*
X91945D01*
X98805Y185635D02*
X93725D01*
X98805Y215635D02*
X93725D01*
X98805Y235635D02*
X93725D01*
X99341Y11341D02*
X95749Y7749D01*
X99341Y13929D02*
X95749Y17521D01*
X99341Y144341D02*
X95749Y140749D01*
X99341Y146929D02*
X95749Y150521D01*
X99341Y164341D02*
X95749Y160749D01*
X99341Y166929D02*
X95749Y170521D01*
X99341Y194341D02*
X95749Y190749D01*
X99341Y254341D02*
X95749Y250749D01*
X99341Y256929D02*
X95749Y260521D01*
X100635Y183805D02*
Y178725D01*
Y187465D02*
Y192545D01*
Y213805D02*
Y208725D01*
Y217465D02*
Y222545D01*
Y233805D02*
Y228725D01*
Y237465D02*
Y242545D01*
X101929Y11341D02*
X105521Y7749D01*
X101929Y13929D02*
X105521Y17521D01*
X101929Y144341D02*
X105521Y140749D01*
X101929Y146929D02*
X105521Y150521D01*
X101929Y164341D02*
X105521Y160749D01*
X101929Y166929D02*
X105521Y170521D01*
X101929Y194341D02*
X105521Y190749D01*
X101929Y254341D02*
X105521Y250749D01*
X101929Y256929D02*
X105521Y260521D01*
X102465Y185635D02*
X107545D01*
X102465Y215635D02*
X107545D01*
X102465Y235635D02*
X107545D01*
X103805Y22635D02*
X98725D01*
X103805Y155635D02*
X98725D01*
X103805Y175635D02*
X98725D01*
X103805Y225635D02*
X98725D01*
X103805Y245635D02*
X98725D01*
X105635Y20805D02*
Y15725D01*
Y24465D02*
Y29545D01*
Y153805D02*
Y148725D01*
Y157465D02*
Y162545D01*
Y173805D02*
Y168725D01*
Y177465D02*
Y182545D01*
Y223805D02*
Y218725D01*
Y227465D02*
Y232545D01*
Y243805D02*
Y238725D01*
Y247465D02*
Y252545D01*
X107465Y22635D02*
X112545D01*
X107465Y155635D02*
X112545D01*
X107465Y175635D02*
X112545D01*
X107465Y225635D02*
X112545D01*
X107465Y245635D02*
X112545D01*
X108805Y165635D02*
X103725D01*
X109341Y11341D02*
X105749Y7749D01*
X109341Y13929D02*
X105749Y17521D01*
X109341Y144341D02*
X105749Y140749D01*
X109341Y146929D02*
X105749Y150521D01*
X109341Y184341D02*
X105749Y180749D01*
X109341Y186929D02*
X105749Y190521D01*
X109341Y214341D02*
X105749Y210749D01*
X109341Y216929D02*
X105749Y220521D01*
X109341Y234341D02*
X105749Y230749D01*
X109341Y236929D02*
X105749Y240521D01*
X109341Y254341D02*
X105749Y250749D01*
X109341Y256929D02*
X105749Y260521D01*
X109341Y324341D02*
X105749Y320749D01*
X109341Y326929D02*
X105749Y330521D01*
X109341Y344341D02*
X105749Y340749D01*
X109341Y346929D02*
X105749Y350521D01*
X110635Y163805D02*
Y158725D01*
Y167465D02*
Y172545D01*
X111929Y11341D02*
X115521Y7749D01*
X111929Y13929D02*
X115521Y17521D01*
X111929Y144341D02*
X115521Y140749D01*
X111929Y146929D02*
X115521Y150521D01*
X111929Y184341D02*
X115521Y180749D01*
X111929Y214341D02*
X115521Y210749D01*
X111929Y216929D02*
X115521Y220521D01*
X111929Y234341D02*
X115521Y230749D01*
X111929Y236929D02*
X115521Y240521D01*
X111929Y254341D02*
X115521Y250749D01*
X111929Y256929D02*
X115521Y260521D01*
X111929Y324341D02*
X115521Y320749D01*
X111929Y326929D02*
X115521Y330521D01*
X111929Y344341D02*
X115521Y340749D01*
X111929Y346929D02*
X115521Y350521D01*
X112465Y165635D02*
X117545D01*
X113805Y205635D02*
X108725D01*
X113805Y335635D02*
X108725D01*
X113805Y355635D02*
X108725D01*
X114341Y21341D02*
X110749Y17749D01*
X114341Y23929D02*
X110749Y27521D01*
X115635Y203805D02*
Y198725D01*
Y207465D02*
Y212545D01*
Y333805D02*
Y328725D01*
Y337465D02*
Y342545D01*
Y353805D02*
Y348725D01*
Y357465D02*
Y362545D01*
X116929Y21341D02*
X120521Y17749D01*
X116929Y23929D02*
X120521Y27521D01*
X117465Y205635D02*
X122545D01*
X117465Y335635D02*
X122545D01*
X117465Y355635D02*
X122545D01*
X118805Y325635D02*
X113725D01*
X118805Y345635D02*
X113725D01*
X119341Y11341D02*
X115749Y7749D01*
X119341Y13929D02*
X115749Y17521D01*
X120635Y103805D02*
Y98725D01*
Y107465D02*
Y112545D01*
Y323805D02*
Y318725D01*
Y327465D02*
Y332545D01*
Y343805D02*
Y338725D01*
Y347465D02*
Y352545D01*
X121929Y11341D02*
X125521Y7749D01*
X121929Y13929D02*
X125521Y17521D01*
X122465Y325635D02*
X127545D01*
X122465Y345635D02*
X127545D01*
X123805Y22635D02*
X118725D01*
X123805Y115635D02*
X118725D01*
X124341Y94341D02*
X120749Y90749D01*
X124341Y96929D02*
X120749Y100521D01*
X124341Y204341D02*
X120749Y200749D01*
X124341Y206929D02*
X120749Y210521D01*
X124341Y334341D02*
X120749Y330749D01*
X124341Y336929D02*
X120749Y340521D01*
X124341Y354341D02*
X120749Y350749D01*
X124341Y356929D02*
X120749Y360521D01*
X125635Y20805D02*
Y15725D01*
Y24465D02*
Y29545D01*
Y113805D02*
Y108725D01*
Y117465D02*
Y122545D01*
X126929Y94341D02*
X130521Y90749D01*
X126929Y96929D02*
X130521Y100521D01*
X126929Y204341D02*
X130521Y200749D01*
X126929Y206929D02*
X130521Y210521D01*
X126929Y334341D02*
X130521Y330749D01*
X126929Y336929D02*
X130521Y340521D01*
X126929Y354341D02*
X130521Y350749D01*
X126929Y356929D02*
X130521Y360521D01*
X127465Y22635D02*
X132545D01*
X127465Y115635D02*
X132545D01*
X128805Y85635D02*
X123725D01*
X128805Y105635D02*
X123725D01*
X128805Y125635D02*
X123725D01*
X128805Y195635D02*
X123725D01*
X129341Y11341D02*
X125749Y7749D01*
X129341Y13929D02*
X125749Y17521D01*
X129341Y324341D02*
X125749Y320749D01*
X129341Y326929D02*
X125749Y330521D01*
X129341Y344341D02*
X125749Y340749D01*
X129341Y346929D02*
X125749Y350521D01*
X130635Y87465D02*
Y92545D01*
Y103805D02*
Y98725D01*
Y107465D02*
Y112545D01*
Y123805D02*
Y118725D01*
Y127465D02*
Y132545D01*
Y193805D02*
Y188725D01*
Y197465D02*
Y202545D01*
X131929Y11341D02*
X135521Y7749D01*
X131929Y13929D02*
X135521Y17521D01*
X131929Y324341D02*
X135521Y320749D01*
X131929Y326929D02*
X135521Y330521D01*
X131929Y344341D02*
X135521Y340749D01*
X131929Y346929D02*
X135521Y350521D01*
X132465Y85635D02*
X137545D01*
X132465Y105635D02*
X137545D01*
X132465Y125635D02*
X137545D01*
X132465Y195635D02*
X137545D01*
X133805Y95635D02*
X128725D01*
X133805Y185635D02*
X128725D01*
X133805Y335635D02*
X128725D01*
X133805Y355635D02*
X128725D01*
X134341Y21341D02*
X130749Y17749D01*
X134341Y23929D02*
X130749Y27521D01*
X134341Y114341D02*
X130749Y110749D01*
X134341Y116929D02*
X130749Y120521D01*
X134341Y204341D02*
X130749Y200749D01*
X134341Y206929D02*
X130749Y210521D01*
X135635Y93805D02*
Y88725D01*
Y97465D02*
Y102545D01*
Y183805D02*
Y178725D01*
Y187465D02*
Y192545D01*
Y333805D02*
Y328725D01*
Y337465D02*
Y342545D01*
Y353805D02*
Y348725D01*
Y357465D02*
Y362545D01*
X136929Y21341D02*
X140521Y17749D01*
X136929Y23929D02*
X140521Y27521D01*
X136929Y114341D02*
X140521Y110749D01*
X136929Y116929D02*
X140521Y120521D01*
X136929Y204341D02*
X140521Y200749D01*
X137465Y95635D02*
X142545D01*
X137465Y185635D02*
X142545D01*
X137465Y335635D02*
X142545D01*
X137465Y355635D02*
X142545D01*
X138805Y325635D02*
X133725D01*
X138805Y345635D02*
X133725D01*
X139341Y11341D02*
X135749Y7749D01*
X139341Y13929D02*
X135749Y17521D01*
X139341Y104341D02*
X135749Y100749D01*
X139341Y106929D02*
X135749Y110521D01*
X139341Y124341D02*
X135749Y120749D01*
X139341Y126929D02*
X135749Y130521D01*
X139341Y194341D02*
X135749Y190749D01*
X139341Y196929D02*
X135749Y200521D01*
X140635Y87465D02*
Y92545D01*
Y323805D02*
Y318725D01*
Y327465D02*
Y332545D01*
Y343805D02*
Y338725D01*
Y347465D02*
Y352545D01*
X141929Y11341D02*
X145521Y7749D01*
X141929Y13929D02*
X145521Y17521D01*
X141929Y104341D02*
X145521Y100749D01*
X141929Y106929D02*
X145521Y110521D01*
X141929Y124341D02*
X145521Y120749D01*
X141929Y126929D02*
X145521Y130521D01*
X141929Y194341D02*
X145521Y190749D01*
X141929Y196929D02*
X145521Y200521D01*
X142465Y85635D02*
X147545D01*
X142465Y325635D02*
X147545D01*
X142465Y345635D02*
X147545D01*
X143805Y22635D02*
X138725D01*
X144341Y184341D02*
X140749Y180749D01*
X144341Y186929D02*
X140749Y190521D01*
X144341Y334341D02*
X140749Y330749D01*
X144341Y336929D02*
X140749Y340521D01*
X144341Y354341D02*
X140749Y350749D01*
X144341Y356929D02*
X140749Y360521D01*
X145635Y20805D02*
Y15725D01*
Y24465D02*
Y29545D01*
X146905Y117625D02*
X141825D01*
X146905Y287625D02*
X141825D01*
X146929Y184341D02*
X150521Y180749D01*
X146929Y186929D02*
X150521Y190521D01*
X146929Y334341D02*
X150521Y330749D01*
X146929Y336929D02*
X150521Y340521D01*
X146929Y354341D02*
X150521Y350749D01*
X146929Y356929D02*
X150521Y360521D01*
X147465Y22635D02*
X152545D01*
X149341Y11341D02*
X145749Y7749D01*
X149341Y13929D02*
X145749Y17521D01*
X149341Y194341D02*
X145749Y190749D01*
X149341Y196929D02*
X145749Y200521D01*
X149341Y324341D02*
X145749Y320749D01*
X149341Y326929D02*
X145749Y330521D01*
X149341Y344341D02*
X145749Y340749D01*
X149341Y346929D02*
X145749Y350521D01*
X151929Y11341D02*
X155521Y7749D01*
X151929Y13929D02*
X155521Y17521D01*
X151929Y194341D02*
X155521Y190749D01*
X151929Y196929D02*
X155521Y200521D01*
X151929Y324341D02*
X155521Y320749D01*
X151929Y326929D02*
X155521Y330521D01*
X151929Y344341D02*
X155521Y340749D01*
X151929Y346929D02*
X155521Y350521D01*
X153805Y185635D02*
X148725D01*
X153805Y335635D02*
X148725D01*
X153805Y355635D02*
X148725D01*
X154341Y21341D02*
X150749Y17749D01*
X154341Y23929D02*
X150749Y27521D01*
X155635Y183805D02*
Y178725D01*
Y187465D02*
Y192545D01*
Y333805D02*
Y328725D01*
Y337465D02*
Y342545D01*
Y353805D02*
Y348725D01*
Y357465D02*
Y362545D01*
X156929Y21341D02*
X160521Y17749D01*
X156929Y23929D02*
X160521Y27521D01*
X157465Y185635D02*
X162545D01*
X157465Y335635D02*
X162545D01*
X157465Y355635D02*
X162545D01*
X158805Y325635D02*
X153725D01*
X158805Y345635D02*
X153725D01*
X159341Y11341D02*
X155749Y7749D01*
X159341Y13929D02*
X155749Y17521D01*
X159341Y194341D02*
X155749Y190749D01*
X159341Y196929D02*
X155749Y200521D01*
X160635Y323805D02*
Y318725D01*
Y327465D02*
Y332545D01*
Y343805D02*
Y338725D01*
Y347465D02*
Y352545D01*
X161929Y11341D02*
X165521Y7749D01*
X161929Y13929D02*
X165521Y17521D01*
X161929Y194341D02*
X165521Y190749D01*
X161929Y196929D02*
X165521Y200521D01*
X162465Y325635D02*
X167545D01*
X162465Y345635D02*
X167545D01*
X163805Y22635D02*
X158725D01*
X164341Y184341D02*
X160749Y180749D01*
X164341Y186929D02*
X160749Y190521D01*
X164341Y334341D02*
X160749Y330749D01*
X164341Y336929D02*
X160749Y340521D01*
X164341Y354341D02*
X160749Y350749D01*
X164341Y356929D02*
X160749Y360521D01*
X165635Y20805D02*
Y15725D01*
Y24465D02*
Y29545D01*
X166929Y184341D02*
X170521Y180749D01*
X166929Y186929D02*
X170521Y190521D01*
X166929Y334341D02*
X170521Y330749D01*
X166929Y336929D02*
X170521Y340521D01*
X166929Y354341D02*
X170521Y350749D01*
X166929Y356929D02*
X170521Y360521D01*
X167465Y22635D02*
X172545D01*
X168805Y195635D02*
X163725D01*
X169341Y11341D02*
X165749Y7749D01*
X169341Y13929D02*
X165749Y17521D01*
X169341Y324341D02*
X165749Y320749D01*
X169341Y326929D02*
X165749Y330521D01*
X169341Y344341D02*
X165749Y340749D01*
X169341Y346929D02*
X165749Y350521D01*
X170635Y193805D02*
Y188725D01*
Y197465D02*
Y202545D01*
X171929Y11341D02*
X175521Y7749D01*
X171929Y13929D02*
X175521Y17521D01*
X171929Y324341D02*
X175521Y320749D01*
X171929Y326929D02*
X175521Y330521D01*
X171929Y344341D02*
X175521Y340749D01*
X171929Y346929D02*
X175521Y350521D01*
X172465Y195635D02*
X177545D01*
X173805Y185635D02*
X168725D01*
X173805Y205635D02*
X168725D01*
X173805Y335635D02*
X168725D01*
X173805Y355635D02*
X168725D01*
X174341Y21341D02*
X170749Y17749D01*
X174341Y23929D02*
X170749Y27521D01*
X175635Y183805D02*
Y178725D01*
Y187465D02*
Y192545D01*
Y203805D02*
Y198725D01*
Y207465D02*
Y212545D01*
Y333805D02*
Y328725D01*
Y337465D02*
Y342545D01*
Y353805D02*
Y348725D01*
Y357465D02*
Y362545D01*
X176929Y21341D02*
X180521Y17749D01*
X176929Y23929D02*
X180521Y27521D01*
X177465Y185635D02*
X182545D01*
X177465Y205635D02*
X182545D01*
X177465Y335635D02*
X182545D01*
X177465Y355635D02*
X182545D01*
X178805Y215635D02*
X173725D01*
X178805Y325635D02*
X173725D01*
X178805Y345635D02*
X173725D01*
X179341Y11341D02*
X175749Y7749D01*
X179341Y13929D02*
X175749Y17521D01*
X179341Y194341D02*
X175749Y190749D01*
X179341Y196929D02*
X175749Y200521D01*
X180635Y151355D02*
Y156435D01*
Y213805D02*
Y208725D01*
Y217465D02*
Y222545D01*
Y321355D02*
Y326435D01*
Y323805D02*
Y318725D01*
Y327465D02*
Y332545D01*
Y343805D02*
Y338725D01*
Y347465D02*
Y352545D01*
X181929Y11341D02*
X185521Y7749D01*
X181929Y13929D02*
X185521Y17521D01*
X181929Y194341D02*
X185521Y190749D01*
X181929Y196929D02*
X185521Y200521D01*
X182465Y215635D02*
X187545D01*
X182465Y325635D02*
X187545D01*
X182465Y345635D02*
X187545D01*
X183805Y22635D02*
X178725D01*
X184341Y184341D02*
X180749Y180749D01*
X184341Y186929D02*
X180749Y190521D01*
X184341Y204341D02*
X180749Y200749D01*
X184341Y206929D02*
X180749Y210521D01*
X184341Y334341D02*
X180749Y330749D01*
X184341Y336929D02*
X180749Y340521D01*
X184341Y354341D02*
X180749Y350749D01*
X184341Y356929D02*
X180749Y360521D01*
X185635Y20805D02*
Y15725D01*
Y24465D02*
Y29545D01*
X186929Y184341D02*
X190521Y180749D01*
X186929Y186929D02*
X190521Y190521D01*
X186929Y204341D02*
X190521Y200749D01*
X186929Y206929D02*
X190521Y210521D01*
X186929Y334341D02*
X190521Y330749D01*
X186929Y336929D02*
X190521Y340521D01*
X186929Y354341D02*
X190521Y350749D01*
X186929Y356929D02*
X190521Y360521D01*
X187465Y22635D02*
X192545D01*
X188805Y195635D02*
X183725D01*
X189341Y11341D02*
X185749Y7749D01*
X189341Y13929D02*
X185749Y17521D01*
X189341Y214341D02*
X185749Y210749D01*
X189341Y216929D02*
X185749Y220521D01*
X189341Y324341D02*
X185749Y320749D01*
X189341Y326929D02*
X185749Y330521D01*
X189341Y344341D02*
X185749Y340749D01*
X189341Y346929D02*
X185749Y350521D01*
X190635Y193805D02*
Y188725D01*
Y197465D02*
Y202545D01*
X191929Y11341D02*
X195521Y7749D01*
X191929Y13929D02*
X195521Y17521D01*
X191929Y214341D02*
X195521Y210749D01*
X191929Y216929D02*
X195521Y220521D01*
X191929Y324341D02*
X195521Y320749D01*
X191929Y326929D02*
X195521Y330521D01*
X191929Y344341D02*
X195521Y340749D01*
X191929Y346929D02*
X195521Y350521D01*
X192465Y195635D02*
X197545D01*
X193805Y185635D02*
X188725D01*
X193805Y335635D02*
X188725D01*
X193805Y355635D02*
X188725D01*
X194341Y21341D02*
X190749Y17749D01*
X194341Y23929D02*
X190749Y27521D01*
X195635Y183805D02*
Y178725D01*
Y187465D02*
Y192545D01*
Y333805D02*
Y328725D01*
Y337465D02*
Y342545D01*
Y353805D02*
Y348725D01*
Y357465D02*
Y362545D01*
X196929Y21341D02*
X200521Y17749D01*
X196929Y23929D02*
X200521Y27521D01*
X197465Y185635D02*
X202545D01*
X197465Y335635D02*
X202545D01*
X197465Y355635D02*
X202545D01*
X198059Y48515D02*
X192979D01*
X198059Y218515D02*
X192979D01*
X198805Y325635D02*
X193725D01*
X198805Y345635D02*
X193725D01*
X199341Y11341D02*
X195749Y7749D01*
X199341Y13929D02*
X195749Y17521D01*
X199341Y194341D02*
X195749Y190749D01*
X199341Y196929D02*
X195749Y200521D01*
X200635Y323805D02*
Y318725D01*
Y327465D02*
Y332545D01*
Y343805D02*
Y338725D01*
Y347465D02*
Y352545D01*
X201929Y11341D02*
X205521Y7749D01*
X201929Y13929D02*
X205521Y17521D01*
X201929Y194341D02*
X205521Y190749D01*
X201929Y196929D02*
X205521Y200521D01*
X202465Y325635D02*
X207545D01*
X202465Y345635D02*
X207545D01*
X203805Y22635D02*
X198725D01*
X204289Y37285D02*
Y32205D01*
Y59745D02*
Y64825D01*
Y207285D02*
Y202205D01*
Y229745D02*
Y234825D01*
X204341Y184341D02*
X200749Y180749D01*
X204341Y186929D02*
X200749Y190521D01*
X204341Y334341D02*
X200749Y330749D01*
X204341Y336929D02*
X200749Y340521D01*
X204341Y354341D02*
X200749Y350749D01*
X204341Y356929D02*
X200749Y360521D01*
X205635Y20805D02*
Y15725D01*
Y24465D02*
Y29545D01*
X206929Y184341D02*
X210521Y180749D01*
X206929Y186929D02*
X210521Y190521D01*
X206929Y334341D02*
X210521Y330749D01*
X206929Y336929D02*
X210521Y340521D01*
X206929Y354341D02*
X210521Y350749D01*
X206929Y356929D02*
X210521Y360521D01*
X207465Y22635D02*
X212545D01*
X208805Y195635D02*
X203725D01*
X209341Y11341D02*
X205749Y7749D01*
X209341Y13929D02*
X205749Y17521D01*
X209341Y324341D02*
X205749Y320749D01*
X209341Y326929D02*
X205749Y330521D01*
X209341Y344341D02*
X205749Y340749D01*
X209341Y346929D02*
X205749Y350521D01*
X210519Y48515D02*
X215599D01*
X210519Y218515D02*
X215599D01*
X210635Y193805D02*
Y188725D01*
Y197465D02*
Y202545D01*
X211929Y11341D02*
X215521Y7749D01*
X211929Y13929D02*
X215521Y17521D01*
X211929Y324341D02*
X215521Y320749D01*
X211929Y326929D02*
X215521Y330521D01*
X211929Y344341D02*
X215521Y340749D01*
X211929Y346929D02*
X215521Y350521D01*
X212465Y195635D02*
X217545D01*
X213805Y335635D02*
X208725D01*
X213805Y355635D02*
X208725D01*
X214341Y21341D02*
X210749Y17749D01*
X214341Y23929D02*
X210749Y27521D01*
X214365Y117625D02*
X219445D01*
X214365Y287625D02*
X219445D01*
X215635Y333805D02*
Y328725D01*
Y337465D02*
Y342545D01*
Y353805D02*
Y348725D01*
Y357465D02*
Y362545D01*
X216929Y21341D02*
X220521Y17749D01*
X216929Y23929D02*
X220521Y27521D01*
X217465Y335635D02*
X222545D01*
X217465Y355635D02*
X222545D01*
X218805Y325635D02*
X213725D01*
X218805Y345635D02*
X213725D01*
X219341Y11341D02*
X215749Y7749D01*
X219341Y13929D02*
X215749Y17521D01*
X220635Y323805D02*
Y318725D01*
Y327465D02*
Y332545D01*
Y343805D02*
Y338725D01*
Y347465D02*
Y352545D01*
X221929Y11341D02*
X225521Y7749D01*
X221929Y13929D02*
X225521Y17521D01*
X222465Y325635D02*
X227545D01*
X222465Y345635D02*
X227545D01*
X223805Y22635D02*
X218725D01*
X224341Y334341D02*
X220749Y330749D01*
X224341Y336929D02*
X220749Y340521D01*
X224341Y354341D02*
X220749Y350749D01*
X224341Y356929D02*
X220749Y360521D01*
X225635Y20805D02*
Y15725D01*
Y24465D02*
Y29545D01*
X226929Y334341D02*
X230521Y330749D01*
X226929Y336929D02*
X230521Y340521D01*
X226929Y354341D02*
X230521Y350749D01*
X226929Y356929D02*
X230521Y360521D01*
X227465Y22635D02*
X232545D01*
X229341Y11341D02*
X225749Y7749D01*
X229341Y13929D02*
X225749Y17521D01*
X229341Y324341D02*
X225749Y320749D01*
X229341Y326929D02*
X225749Y330521D01*
X229341Y344341D02*
X225749Y340749D01*
X229341Y346929D02*
X225749Y350521D01*
X230635Y153805D02*
Y148725D01*
Y157465D02*
Y162545D01*
Y173805D02*
Y168725D01*
Y177465D02*
Y182545D01*
X231929Y11341D02*
X235521Y7749D01*
X231929Y13929D02*
X235521Y17521D01*
X231929Y324341D02*
X235521Y320749D01*
X231929Y326929D02*
X235521Y330521D01*
X231929Y344341D02*
X235521Y340749D01*
X231929Y346929D02*
X235521Y350521D01*
X232465Y175635D02*
X237545D01*
X233805Y165635D02*
X228725D01*
X233805Y335635D02*
X228725D01*
X233805Y355635D02*
X228725D01*
X234341Y21341D02*
X230749Y17749D01*
X234341Y23929D02*
X230749Y27521D01*
X235635Y163805D02*
Y158725D01*
Y167465D02*
Y172545D01*
Y333805D02*
Y328725D01*
Y337465D02*
Y342545D01*
Y353805D02*
Y348725D01*
Y357465D02*
Y362545D01*
X236929Y21341D02*
X240521Y17749D01*
X236929Y23929D02*
X240521Y27521D01*
X237465Y165635D02*
X242545D01*
X237465Y335635D02*
X242545D01*
X237465Y355635D02*
X242545D01*
X238805Y155635D02*
X233725D01*
X238805Y325635D02*
X233725D01*
X238805Y345635D02*
X233725D01*
X239341Y11341D02*
X235749Y7749D01*
X239341Y13929D02*
X235749Y17521D01*
X239341Y174341D02*
X235749Y170749D01*
X239341Y176929D02*
X235749Y180521D01*
X240635Y153805D02*
Y148725D01*
Y157465D02*
Y162545D01*
Y323805D02*
Y318725D01*
Y327465D02*
Y332545D01*
Y343805D02*
Y338725D01*
Y347465D02*
Y352545D01*
X241929Y11341D02*
X245521Y7749D01*
X241929Y13929D02*
X245521Y17521D01*
X241929Y174341D02*
X245521Y170749D01*
X241929Y176929D02*
X245521Y180521D01*
X242465Y155635D02*
X247545D01*
X242465Y325635D02*
X247545D01*
X242465Y345635D02*
X247545D01*
X243805Y22635D02*
X238725D01*
X244341Y164341D02*
X240749Y160749D01*
X244341Y166929D02*
X240749Y170521D01*
X244341Y334341D02*
X240749Y330749D01*
X244341Y336929D02*
X240749Y340521D01*
X244341Y354341D02*
X240749Y350749D01*
X244341Y356929D02*
X240749Y360521D01*
X245635Y20805D02*
Y15725D01*
Y24465D02*
Y29545D01*
X246905Y117625D02*
X241825D01*
X246905Y287625D02*
X241825D01*
X246929Y164341D02*
X250521Y160749D01*
X246929Y166929D02*
X250521Y170521D01*
X246929Y334341D02*
X250521Y330749D01*
X246929Y336929D02*
X250521Y340521D01*
X246929Y354341D02*
X250521Y350749D01*
X246929Y356929D02*
X250521Y360521D01*
X247465Y22635D02*
X252545D01*
X248805Y175635D02*
X243725D01*
X249341Y11341D02*
X245749Y7749D01*
X249341Y13929D02*
X245749Y17521D01*
X249341Y154341D02*
X245749Y150749D01*
X249341Y156929D02*
X245749Y160521D01*
X249341Y324341D02*
X245749Y320749D01*
X249341Y326929D02*
X245749Y330521D01*
X249341Y344341D02*
X245749Y340749D01*
X249341Y346929D02*
X245749Y350521D01*
X250635Y173805D02*
Y168725D01*
Y177465D02*
Y182545D01*
X251929Y11341D02*
X255521Y7749D01*
X251929Y13929D02*
X255521Y17521D01*
X251929Y154341D02*
X255521Y150749D01*
X251929Y156929D02*
X255521Y160521D01*
X251929Y324341D02*
X255521Y320749D01*
X251929Y326929D02*
X255521Y330521D01*
X251929Y344341D02*
X255521Y340749D01*
X251929Y346929D02*
X255521Y350521D01*
X252465Y175635D02*
X257545D01*
X253805Y165635D02*
X248725D01*
X253805Y335635D02*
X248725D01*
X253805Y355635D02*
X248725D01*
X254341Y21341D02*
X250749Y17749D01*
X254341Y23929D02*
X250749Y27521D01*
X255635Y163805D02*
Y158725D01*
Y167465D02*
Y172545D01*
Y333805D02*
Y328725D01*
Y337465D02*
Y342545D01*
Y353805D02*
Y348725D01*
Y357465D02*
Y362545D01*
X256929Y21341D02*
X260521Y17749D01*
X256929Y23929D02*
X260521Y27521D01*
X257465Y165635D02*
X262545D01*
X257465Y335635D02*
X262545D01*
X257465Y355635D02*
X262545D01*
X258805Y325635D02*
X253725D01*
X258805Y345635D02*
X253725D01*
X259341Y11341D02*
X255749Y7749D01*
X259341Y13929D02*
X255749Y17521D01*
X259341Y154341D02*
X255749Y150749D01*
X259341Y156929D02*
X255749Y160521D01*
X259341Y174341D02*
X255749Y170749D01*
X259341Y176929D02*
X255749Y180521D01*
X260635Y323805D02*
Y318725D01*
Y327465D02*
Y332545D01*
Y343805D02*
Y338725D01*
Y347465D02*
Y352545D01*
X261929Y11341D02*
X265521Y7749D01*
X261929Y13929D02*
X265521Y17521D01*
X261929Y154341D02*
X265521Y150749D01*
X261929Y156929D02*
X265521Y160521D01*
X261929Y174341D02*
X265521Y170749D01*
X261929Y176929D02*
X265521Y180521D01*
X262465Y325635D02*
X267545D01*
X262465Y345635D02*
X267545D01*
X263805Y22635D02*
X258725D01*
X264341Y164341D02*
X260749Y160749D01*
X264341Y166929D02*
X260749Y170521D01*
X264341Y334341D02*
X260749Y330749D01*
X264341Y336929D02*
X260749Y340521D01*
X264341Y354341D02*
X260749Y350749D01*
X264341Y356929D02*
X260749Y360521D01*
X265635Y20805D02*
Y15725D01*
Y24465D02*
Y29545D01*
X266929Y164341D02*
X270521Y160749D01*
X266929Y166929D02*
X270521Y170521D01*
X266929Y334341D02*
X270521Y330749D01*
X266929Y336929D02*
X270521Y340521D01*
X266929Y354341D02*
X270521Y350749D01*
X266929Y356929D02*
X270521Y360521D01*
X267465Y22635D02*
X272545D01*
X268805Y155635D02*
X263725D01*
X268805Y175635D02*
X263725D01*
X269341Y11341D02*
X265749Y7749D01*
X269341Y13929D02*
X265749Y17521D01*
X269341Y324341D02*
X265749Y320749D01*
X269341Y326929D02*
X265749Y330521D01*
X269341Y344341D02*
X265749Y340749D01*
X269341Y346929D02*
X265749Y350521D01*
X270635Y153805D02*
Y148725D01*
Y157465D02*
Y162545D01*
Y173805D02*
Y168725D01*
Y177465D02*
Y182545D01*
X271929Y11341D02*
X275521Y7749D01*
X271929Y13929D02*
X275521Y17521D01*
X271929Y324341D02*
X275521Y320749D01*
X271929Y326929D02*
X275521Y330521D01*
X271929Y344341D02*
X275521Y340749D01*
X271929Y346929D02*
X275521Y350521D01*
X272465Y155635D02*
X277545D01*
X272465Y175635D02*
X277545D01*
X273805Y165635D02*
X268725D01*
X273805Y335635D02*
X268725D01*
X273805Y355635D02*
X268725D01*
X274341Y21341D02*
X270749Y17749D01*
X274341Y23929D02*
X270749Y27521D01*
X275635Y163805D02*
Y158725D01*
Y167465D02*
Y172545D01*
Y333805D02*
Y328725D01*
Y337465D02*
Y342545D01*
Y353805D02*
Y348725D01*
Y357465D02*
Y362545D01*
X276929Y21341D02*
X280521Y17749D01*
X276929Y23929D02*
X280521Y27521D01*
X277465Y165635D02*
X282545D01*
X277465Y335635D02*
X282545D01*
X277465Y355635D02*
X282545D01*
X278805Y325635D02*
X273725D01*
X278805Y345635D02*
X273725D01*
X279341Y11341D02*
X275749Y7749D01*
X279341Y13929D02*
X275749Y17521D01*
X279341Y154341D02*
X275749Y150749D01*
X279341Y156929D02*
X275749Y160521D01*
X279341Y174341D02*
X275749Y170749D01*
X279341Y176929D02*
X275749Y180521D01*
X280635Y151355D02*
Y156435D01*
Y321355D02*
Y326435D01*
Y323805D02*
Y318725D01*
Y327465D02*
Y332545D01*
Y343805D02*
Y338725D01*
Y347465D02*
Y352545D01*
X281929Y11341D02*
X285521Y7749D01*
X281929Y13929D02*
X285521Y17521D01*
X281929Y154341D02*
X285521Y150749D01*
X281929Y156929D02*
X285521Y160521D01*
X281929Y174341D02*
X285521Y170749D01*
X281929Y176929D02*
X285521Y180521D01*
X282465Y325635D02*
X287545D01*
X282465Y345635D02*
X287545D01*
X283805Y22635D02*
X278725D01*
X284341Y164341D02*
X280749Y160749D01*
X284341Y166929D02*
X280749Y170521D01*
X284341Y334341D02*
X280749Y330749D01*
X284341Y336929D02*
X280749Y340521D01*
X284341Y354341D02*
X280749Y350749D01*
X284341Y356929D02*
X280749Y360521D01*
X285635Y20805D02*
Y15725D01*
Y24465D02*
Y29545D01*
X286929Y164341D02*
X290521Y160749D01*
X286929Y166929D02*
X290521Y170521D01*
X286929Y334341D02*
X290521Y330749D01*
X286929Y336929D02*
X290521Y340521D01*
X286929Y354341D02*
X290521Y350749D01*
X286929Y356929D02*
X290521Y360521D01*
X287465Y22635D02*
X292545D01*
X288805Y155635D02*
X283725D01*
X288805Y175635D02*
X283725D01*
X289341Y11341D02*
X285749Y7749D01*
X289341Y13929D02*
X285749Y17521D01*
X289341Y324341D02*
X285749Y320749D01*
X289341Y326929D02*
X285749Y330521D01*
X290635Y153805D02*
Y148725D01*
Y157465D02*
Y162545D01*
Y173805D02*
Y168725D01*
Y177465D02*
Y182545D01*
X291929Y11341D02*
X295521Y7749D01*
X291929Y13929D02*
X295521Y17521D01*
X291929Y324341D02*
X295521Y320749D01*
X291929Y326929D02*
X295521Y330521D01*
X292465Y155635D02*
X297545D01*
X292465Y175635D02*
X297545D01*
X293805Y165635D02*
X288725D01*
X293805Y335635D02*
X288725D01*
X294341Y21341D02*
X290749Y17749D01*
X294341Y23929D02*
X290749Y27521D01*
X295635Y163805D02*
Y158725D01*
Y167465D02*
Y172545D01*
Y333805D02*
Y328725D01*
Y337465D02*
Y342545D01*
X296929Y21341D02*
X300521Y17749D01*
X296929Y23929D02*
X300521Y27521D01*
X297465Y165635D02*
X302545D01*
X297465Y335635D02*
X302545D01*
X298059Y48515D02*
X292979D01*
X298059Y218515D02*
X292979D01*
X298805Y325635D02*
X293725D01*
X299341Y11341D02*
X295749Y7749D01*
X299341Y13929D02*
X295749Y17521D01*
X299341Y154341D02*
X295749Y150749D01*
X299341Y156929D02*
X295749Y160521D01*
X299341Y174341D02*
X295749Y170749D01*
X299341Y176929D02*
X295749Y180521D01*
X300635Y323805D02*
Y318725D01*
Y327465D02*
Y332545D01*
X301929Y11341D02*
X305521Y7749D01*
X301929Y13929D02*
X305521Y17521D01*
X301929Y154341D02*
X305521Y150749D01*
X301929Y156929D02*
X305521Y160521D01*
X301929Y174341D02*
X305521Y170749D01*
X301929Y176929D02*
X305521Y180521D01*
X302465Y325635D02*
X307545D01*
X303805Y22635D02*
X298725D01*
X304289Y37285D02*
Y32205D01*
Y59745D02*
Y64825D01*
Y207285D02*
Y202205D01*
Y229745D02*
Y234825D01*
X304341Y164341D02*
X300749Y160749D01*
X304341Y166929D02*
X300749Y170521D01*
X304341Y334341D02*
X300749Y330749D01*
X304341Y336929D02*
X300749Y340521D01*
X305635Y20805D02*
Y15725D01*
Y24465D02*
Y29545D01*
X306929Y164341D02*
X310521Y160749D01*
X306929Y166929D02*
X310521Y170521D01*
X306929Y334341D02*
X310521Y330749D01*
X306929Y336929D02*
X310521Y340521D01*
X307465Y22635D02*
X312545D01*
X308805Y155635D02*
X303725D01*
X308805Y175635D02*
X303725D01*
X309341Y11341D02*
X305749Y7749D01*
X309341Y13929D02*
X305749Y17521D01*
X309341Y324341D02*
X305749Y320749D01*
X309341Y326929D02*
X305749Y330521D01*
X310519Y48515D02*
X315599D01*
X310519Y218515D02*
X315599D01*
X310635Y153805D02*
Y148725D01*
Y157465D02*
Y162545D01*
Y173805D02*
Y168725D01*
Y177465D02*
Y182545D01*
X311929Y11341D02*
X315521Y7749D01*
X311929Y13929D02*
X315521Y17521D01*
X311929Y324341D02*
X315521Y320749D01*
X311929Y326929D02*
X315521Y330521D01*
X312465Y155635D02*
X317545D01*
X312465Y175635D02*
X317545D01*
X313805Y165635D02*
X308725D01*
X313805Y335635D02*
X308725D01*
X314341Y21341D02*
X310749Y17749D01*
X314341Y23929D02*
X310749Y27521D01*
X314365Y117625D02*
X319445D01*
X314365Y287625D02*
X319445D01*
X315635Y163805D02*
Y158725D01*
Y167465D02*
Y172545D01*
Y333805D02*
Y328725D01*
X316929Y21341D02*
X320521Y17749D01*
X316929Y23929D02*
X320521Y27521D01*
X317465Y165635D02*
X322545D01*
X317465Y335635D02*
X322545D01*
X319341Y154341D02*
X315749Y150749D01*
X319341Y156929D02*
X315749Y160521D01*
X319341Y174341D02*
X315749Y170749D01*
X319341Y176929D02*
X315749Y180521D01*
X319341Y324341D02*
X315749Y320749D01*
X319341Y326929D02*
X315749Y330521D01*
X321929Y154341D02*
X325521Y150749D01*
X321929Y156929D02*
X325521Y160521D01*
X321929Y174341D02*
X325521Y170749D01*
X321929Y176929D02*
X325521Y180521D01*
X321929Y324341D02*
X325521Y320749D01*
X321929Y326929D02*
X325521Y330521D01*
X324341Y334341D02*
X320749Y330749D01*
X325635Y163805D02*
Y158725D01*
Y167465D02*
Y172545D01*
X326929Y334341D02*
X330521Y330749D01*
X326929Y336929D02*
X330521Y340521D01*
X328805Y325635D02*
X323725D01*
X330635Y323805D02*
Y318725D01*
Y327465D02*
Y332545D01*
X332088Y12088D02*
X328495Y8495D01*
X332088Y49182D02*
X328495Y52775D01*
X332465Y325635D02*
X337545D01*
X338805Y175635D02*
X333725D01*
X338805Y197635D02*
X333725D01*
X339341Y185341D02*
X335749Y181749D01*
X339341Y187929D02*
X335749Y191521D01*
X339805Y233635D02*
X334725D01*
X340635Y87805D02*
Y82725D01*
Y91465D02*
Y96545D01*
Y102465D02*
Y107545D01*
Y113465D02*
Y118545D01*
Y173805D02*
Y168725D01*
Y177465D02*
Y182545D01*
Y195805D02*
Y190725D01*
Y199465D02*
Y204545D01*
X341929Y185341D02*
X345521Y181749D01*
X341929Y187929D02*
X345521Y191521D01*
X342465Y89635D02*
X347545D01*
X342465Y100635D02*
X347545D01*
X342465Y111635D02*
X347545D01*
X342465Y175635D02*
X347545D01*
X342465Y197635D02*
X347545D01*
X343465Y233635D02*
X348545D01*
X351905Y188885D02*
X346825D01*
X352341Y87341D02*
X348749Y83749D01*
X352341Y89929D02*
X348749Y93521D01*
X352341Y98341D02*
X348749Y94749D01*
X352341Y100929D02*
X348749Y104521D01*
X354155Y112385D02*
X349075D01*
X354929Y89929D02*
X358521Y93521D01*
X354929Y98341D02*
X358521Y94749D01*
X354929Y100929D02*
X358521Y104521D01*
X355635Y186905D02*
Y181825D01*
Y190865D02*
Y195945D01*
X356135Y108655D02*
Y103575D01*
Y116115D02*
Y121195D01*
X360405Y338635D02*
X355325D01*
X369182Y12088D02*
X372775Y8495D01*
X369182Y49182D02*
X372775Y52775D01*
X370341Y226929D02*
X366749Y230521D01*
X372929Y224341D02*
X376521Y220749D01*
X372929Y226929D02*
X376521Y230521D01*
X377929Y214341D02*
X381521Y210749D01*
X377929Y216929D02*
X381521Y220521D01*
X379341Y11341D02*
X375749Y7749D01*
X379341Y13929D02*
X375749Y17521D01*
X381635Y327405D02*
Y322325D01*
Y349865D02*
Y354945D01*
X381929Y11341D02*
X385521Y7749D01*
X381929Y13929D02*
X385521Y17521D01*
X383805Y22635D02*
X378725D01*
X385635Y20805D02*
Y15725D01*
Y24465D02*
Y29545D01*
X386355Y210635D02*
X381275D01*
X387465Y22635D02*
X392545D01*
X388805Y32635D02*
X383725D01*
X389341Y11341D02*
X385749Y7749D01*
X389341Y13929D02*
X385749Y17521D01*
X390635Y30805D02*
Y25725D01*
Y34465D02*
Y39545D01*
X391929Y11341D02*
X395521Y7749D01*
X391929Y13929D02*
X395521Y17521D01*
X392465Y32635D02*
X397545D01*
X393805Y42635D02*
X388725D01*
X394341Y21341D02*
X390749Y17749D01*
X394341Y23929D02*
X390749Y27521D01*
X395635Y40805D02*
Y35725D01*
Y44465D02*
Y49545D01*
X396929Y21341D02*
X400521Y17749D01*
X396929Y23929D02*
X400521Y27521D01*
X397465Y42635D02*
X402545D01*
X398285Y238805D02*
Y233725D01*
Y246265D02*
Y251345D01*
X399341Y11341D02*
X395749Y7749D01*
X399341Y13929D02*
X395749Y17521D01*
X399341Y31341D02*
X395749Y27749D01*
X399341Y33929D02*
X395749Y37521D01*
X400265Y242535D02*
X405345D01*
X400315Y210635D02*
X405395D01*
X401929Y11341D02*
X405521Y7749D01*
X401929Y13929D02*
X405521Y17521D01*
X401929Y31341D02*
X405521Y27749D01*
X401929Y33929D02*
X405521Y37521D01*
X402865Y338635D02*
X407945D01*
X403805Y22635D02*
X398725D01*
X404341Y41341D02*
X400749Y37749D01*
X404341Y43929D02*
X400749Y47521D01*
X405635Y20805D02*
Y15725D01*
Y24465D02*
Y29545D01*
X406929Y41341D02*
X410521Y37749D01*
X406929Y43929D02*
X410521Y47521D01*
X407465Y22635D02*
X412545D01*
X408805Y32635D02*
X403725D01*
X409341Y11341D02*
X405749Y7749D01*
X409341Y13929D02*
X405749Y17521D01*
X410635Y30805D02*
Y25725D01*
Y34465D02*
Y39545D01*
X411929Y11341D02*
X415521Y7749D01*
X411929Y13929D02*
X415521Y17521D01*
X412465Y32635D02*
X417545D01*
X412945Y174273D02*
X407865D01*
X413805Y42635D02*
X408725D01*
X414341Y21341D02*
X410749Y17749D01*
X414341Y23929D02*
X410749Y27521D01*
X415635Y40805D02*
Y35725D01*
Y44465D02*
Y49545D01*
X416929Y21341D02*
X420521Y17749D01*
X416929Y23929D02*
X420521Y27521D01*
X417465Y42635D02*
X422545D01*
X418805Y135635D02*
X413725D01*
X418805Y155635D02*
X413725D01*
X418805Y195635D02*
X413725D01*
X418805Y215635D02*
X413725D01*
X419341Y31341D02*
X415749Y27749D01*
X419341Y33929D02*
X415749Y37521D01*
X419341Y144341D02*
X415749Y140749D01*
X419341Y146929D02*
X415749Y150521D01*
X419341Y164341D02*
X415749Y160749D01*
X419341Y166929D02*
X415749Y170521D01*
X419341Y174341D02*
X415749Y170749D01*
X419341Y176929D02*
X415749Y180521D01*
X419341Y184341D02*
X415749Y180749D01*
X419341Y186929D02*
X415749Y190521D01*
X419341Y204341D02*
X415749Y200749D01*
X419341Y206929D02*
X415749Y210521D01*
X420635Y133805D02*
Y128725D01*
Y137465D02*
Y142545D01*
Y153805D02*
Y148725D01*
Y157465D02*
Y162545D01*
Y193805D02*
Y188725D01*
Y197465D02*
Y202545D01*
Y213805D02*
Y208725D01*
Y217465D02*
Y222545D01*
X421929Y31341D02*
X425521Y27749D01*
X421929Y33929D02*
X425521Y37521D01*
X421929Y144341D02*
X425521Y140749D01*
X421929Y146929D02*
X425521Y150521D01*
X421929Y164341D02*
X425521Y160749D01*
X421929Y166929D02*
X425521Y170521D01*
X421929Y174341D02*
X425521Y170749D01*
X421929Y176929D02*
X425521Y180521D01*
X421929Y184341D02*
X425521Y180749D01*
X421929Y186929D02*
X425521Y190521D01*
X421929Y204341D02*
X425521Y200749D01*
X421929Y206929D02*
X425521Y210521D01*
X422465Y135635D02*
X427545D01*
X422465Y155635D02*
X427545D01*
X422465Y195635D02*
X427545D01*
X422465Y215635D02*
X427545D01*
X425635Y40805D02*
Y35725D01*
Y44465D02*
Y49545D01*
X426675Y150543D02*
Y145463D01*
Y198003D02*
Y203083D01*
X428805Y145635D02*
X423725D01*
X428805Y175635D02*
X423725D01*
X428805Y205635D02*
X423725D01*
X429341Y134341D02*
X425749Y130749D01*
X429341Y136929D02*
X425749Y140521D01*
X429341Y154341D02*
X425749Y150749D01*
X429341Y156929D02*
X425749Y160521D01*
X429341Y164341D02*
X425749Y160749D01*
X429341Y166929D02*
X425749Y170521D01*
X429341Y184341D02*
X425749Y180749D01*
X429341Y186929D02*
X425749Y190521D01*
X429341Y194341D02*
X425749Y190749D01*
X429341Y196929D02*
X425749Y200521D01*
X429341Y214341D02*
X425749Y210749D01*
X429341Y216929D02*
X425749Y220521D01*
X430635Y143805D02*
Y138725D01*
Y147465D02*
Y152545D01*
Y173805D02*
Y168725D01*
Y177465D02*
Y182545D01*
Y203805D02*
Y198725D01*
Y207465D02*
Y212545D01*
X431929Y134341D02*
X435521Y130749D01*
X431929Y136929D02*
X435521Y140521D01*
X431929Y154341D02*
X435521Y150749D01*
X431929Y156929D02*
X435521Y160521D01*
X431929Y164341D02*
X435521Y160749D01*
X431929Y166929D02*
X435521Y170521D01*
X431929Y184341D02*
X435521Y180749D01*
X431929Y186929D02*
X435521Y190521D01*
X431929Y194341D02*
X435521Y190749D01*
X431929Y196929D02*
X435521Y200521D01*
X431929Y214341D02*
X435521Y210749D01*
X431929Y216929D02*
X435521Y220521D01*
X432465Y145635D02*
X437545D01*
X432465Y175635D02*
X437545D01*
X432465Y205635D02*
X437545D01*
X438805Y305635D02*
X433725D01*
X438805Y365635D02*
X433725D01*
X440635Y303805D02*
Y298725D01*
Y307465D02*
Y312545D01*
Y363805D02*
Y358725D01*
Y367465D02*
Y372545D01*
X442465Y305635D02*
X447545D01*
X442465Y365635D02*
X447545D01*
X443805Y315635D02*
X438725D01*
X443805Y375635D02*
X438725D01*
X445405Y338635D02*
X440325D01*
X445635Y313805D02*
Y308725D01*
Y317465D02*
Y322545D01*
Y373805D02*
Y368725D01*
Y377465D02*
Y382545D01*
X447105Y242535D02*
X442025D01*
X447465Y315635D02*
X452545D01*
X447465Y375635D02*
X452545D01*
X449085Y246265D02*
Y251345D01*
X449341Y304341D02*
X445749Y300749D01*
X449341Y306929D02*
X445749Y310521D01*
X449341Y364341D02*
X445749Y360749D01*
X449341Y366929D02*
X445749Y370521D01*
X451929Y304341D02*
X455521Y300749D01*
X451929Y306929D02*
X455521Y310521D01*
X451929Y364341D02*
X455521Y360749D01*
X451929Y366929D02*
X455521Y370521D01*
X454341Y314341D02*
X450749Y310749D01*
X454341Y316929D02*
X450749Y320521D01*
X454341Y374341D02*
X450749Y370749D01*
X454341Y376929D02*
X450749Y380521D01*
X456929Y314341D02*
X460521Y310749D01*
X456929Y316929D02*
X460521Y320521D01*
X456929Y374341D02*
X460521Y370749D01*
X456929Y376929D02*
X460521Y380521D01*
X458805Y305635D02*
X453725D01*
X458805Y365635D02*
X453725D01*
X460635Y303805D02*
Y298725D01*
Y307465D02*
Y312545D01*
Y363805D02*
Y358725D01*
Y367465D02*
Y372545D01*
X462465Y305635D02*
X467545D01*
X462465Y365635D02*
X467545D01*
X463805Y315635D02*
X458725D01*
X463805Y375635D02*
X458725D01*
X465635Y313805D02*
Y308725D01*
Y317465D02*
Y322545D01*
Y373805D02*
Y368725D01*
Y377465D02*
Y382545D01*
X466635Y327405D02*
Y322325D01*
Y349865D02*
Y354945D01*
X467465Y315635D02*
X472545D01*
X467465Y375635D02*
X472545D01*
X469341Y304341D02*
X465749Y300749D01*
X469341Y306929D02*
X465749Y310521D01*
X469341Y364341D02*
X465749Y360749D01*
X469341Y366929D02*
X465749Y370521D01*
X471929Y304341D02*
X475521Y300749D01*
X471929Y306929D02*
X475521Y310521D01*
X471929Y364341D02*
X475521Y360749D01*
X471929Y366929D02*
X475521Y370521D01*
X474341Y314341D02*
X470749Y310749D01*
X474341Y316929D02*
X470749Y320521D01*
X474341Y374341D02*
X470749Y370749D01*
X474341Y376929D02*
X470749Y380521D01*
X476929Y314341D02*
X480521Y310749D01*
X476929Y316929D02*
X480521Y320521D01*
X476929Y374341D02*
X480521Y370749D01*
X476929Y376929D02*
X480521Y380521D01*
X487865Y338635D02*
X492945D01*
X551523Y348523D02*
X547931Y344931D01*
X551523Y358747D02*
X547931Y362339D01*
X561747Y348523D02*
X565339Y344931D01*
X561747Y358747D02*
X565339Y362339D01*
D02*
D70*
X381635Y338635D02*
D03*
X466635D02*
D03*
D02*
D20*
X356135Y112385D02*
D03*
X371635D02*
D03*
X396385Y91885D02*
D03*
X398285Y242535D02*
D03*
Y260635D02*
D03*
X411885Y91885D02*
D03*
X413785Y242535D02*
D03*
Y260635D02*
D03*
X449085Y242535D02*
D03*
X464585D02*
D03*
X623885Y152635D02*
D03*
Y186635D02*
D03*
X639385Y152635D02*
D03*
Y186635D02*
D03*
D02*
D22*
X536635Y353635D02*
D03*
X556635D02*
D03*
D02*
D25*
X355235Y209385D02*
D03*
Y224885D02*
D03*
X355635Y173385D02*
D03*
Y188885D02*
D03*
X355885Y133185D02*
D03*
Y148685D02*
D03*
X500635Y95885D02*
D03*
Y111385D02*
D03*
X504635Y151885D02*
D03*
Y167385D02*
D03*
D02*
D27*
X460635Y30635D02*
D03*
X485635D02*
D03*
X510635D02*
D03*
X535635D02*
D03*
X560635D02*
D03*
D02*
D75*
X528945Y204935D02*
X547635D01*
X528945Y230335D02*
Y235945D01*
X532635Y239635*
X528945Y230335D02*
X543935D01*
X547635Y226635*
Y204935*
X553335*
X564635Y193635*
Y179635*
Y161135*
X571635Y154135*
X584825*
Y179535D02*
Y179635D01*
X564635*
X595635Y119035D02*
X603035D01*
X611635Y127635*
Y147135*
X604635Y154135*
X584825*
X595635Y119035D02*
X610235D01*
X614635Y114635*
Y83635*
X604635Y73635*
X588635*
X560635Y45635*
Y30635*
D02*
D83*
X70635Y107635D02*
D03*
Y169635D02*
D03*
Y231635D02*
D03*
Y293635D02*
D03*
D02*
D84*
X157017Y48673D02*
D03*
Y218673D02*
D03*
X204289Y48515D02*
D03*
Y218515D02*
D03*
X257017Y48673D02*
D03*
Y218673D02*
D03*
X304289Y48515D02*
D03*
Y218515D02*
D03*
D02*
D85*
X180635Y117625D02*
D03*
Y287625D02*
D03*
X280635Y117625D02*
D03*
Y287625D02*
D03*
D02*
D87*
X527635Y93635D02*
D03*
Y106335D02*
D03*
Y119035D02*
D03*
X595635Y93635D02*
D03*
Y119035D02*
D03*
D02*
D88*
X388635Y111635D02*
D03*
X411635D02*
D03*
D02*
D98*
X446635Y104635D02*
D03*
X466635D02*
D03*
D02*
D106*
X151385Y69635D02*
Y69885D01*
X151635Y70135*
Y75635*
X154635Y78635*
X216635*
X221635Y73635*
X348885*
X363885Y88635*
Y127135*
X373635Y136885*
Y142385*
X376885Y145635*
X393335*
X159635Y241635D02*
X165385Y247385D01*
X374885*
X376635Y245635*
X180635Y117625D02*
X185645D01*
X225635Y77635*
X320635*
X334635Y91635*
Y125185*
X342635Y133185*
X355885*
X355235Y209385D02*
X361635D01*
X364635Y206385*
Y187885*
X367885Y184635*
X393335*
X355235Y224885D02*
X310659D01*
X304289Y218515*
X355235Y224885D02*
X363135D01*
X368635Y219385*
Y199635*
X370635Y197635*
X393335*
X355635Y173385D02*
X372385D01*
X355885Y148685D02*
X363685D01*
X367135Y152135*
Y160885*
X371385Y165135*
X393335*
X362135Y240385D02*
X268685D01*
X265885Y237585*
X369635Y73635D02*
X366635D01*
X362635Y69635*
X275635*
X270635Y64635*
Y63635*
X372385Y173385D02*
X374135Y171635D01*
X393335*
Y152135D02*
X373135D01*
X367885Y146885*
Y138685*
X362385Y133185*
X355885*
X393335Y158635D02*
X376135D01*
X393335Y191135D02*
X376385D01*
X393335Y204135D02*
X376635D01*
X459835Y158635D02*
X468635D01*
X475635Y151635*
Y140635*
X484635Y131635*
X506635*
X459835Y171635D02*
X472635D01*
X480635Y163635*
Y144635*
X482635Y142635*
X459835Y184635D02*
X472635D01*
X492635Y164635*
Y154635*
X476635Y197635D02*
X459835D01*
X482635Y204135D02*
X459835D01*
X492635Y142635D02*
X491635D01*
X484635Y149635*
Y166635*
X473135Y178135*
X459835*
X505635Y207635D02*
Y202235D01*
X515635Y192235*
X528945*
X506635Y131635D02*
X515635Y140635D01*
X528945*
Y141435*
X522635Y263745D02*
Y252635D01*
X526635Y248635*
X560635*
X568635Y240635*
Y208935*
X572635Y204935*
X584825*
X527635Y106335D02*
X515335D01*
X512635Y103635*
X528945Y166835D02*
X497635D01*
X473335Y191135*
X459835*
X528945Y217635D02*
X516635D01*
X511635Y222635*
X532135Y287745D02*
Y280135D01*
X527635Y275635*
X500635*
X494635Y269635*
Y206635*
X485635Y197635*
X476635*
X546635Y192635D02*
Y188635D01*
X554635Y180635*
Y154635*
X559635Y149635*
X564635*
X568635Y145635*
Y108635*
X562635Y102635*
Y70635*
X535635Y43635*
Y30635*
X562635Y140635D02*
Y109635D01*
X558635Y105635*
Y73635*
X541635Y56635*
X499635*
X485635Y42635*
Y30635*
X584825Y166835D02*
X596835D01*
X600635Y170635*
X584825Y192235D02*
X597235D01*
X603635Y198635*
X584825Y217635D02*
X599635D01*
X605635Y223635*
X584825Y230335D02*
Y247495D01*
X582635Y249685*
Y263745*
X592135Y287745D02*
Y301135D01*
X585635Y307635*
X515635*
X489635Y281635*
Y211135*
X482635Y204135*
X595635Y93635D02*
X585385D01*
X583635Y95385*
X568635*
X599635Y140635D02*
X585625D01*
X584825Y141435*
X623885Y152635D02*
X628635D01*
X631635Y155635*
Y233635*
X629635Y235635*
X602935*
X597635Y230335*
X584825*
X623885Y186635D02*
Y198385D01*
X614635Y207635*
X602335*
X599635Y204935*
X584825*
X639385Y152635D02*
X639635D01*
Y168635*
D02*
D107*
X513135Y287745D02*
D03*
X522635Y263745D02*
D03*
X532135Y287745D02*
D03*
X573135D02*
D03*
X582635Y263745D02*
D03*
X592135Y287745D02*
D03*
D02*
D124*
X30635Y30635D02*
D03*
Y370635D02*
D03*
X320635D02*
D03*
X350635Y30635D02*
D03*
X620635D02*
D03*
Y370635D02*
D03*
D02*
D125*
X393335Y132635D02*
D03*
Y139135D02*
D03*
Y145635D02*
D03*
Y152135D02*
D03*
Y158635D02*
D03*
Y165135D02*
D03*
Y171635D02*
D03*
Y178135D02*
D03*
Y184635D02*
D03*
Y191135D02*
D03*
Y197635D02*
D03*
Y204135D02*
D03*
Y210635D02*
D03*
Y217135D02*
D03*
X459835Y132635D02*
D03*
Y139135D02*
D03*
Y145635D02*
D03*
Y152135D02*
D03*
Y158635D02*
D03*
Y165135D02*
D03*
Y171635D02*
D03*
Y178135D02*
D03*
Y184635D02*
D03*
Y191135D02*
D03*
Y197635D02*
D03*
Y204135D02*
D03*
Y210635D02*
D03*
Y217135D02*
D03*
D02*
D126*
X426675Y174273D02*
D03*
D02*
D127*
X528945Y141435D02*
D03*
Y154135D02*
D03*
Y166835D02*
D03*
Y179535D02*
D03*
Y192235D02*
D03*
Y204935D02*
D03*
Y217635D02*
D03*
Y230335D02*
D03*
X584825Y141435D02*
D03*
Y154135D02*
D03*
Y166835D02*
D03*
Y179535D02*
D03*
Y192235D02*
D03*
Y204935D02*
D03*
Y217635D02*
D03*
Y230335D02*
D03*
D02*
D128*
X100635Y12635D02*
D03*
Y145635D02*
D03*
Y165635D02*
D03*
Y185635D02*
D03*
Y195635D02*
D03*
Y215635D02*
D03*
Y235635D02*
D03*
Y255635D02*
D03*
X105635Y22635D02*
D03*
Y155635D02*
D03*
Y175635D02*
D03*
Y225635D02*
D03*
Y245635D02*
D03*
X110635Y12635D02*
D03*
Y145635D02*
D03*
Y165635D02*
D03*
Y185635D02*
D03*
Y215635D02*
D03*
Y235635D02*
D03*
Y255635D02*
D03*
Y325635D02*
D03*
Y345635D02*
D03*
X115635Y22635D02*
D03*
Y205635D02*
D03*
Y335635D02*
D03*
Y355635D02*
D03*
X120635Y12635D02*
D03*
Y105635D02*
D03*
Y325635D02*
D03*
Y345635D02*
D03*
X125635Y22635D02*
D03*
Y95635D02*
D03*
Y115635D02*
D03*
Y205635D02*
D03*
Y335635D02*
D03*
Y355635D02*
D03*
X130635Y12635D02*
D03*
Y85635D02*
D03*
Y105635D02*
D03*
Y125635D02*
D03*
Y195635D02*
D03*
Y325635D02*
D03*
Y345635D02*
D03*
X135635Y22635D02*
D03*
Y95635D02*
D03*
Y115635D02*
D03*
Y185635D02*
D03*
Y205635D02*
D03*
Y335635D02*
D03*
Y355635D02*
D03*
X138885Y43635D02*
D03*
X140635Y12635D02*
D03*
Y85635D02*
D03*
Y105635D02*
D03*
Y125635D02*
D03*
Y195635D02*
D03*
Y222085D02*
D03*
Y325635D02*
D03*
Y345635D02*
D03*
X145635Y22635D02*
D03*
Y185635D02*
D03*
Y335635D02*
D03*
Y355635D02*
D03*
X150635Y12635D02*
D03*
Y195635D02*
D03*
Y325635D02*
D03*
Y345635D02*
D03*
X151385Y69635D02*
D03*
X155635Y22635D02*
D03*
Y185635D02*
D03*
Y335635D02*
D03*
Y355635D02*
D03*
X159635Y241635D02*
D03*
X160635Y12635D02*
D03*
Y195635D02*
D03*
Y325635D02*
D03*
Y345635D02*
D03*
X165635Y22635D02*
D03*
Y185635D02*
D03*
Y335635D02*
D03*
Y355635D02*
D03*
X170635Y12635D02*
D03*
Y195635D02*
D03*
Y325635D02*
D03*
Y345635D02*
D03*
X175635Y22635D02*
D03*
Y185635D02*
D03*
Y205635D02*
D03*
Y335635D02*
D03*
Y355635D02*
D03*
X180635Y12635D02*
D03*
Y195635D02*
D03*
Y215635D02*
D03*
Y325635D02*
D03*
Y345635D02*
D03*
X185635Y22635D02*
D03*
Y185635D02*
D03*
Y205635D02*
D03*
Y335635D02*
D03*
Y355635D02*
D03*
X190635Y12635D02*
D03*
Y195635D02*
D03*
Y215635D02*
D03*
Y325635D02*
D03*
Y345635D02*
D03*
X195635Y22635D02*
D03*
Y185635D02*
D03*
Y335635D02*
D03*
Y355635D02*
D03*
X200635Y12635D02*
D03*
Y195635D02*
D03*
Y325635D02*
D03*
Y345635D02*
D03*
X205635Y22635D02*
D03*
Y185635D02*
D03*
Y335635D02*
D03*
Y355635D02*
D03*
X210635Y12635D02*
D03*
Y195635D02*
D03*
Y325635D02*
D03*
Y345635D02*
D03*
X215635Y22635D02*
D03*
Y335635D02*
D03*
Y355635D02*
D03*
X220635Y12635D02*
D03*
Y325635D02*
D03*
Y345635D02*
D03*
X225635Y22635D02*
D03*
Y335635D02*
D03*
Y355635D02*
D03*
X230635Y12635D02*
D03*
Y155635D02*
D03*
Y175635D02*
D03*
Y325635D02*
D03*
Y345635D02*
D03*
X235635Y22635D02*
D03*
Y165635D02*
D03*
Y335635D02*
D03*
Y355635D02*
D03*
X240635Y12635D02*
D03*
Y155635D02*
D03*
Y175635D02*
D03*
Y325635D02*
D03*
Y345635D02*
D03*
X244385Y222085D02*
D03*
X245385Y47385D02*
D03*
X245635Y22635D02*
D03*
Y165635D02*
D03*
Y335635D02*
D03*
Y355635D02*
D03*
X250635Y12635D02*
D03*
Y155635D02*
D03*
Y175635D02*
D03*
Y325635D02*
D03*
Y345635D02*
D03*
X255635Y22635D02*
D03*
Y165635D02*
D03*
Y335635D02*
D03*
Y355635D02*
D03*
X260635Y12635D02*
D03*
Y155635D02*
D03*
Y175635D02*
D03*
Y325635D02*
D03*
Y345635D02*
D03*
X265635Y22635D02*
D03*
Y165635D02*
D03*
Y335635D02*
D03*
Y355635D02*
D03*
X265885Y237585D02*
D03*
X270635Y12635D02*
D03*
Y63635D02*
D03*
Y155635D02*
D03*
Y175635D02*
D03*
Y325635D02*
D03*
Y345635D02*
D03*
X275635Y22635D02*
D03*
Y165635D02*
D03*
Y335635D02*
D03*
Y355635D02*
D03*
X280635Y12635D02*
D03*
Y155635D02*
D03*
Y175635D02*
D03*
Y325635D02*
D03*
Y345635D02*
D03*
X285635Y22635D02*
D03*
Y165635D02*
D03*
Y335635D02*
D03*
Y355635D02*
D03*
X290635Y12635D02*
D03*
Y155635D02*
D03*
Y175635D02*
D03*
Y325635D02*
D03*
X295635Y22635D02*
D03*
Y165635D02*
D03*
Y335635D02*
D03*
X300635Y12635D02*
D03*
Y155635D02*
D03*
Y175635D02*
D03*
Y325635D02*
D03*
X305635Y22635D02*
D03*
Y165635D02*
D03*
Y335635D02*
D03*
X310635Y12635D02*
D03*
Y155635D02*
D03*
Y175635D02*
D03*
Y325635D02*
D03*
X315635Y22635D02*
D03*
Y165635D02*
D03*
Y335635D02*
D03*
X320635Y155635D02*
D03*
Y175635D02*
D03*
Y325635D02*
D03*
X325635Y165635D02*
D03*
Y335635D02*
D03*
X330635Y325635D02*
D03*
X340635Y89635D02*
D03*
Y100635D02*
D03*
Y111635D02*
D03*
Y175635D02*
D03*
Y186635D02*
D03*
Y197635D02*
D03*
X341635Y233635D02*
D03*
X353635Y88635D02*
D03*
Y99635D02*
D03*
X362135Y240385D02*
D03*
X369635Y73635D02*
D03*
X371635Y225635D02*
D03*
X372385Y173385D02*
D03*
X376135Y158635D02*
D03*
X376385Y191135D02*
D03*
X376635Y204135D02*
D03*
Y215635D02*
D03*
Y245635D02*
D03*
X380635Y12635D02*
D03*
Y266635D02*
D03*
X385635Y22635D02*
D03*
Y94635D02*
D03*
X390635Y12635D02*
D03*
Y32635D02*
D03*
X395635Y22635D02*
D03*
Y42635D02*
D03*
X400635Y12635D02*
D03*
Y32635D02*
D03*
X405635Y22635D02*
D03*
Y42635D02*
D03*
X410635Y12635D02*
D03*
Y32635D02*
D03*
X415635Y22635D02*
D03*
Y42635D02*
D03*
X420635Y32635D02*
D03*
Y135635D02*
D03*
Y145635D02*
D03*
Y155635D02*
D03*
Y165635D02*
D03*
Y175635D02*
D03*
Y185635D02*
D03*
Y195635D02*
D03*
Y205635D02*
D03*
Y215635D02*
D03*
X425635Y42635D02*
D03*
X430635Y135635D02*
D03*
Y145635D02*
D03*
Y155635D02*
D03*
Y165635D02*
D03*
Y175635D02*
D03*
Y185635D02*
D03*
Y195635D02*
D03*
Y205635D02*
D03*
Y215635D02*
D03*
X440635Y305635D02*
D03*
Y365635D02*
D03*
X445635Y315635D02*
D03*
Y375635D02*
D03*
X450635Y305635D02*
D03*
Y365635D02*
D03*
X455635Y315635D02*
D03*
Y375635D02*
D03*
X460635Y305635D02*
D03*
Y365635D02*
D03*
X465635Y315635D02*
D03*
Y375635D02*
D03*
X470635Y305635D02*
D03*
Y365635D02*
D03*
X474635Y161635D02*
D03*
X475635Y315635D02*
D03*
Y375635D02*
D03*
X476635Y197635D02*
D03*
X482635Y142635D02*
D03*
Y204135D02*
D03*
X483635Y261635D02*
D03*
X486635Y90635D02*
D03*
X492635Y142635D02*
D03*
Y154635D02*
D03*
X494635Y120635D02*
D03*
X499635Y282635D02*
D03*
X500635Y83635D02*
D03*
X501635Y139135D02*
D03*
X505635Y207635D02*
D03*
X506635Y131635D02*
D03*
X511635Y222635D02*
D03*
X512635Y103635D02*
D03*
X532635Y239635D02*
D03*
X546635Y192635D02*
D03*
X562635Y140635D02*
D03*
X568635Y95385D02*
D03*
X599635Y140635D02*
D03*
X600635Y170635D02*
D03*
X603635Y198635D02*
D03*
X605635Y223635D02*
D03*
X639385Y203635D02*
D03*
X639635Y168635D02*
D03*
D02*
D129*
X140635Y222085D02*
X153605D01*
X157017Y218673*
Y48673D02*
X143923D01*
X138885Y43635*
X204289Y218515D02*
Y194289D01*
X180635Y170635*
Y117625*
X257017Y48673D02*
X246673D01*
X245385Y47385*
X257017Y218673D02*
Y220967D01*
X258135Y222085*
X244385*
X330635Y295635D02*
Y260635D01*
X335635Y255635*
X380635*
X387635Y248635*
Y232335*
X393335Y226635*
Y217135*
X330635Y325635D02*
Y295635D01*
X371635Y112385D02*
Y115688D01*
X372582Y116635*
Y124582*
X378635Y130635*
Y137135*
X380635Y139135*
X393335*
X380635Y266635D02*
X339635D01*
X330635Y275635*
Y295635*
X388635Y111635D02*
X379385D01*
X378635Y112385*
X371635*
X393335Y210635D02*
X381635D01*
X376635Y215635*
X396385Y91885D02*
X388385D01*
X385635Y94635*
X398285Y260635D02*
Y269285D01*
X402635Y273635*
X471635*
X483635Y261635*
X411635Y111635D02*
Y92135D01*
X411885Y91885*
X413785Y242535D02*
X430635D01*
Y260635*
X413785*
X446635Y104635D02*
Y113635D01*
X451635Y118635*
X459835*
Y132635*
Y139135D02*
X469135D01*
X472635Y135635*
Y119385*
X466635Y113385*
Y104635*
X459835Y145635D02*
X426675D01*
Y174273*
X459835Y217135D02*
Y225935D01*
X455635Y230135*
X435385*
X430635Y234885*
Y242535*
X413785*
X464585D02*
X475485D01*
X478135Y239885*
Y214885*
X473885Y210635*
X459835*
X474635Y161635D02*
X474135D01*
X470635Y165135*
X459835*
X486635Y69635D02*
X400635D01*
X392635Y61635*
X315409*
X304289Y50515*
Y48515*
X486635Y90635D02*
Y69635D01*
X494635Y120635D02*
X485635D01*
X479635Y114635*
Y93635*
X473635Y87635*
X432635*
X424635Y95635*
Y116635*
X418635Y122635*
X392635*
X388635Y118635*
Y111635*
X500635Y83635D02*
Y95885D01*
X513385*
X515635Y93635*
X527635*
X500635Y111385D02*
X491385D01*
X486635Y106635*
Y90635*
X500635Y111385D02*
X509985D01*
X517635Y119035*
X527635*
X504635Y151885D02*
Y142135D01*
X501635Y139135*
X513135Y287745D02*
X504745D01*
X499635Y282635*
X528945Y154135D02*
X548635D01*
Y175535*
X544635Y179535*
X528945*
Y154135D02*
X548635D01*
Y83635*
X534635Y69635*
X486635*
X573135Y287745D02*
Y297135D01*
X568635Y301635*
X518635*
X513635Y296635*
Y288245*
X513135Y287745*
X639385Y186635D02*
Y203635D01*
X0Y0D02*
M02*
