G04 EasyPC Gerber Version 21.0.3 Build 4286 *
G04 #@! TF.Part,Single*
G04 #@! TF.FileFunction,Soldermask,Bot *
G04 #@! TF.FilePolarity,Negative *
%FSLAX34Y34*%
%MOMM*%
%ADD70R,0.65000X1.00000*%
G04 #@! TA.AperFunction,SMDPad*
%ADD138R,1.39000X1.40000*%
%ADD137R,3.36000X4.86000*%
%ADD136R,0.75000X0.50000*%
G04 #@! TD.AperFunction*
%ADD71R,1.00000X0.65000*%
G04 #@! TA.AperFunction,SMDPad*
%ADD134R,2.20000X0.80000*%
%ADD135R,1.90000X1.10000*%
G04 #@! TD.AperFunction*
%ADD15C,1.70000*%
G04 #@! TA.AperFunction,ComponentPad*
%ADD124C,1.80000*%
%ADD131C,3.50000*%
G04 #@! TA.AperFunction,WasherPad*
%ADD120C,5.50000*%
X0Y0D02*
D02*
D15*
X536635Y353635D02*
D03*
X556635D02*
D03*
D02*
D70*
X568885Y140635D02*
D03*
X572885Y210635D02*
D03*
Y230635D02*
D03*
X573885Y179635D02*
D03*
X584385Y140635D02*
D03*
X588385Y210635D02*
D03*
Y230635D02*
D03*
X589385Y179635D02*
D03*
X622885Y223635D02*
D03*
X623885Y169635D02*
D03*
Y203635D02*
D03*
X638385Y223635D02*
D03*
X639385Y169635D02*
D03*
Y203635D02*
D03*
D02*
D71*
X129135Y43635D02*
D03*
Y59135D02*
D03*
X131385Y222085D02*
D03*
Y237585D02*
D03*
X147135Y43635D02*
D03*
Y59135D02*
D03*
X149385Y222085D02*
D03*
Y237585D02*
D03*
X235635Y47385D02*
D03*
Y62885D02*
D03*
Y222085D02*
D03*
Y237585D02*
D03*
X253635Y47385D02*
D03*
Y62885D02*
D03*
Y222085D02*
D03*
Y237585D02*
D03*
X457885Y171385D02*
D03*
Y186885D02*
D03*
X478635Y170885D02*
D03*
Y186385D02*
D03*
X496635Y170885D02*
D03*
Y186385D02*
D03*
X568635Y79885D02*
D03*
Y95385D02*
D03*
D02*
D120*
X30635Y30635D02*
D03*
Y370635D02*
D03*
X320635D02*
D03*
X350635Y30635D02*
D03*
X620635D02*
D03*
Y370635D02*
D03*
D02*
D124*
X460635Y30635D02*
D03*
X485635D02*
D03*
X510635D02*
D03*
X535635D02*
D03*
X560635D02*
D03*
D02*
D131*
X70635Y107635D02*
D03*
Y169635D02*
D03*
Y231635D02*
D03*
Y293635D02*
D03*
D02*
D134*
X596635Y268135D02*
D03*
Y283135D02*
D03*
Y298135D02*
D03*
Y313135D02*
D03*
D02*
D135*
X631135Y248385D02*
D03*
Y332635D02*
D03*
D02*
D136*
X461185Y99635D02*
D03*
Y107635D02*
D03*
Y115635D02*
D03*
Y123635D02*
D03*
X478685Y99635D02*
D03*
Y107635D02*
D03*
Y115635D02*
D03*
Y123635D02*
D03*
D02*
D137*
X200635Y100635D02*
D03*
Y270635D02*
D03*
X300635Y100635D02*
D03*
Y270635D02*
D03*
D02*
D138*
X191385Y60885D02*
D03*
Y230885D02*
D03*
X209885Y60885D02*
D03*
Y230885D02*
D03*
X291385Y60885D02*
D03*
Y230885D02*
D03*
X309885Y60885D02*
D03*
Y230885D02*
D03*
X0Y0D02*
M02*
