G04 EasyPC Gerber Version 21.0.3 Build 4286 *
G04 #@! TF.Part,Single*
G04 #@! TF.FileFunction,Copper,L1,Top *
G04 #@! TF.FilePolarity,Positive *
%FSLAX34Y34*%
%MOMM*%
%ADD70R,0.65000X1.00000*%
%ADD77R,0.80000X0.90000*%
%ADD29R,0.80000X1.00000*%
G04 #@! TA.AperFunction,SMDPad*
%ADD104R,0.90000X1.30000*%
%ADD129R,1.50000X2.50000*%
%ADD122R,3.00000X5.00000*%
%ADD130R,7.00000X7.00000*%
G04 #@! TD.AperFunction*
%ADD10C,0.12700*%
%ADD78C,0.16000*%
%ADD117C,0.32000*%
G04 #@! TA.AperFunction,ViaPad*
%ADD133C,0.62000*%
G04 #@! TD.AperFunction*
%ADD118C,0.63500*%
G04 #@! TA.AperFunction,SMDPad*
%ADD121R,1.65000X0.45000*%
%ADD108R,2.03200X0.63500*%
G04 #@! TD.AperFunction*
%ADD71R,1.00000X0.65000*%
%ADD93R,1.20000X0.80000*%
%ADD15C,1.70000*%
G04 #@! TA.AperFunction,ComponentPad*
%ADD124C,1.80000*%
%ADD131C,3.50000*%
G04 #@! TA.AperFunction,WasherPad*
%ADD120C,5.50000*%
G04 #@! TA.AperFunction,SMDPad*
%ADD132R,4.50000X2.50000*%
X0Y0D02*
D02*
D10*
X6985Y198764D02*
Y139385D01*
X116635*
X121385Y144135*
Y182635*
X105256Y198764*
X6985*
G36*
Y139385*
X116635*
X121385Y144135*
Y182635*
X105256Y198764*
X6985*
G37*
X222385Y236885D02*
X216385Y242885D01*
X172635*
X169385Y239635*
Y207385*
X166755Y204755*
Y203935*
X165935*
X164885Y202885*
X145635*
X135385Y213135*
Y221136*
G75*
G02Y223034I5253J949*
G01*
Y253385*
X126385Y262385*
X6985*
Y201635*
X108635*
X124635Y185635*
Y141635*
X116385Y133385*
Y89135*
X123885Y81635*
X154175*
G75*
G02X154638Y81670I460J-3004*
G01*
X216420*
X222385Y87635*
Y236885*
G36*
X216385Y242885*
X172635*
X169385Y239635*
Y207385*
X166755Y204755*
Y203935*
X165935*
X164885Y202885*
X145635*
X135385Y213135*
Y221136*
G75*
G02Y223034I5253J949*
G01*
Y253385*
X126385Y262385*
X6985*
Y201635*
X108635*
X124635Y185635*
Y141635*
X116385Y133385*
Y89135*
X123885Y81635*
X154175*
G75*
G02X154638Y81670I460J-3004*
G01*
X216420*
X222385Y87635*
Y236885*
G37*
X327885Y225135D02*
X317385Y235635D01*
X277385*
X271135Y229385*
Y204635*
X269385Y202885*
X241135*
X239635Y204385*
Y219656*
G75*
G02Y224514I4750J2429*
G01*
Y239135*
X237385Y241385*
X228385*
X226635Y239635*
Y86385*
X231635Y81385*
X319385*
X327885Y89885*
Y225135*
G36*
X317385Y235635*
X277385*
X271135Y229385*
Y204635*
X269385Y202885*
X241135*
X239635Y204385*
Y219656*
G75*
G02Y224514I4750J2429*
G01*
Y239135*
X237385Y241385*
X228385*
X226635Y239635*
Y86385*
X231635Y81385*
X319385*
X327885Y89885*
Y225135*
G37*
X332635Y85343D02*
Y82635D01*
X327070Y77070*
X347462*
X360450Y90058*
Y127135*
G75*
G02X360497Y127700I3435J-1*
G01*
X348650*
Y130150*
X343892*
X337670Y123928*
Y91635*
G75*
G02X336781Y89489I-3035*
G01*
X332635Y85343*
G36*
Y82635*
X327070Y77070*
X347462*
X360450Y90058*
Y127135*
G75*
G02X360497Y127700I3435J-1*
G01*
X348650*
Y130150*
X343892*
X337670Y123928*
Y91635*
G75*
G02X336781Y89489I-3035*
G01*
X332635Y85343*
G37*
Y221850D02*
Y127477D01*
X340489Y135331*
G75*
G02X342638Y136220I2146J-2146*
G01*
X348650*
Y138670*
X363120*
Y138212*
X364850Y139942*
Y145883*
G75*
G02X363682Y145650I-1166J2803*
G01*
X363120*
Y143200*
X348650*
Y154170*
X363120*
Y152412*
X364100Y153392*
Y160885*
G75*
G02X364989Y163031I3035*
G01*
X369239Y167281*
G75*
G02X371270Y168168I2146J-2146*
G01*
G75*
G02X367997Y170350I1115J5218*
G01*
X362870*
Y167900*
X348400*
Y178870*
X362870*
Y176420*
X367997*
G75*
G02X377563Y174670I4388J-3035*
G01*
X382850*
Y181600*
X367888*
G75*
G02X365739Y182489I-3J3035*
G01*
X362489Y185739*
G75*
G02X361600Y187885I2146J2146*
G01*
Y203900*
X348000*
Y214870*
X362470*
Y212303*
G75*
G02X363781Y211531I-835J-2918*
G01*
X365600Y209712*
Y218128*
X362470Y221258*
Y219400*
X348000*
Y221850*
X332635*
G36*
Y127477*
X340489Y135331*
G75*
G02X342638Y136220I2146J-2146*
G01*
X348650*
Y138670*
X363120*
Y138212*
X364850Y139942*
Y145883*
G75*
G02X363682Y145650I-1166J2803*
G01*
X363120*
Y143200*
X348650*
Y154170*
X363120*
Y152412*
X364100Y153392*
Y160885*
G75*
G02X364989Y163031I3035*
G01*
X369239Y167281*
G75*
G02X371270Y168168I2146J-2146*
G01*
G75*
G02X367997Y170350I1115J5218*
G01*
X362870*
Y167900*
X348400*
Y178870*
X362870*
Y176420*
X367997*
G75*
G02X377563Y174670I4388J-3035*
G01*
X382850*
Y181600*
X367888*
G75*
G02X365739Y182489I-3J3035*
G01*
X362489Y185739*
G75*
G02X361600Y187885I2146J2146*
G01*
Y203900*
X348000*
Y214870*
X362470*
Y212303*
G75*
G02X363781Y211531I-835J-2918*
G01*
X365600Y209712*
Y218128*
X362470Y221258*
Y219400*
X348000*
Y221850*
X332635*
G37*
X420635Y394285D02*
X338659D01*
G75*
G02X350370Y370635I-18024J-23650*
G01*
G75*
G02X290900I-29735*
G01*
G75*
G02X302611Y394285I29735*
G01*
X48659*
G75*
G02X60370Y370635I-18024J-23650*
G01*
G75*
G02X6985Y352611I-29735*
G01*
Y266135*
X128635*
X144385Y250385*
X164925*
G75*
G02X165388Y250420I460J-3004*
G01*
X337670*
X345385Y258135*
Y290385*
X365635Y310635*
X410635*
X420635Y320635*
Y394285*
G36*
X338659*
G75*
G02X350370Y370635I-18024J-23650*
G01*
G75*
G02X290900I-29735*
G01*
G75*
G02X302611Y394285I29735*
G01*
X48659*
G75*
G02X60370Y370635I-18024J-23650*
G01*
G75*
G02X6985Y352611I-29735*
G01*
Y266135*
X128635*
X144385Y250385*
X164925*
G75*
G02X165388Y250420I460J-3004*
G01*
X337670*
X345385Y258135*
Y290385*
X365635Y310635*
X410635*
X420635Y320635*
Y394285*
G37*
X445635Y83800D02*
X432635D01*
G75*
G02X429918Y84928J3835*
G01*
X421928Y92918*
G75*
G02X420800Y95635I2707J2717*
G01*
Y115047*
X417870Y117977*
Y104900*
X415870*
Y99120*
X417370*
Y84650*
X406400*
Y99120*
X407400*
Y104900*
X405400*
Y118370*
X417477*
X417047Y118800*
X394224*
X393794Y118370*
X394870*
Y104900*
X382400*
Y107800*
X379385*
G75*
G02X377120Y108540J3835*
G01*
Y105150*
X367320*
Y88635*
G75*
G02X366311Y86203I-3435*
G01*
X352778Y72670*
X361378*
X364489Y75781*
G75*
G02X364927Y76143I2145J-2149*
G01*
G75*
G02X374970Y73635I4708J-2508*
G01*
G75*
G02X366564Y69272I-5335*
G01*
X364781Y67489*
G75*
G02X362632Y66600I-2146J2146*
G01*
X280600*
X278635Y64635*
Y58635*
X276635Y56635*
X271635*
X268635Y53635*
Y36635*
X266755Y34755*
Y33935*
X265935*
X265635Y33635*
X244635*
X239635Y38635*
Y66635*
X237635Y68635*
X176635*
X171635Y63635*
Y35635*
X169635Y33635*
X138635*
X133635Y38635*
Y42686*
G75*
G02Y44584I5253J949*
G01*
Y78635*
X120635*
X112635Y86635*
Y135635*
X111755Y136515*
X6985*
Y6985*
X429985*
X430635Y7635*
Y54635*
X445635Y69635*
Y83800*
X390900Y99120D02*
X401870D01*
Y84650*
X390900*
Y88050*
X388385*
G75*
G02X385668Y89178J3835*
G01*
X385546Y89301*
G75*
G02X380300Y94635I89J5334*
G01*
G75*
G02X390859Y95720I5335*
G01*
X390900*
Y99120*
X422536Y92310D02*
G36*
X417370D01*
Y84650*
X406400*
Y92310*
X401870*
Y84650*
X390900*
Y88050*
X388385*
G75*
G02X385668Y89178I-1J3834*
G01*
X385546Y89301*
G75*
G02X380833Y92310I88J5333*
G01*
X367320*
Y88635*
G75*
G02Y88633I-3183J-1*
G01*
G75*
G02X366311Y86203I-3430*
G01*
X352778Y72670*
X361378*
X364489Y75781*
G75*
G02X364927Y76143I2223J-2244*
G01*
G75*
G02X374970Y73635I4708J-2508*
G01*
G75*
G02X366564Y69272I-5335*
G01*
X364781Y67489*
G75*
G02X362632Y66600I-2149J2152*
G01*
X280600*
X278635Y64635*
Y58635*
X276635Y56635*
X271635*
X268635Y53635*
Y36635*
X266755Y34755*
Y33935*
X265935*
X265635Y33635*
X244635*
X239635Y38635*
Y66635*
X237635Y68635*
X176635*
X171635Y63635*
Y35635*
X169635Y33635*
X138635*
X133635Y38635*
Y42686*
G75*
G02X133550Y43635I5255J949*
G01*
G75*
G02X133635Y44584I5340*
G01*
Y78635*
X120635*
X112635Y86635*
Y92310*
X7620*
Y7620*
X430620*
X430635Y7635*
Y54635*
X445000Y69000*
Y83800*
X432635*
G75*
G02X429918Y84928I-1J3834*
G01*
X422536Y92310*
G37*
X406400D02*
G36*
Y99120D01*
X407400*
Y104900*
X405400*
Y118370*
X417477*
X417047Y118800*
X394224*
X393794Y118370*
X394870*
Y104900*
X382400*
Y107800*
X379385*
G75*
G02X377120Y108540I3J3845*
G01*
Y105150*
X367320*
Y92310*
X380833*
G75*
G02X380300Y94634I4801J2324*
G01*
G75*
G02Y94635I5730J1*
G01*
G75*
G02X390859Y95720I5335*
G01*
X390900*
Y99120*
X401870*
Y92310*
X406400*
G37*
X112390Y135880D02*
G36*
X7620D01*
Y92310*
X112635*
Y135635*
X112390Y135880*
G37*
X422536Y92310D02*
G36*
X421928Y92918D01*
G75*
G02X420800Y95634I2706J2716*
G01*
G75*
G02Y95635I3581J1*
G01*
Y115047*
X417870Y117977*
Y104900*
X415870*
Y99120*
X417370*
Y92310*
X422536*
G37*
X445635Y91470D02*
Y95900D01*
X439900*
Y113370*
X442800*
Y113635*
G75*
G02X443928Y116352I3835*
G01*
X445635Y118059*
Y224635*
X447236Y226236*
X435388*
G75*
G02X432628Y227378I-3J3899*
G01*
X427878Y232128*
G75*
G02X426736Y234885I2757J2757*
G01*
Y238636*
X419270*
Y235300*
X408300*
Y249770*
X419270*
Y246434*
X426800*
Y256800*
X419270*
Y253400*
X408300*
Y267870*
X419270*
Y264470*
X430635*
G75*
G02X434470Y260635J-3835*
G01*
Y243239*
G75*
G02X434534Y242535I-3838J-704*
G01*
Y236500*
X437000Y234034*
X455034*
X455635Y234635*
Y261635*
X463800Y269800*
X404224*
X402294Y267870*
X403770*
Y253400*
X392800*
Y267870*
X394450*
Y269285*
G75*
G02X395578Y272002I3835*
G01*
X399918Y276342*
G75*
G02X402635Y277470I2717J-2707*
G01*
X471635*
G75*
G02X474024Y276635J-3835*
G01*
X476635*
X501635Y301635*
Y308635*
X507635Y314635*
X568635*
X576635Y322635*
Y391635*
X573985Y394285*
X426635*
Y320635*
X410635Y304635*
X368635*
X350635Y286635*
Y270470*
X376926*
G75*
G02X385970Y266635I3709J-3835*
G01*
G75*
G02X376926Y262800I-5335*
G01*
X350635*
Y259470*
X380627*
G75*
G02X383347Y258347I8J-3836*
G01*
X390347Y251347*
G75*
G02X391470Y248635I-2712J-2712*
G01*
G75*
G02Y248633I-1528J-1*
G01*
G75*
G02Y248627I-1542J-3*
G01*
Y233924*
X396042Y229352*
G75*
G02X397170Y226635I-2707J-2717*
G01*
Y221620*
X403820*
Y212650*
X382850*
Y221620*
X389500*
Y225047*
X384928Y229618*
G75*
G02X383800Y232335I2707J2717*
G01*
Y247046*
X379046Y251800*
X345800*
X344420Y250420*
X374276*
G75*
G02X381970Y245635I2359J-4785*
G01*
G75*
G02X371457Y244350I-5335*
G01*
X365704*
G75*
G02X367470Y240385I-3569J-3966*
G01*
G75*
G02X357747Y237350I-5335*
G01*
X332635*
Y227920*
X348000*
Y230370*
X362470*
Y227920*
X363132*
G75*
G02X365281Y227031I3J-3035*
G01*
X370781Y221531*
G75*
G02X371670Y219385I-2146J-2146*
G01*
Y206087*
G75*
G02X381023Y207170I4965J-1952*
G01*
X382850*
Y208620*
X403820*
Y128150*
X382850*
Y135300*
X382470*
Y130643*
G75*
G02Y130637I-1556J-3*
G01*
G75*
G02Y130635I-1570J-1*
G01*
G75*
G02X381347Y127923I-3835*
G01*
X376417Y122993*
Y119620*
X377120*
Y116220*
X378635*
G75*
G02X380913Y115470J-3835*
G01*
X382400*
Y118370*
X384800*
Y118627*
G75*
G02Y118633I1556J3*
G01*
G75*
G02Y118635I1570J1*
G01*
G75*
G02X385923Y121347I3835*
G01*
X389923Y125347*
G75*
G02X392643Y126470I2712J-2713*
G01*
X418635*
G75*
G02X421352Y125342J-3835*
G01*
X427342Y119352*
G75*
G02X428470Y116635I-2707J-2717*
G01*
Y97224*
X434224Y91470*
X445635*
X525900Y353635D02*
G75*
G02X547370I10735D01*
G01*
G75*
G02X525900I-10735*
G01*
X576000Y322000D02*
G36*
Y353635D01*
X547370*
G75*
G02X525900I-10735*
G01*
X426635*
Y320635*
X410635Y304635*
X368635*
X350635Y286635*
Y270470*
X376926*
G75*
G02X385970Y266636I3709J-3834*
G01*
G75*
G02Y266635I-11459*
G01*
G75*
G02Y266634I-11459*
G01*
G75*
G02X376926Y262800I-5335*
G01*
X350635*
Y259470*
X380627*
G75*
G02X383347Y258347I10J-3832*
G01*
X390347Y251347*
G75*
G02X391470Y248635I-2713J-2712*
G01*
Y248633*
Y248627*
Y233924*
X396042Y229352*
G75*
G02X397170Y226636I-2706J-2716*
G01*
G75*
G02Y226635I-3581*
G01*
Y221620*
X403820*
Y212650*
X382850*
Y221620*
X389500*
Y225047*
X384928Y229618*
G75*
G02X383800Y232334I2706J2716*
G01*
G75*
G02Y232335I3581J1*
G01*
Y247046*
X379046Y251800*
X345800*
X344420Y250420*
X374276*
G75*
G02X381970Y245635I2358J-4786*
G01*
G75*
G02X371457Y244350I-5335*
G01*
X365704*
G75*
G02X367470Y240385I-3574J-3968*
G01*
G75*
G02X357747Y237350I-5335*
G01*
X333270*
Y227920*
X348000*
Y230370*
X362470*
Y227920*
X363132*
G75*
G02X365281Y227031J-3041*
G01*
X370781Y221531*
G75*
G02X371670Y219385I-2147J-2147*
G01*
Y206087*
G75*
G02X381023Y207170I4965J-1952*
G01*
X382850*
Y208620*
X403820*
Y128150*
X382850*
Y135300*
X382470*
Y130643*
Y130637*
Y130635*
G75*
G02X381347Y127923I-3836*
G01*
X376417Y122993*
Y119620*
X377120*
Y116220*
X378635*
G75*
G02X380913Y115470I2J-3830*
G01*
X382400*
Y118370*
X384800*
Y118627*
Y118633*
Y118635*
G75*
G02X385923Y121347I3836*
G01*
X389923Y125347*
G75*
G02X392643Y126470I2710J-2709*
G01*
X418635*
G75*
G02X421352Y125342I1J-3834*
G01*
X427342Y119352*
G75*
G02X428470Y116636I-2706J-2716*
G01*
G75*
G02Y116635I-3581*
G01*
Y97224*
X433589Y92105*
X445635*
Y95900*
X439900*
Y113370*
X442800*
Y113635*
G75*
G02Y113636I3581J1*
G01*
G75*
G02X443928Y116352I3834*
G01*
X445635Y118059*
Y224635*
X447236Y226236*
X435388*
G75*
G02X432628Y227378I-5J3895*
G01*
X427878Y232128*
G75*
G02X426736Y234885I2760J2758*
G01*
Y238636*
X419270*
Y235300*
X408300*
Y249770*
X419270*
Y246434*
X426800*
Y256800*
X419270*
Y253400*
X408300*
Y267870*
X419270*
Y264470*
X430635*
G75*
G02X434470Y260636J-3834*
G01*
G75*
G02Y260635I-4775*
G01*
Y243239*
G75*
G02X434534Y242535I-3842J-704*
G01*
Y236500*
X437000Y234034*
X455034*
X455635Y234635*
Y261635*
X463800Y269800*
X404224*
X402294Y267870*
X403770*
Y253400*
X392800*
Y267870*
X394450*
Y269285*
G75*
G02Y269286I3581J1*
G01*
G75*
G02X395578Y272002I3834*
G01*
X399918Y276342*
G75*
G02X402635Y277470I2716J-2706*
G01*
X471635*
G75*
G02X474024Y276635I-2J-3841*
G01*
X476635*
X501635Y301635*
Y308635*
X507635Y314635*
X568635*
X576000Y322000*
G37*
Y392270D02*
G36*
X574620Y393650D01*
X426635*
Y353635*
X525900*
G75*
G02X547370I10735*
G01*
X576000*
Y392270*
G37*
D02*
D15*
X536635Y353635D02*
D03*
X556635D02*
D03*
D02*
D70*
X356135Y112385D02*
D03*
X371635D02*
D03*
X396385Y91885D02*
D03*
X398285Y242535D02*
D03*
Y260635D02*
D03*
X411885Y91885D02*
D03*
X413785Y242535D02*
D03*
Y260635D02*
D03*
X449085Y242535D02*
D03*
X464585D02*
D03*
X622885Y219635D02*
D03*
X623885Y152635D02*
D03*
Y186635D02*
D03*
X638385Y219635D02*
D03*
X639385Y152635D02*
D03*
Y186635D02*
D03*
D02*
D71*
X355235Y209385D02*
D03*
Y224885D02*
D03*
X355635Y173385D02*
D03*
Y188885D02*
D03*
X355885Y133185D02*
D03*
Y148685D02*
D03*
X500635Y95885D02*
D03*
Y111385D02*
D03*
X504635Y151885D02*
D03*
Y167385D02*
D03*
D02*
D29*
X513135Y287745D02*
D03*
X522635Y263745D02*
D03*
X532135Y287745D02*
D03*
X573135D02*
D03*
X582635Y263745D02*
D03*
X592135Y287745D02*
D03*
D02*
D77*
X388635Y111635D02*
D03*
X411635D02*
D03*
D02*
D78*
X151385Y69635D02*
Y69885D01*
X151635Y70135*
Y75635*
X154635Y78635*
X216635*
X221635Y73635*
X348885*
X363885Y88635*
Y127135*
X373635Y136885*
Y142385*
X376885Y145635*
X393335*
X159635Y241635D02*
X165385Y247385D01*
X374885*
X376635Y245635*
X180635Y117625D02*
X185645D01*
X225635Y77635*
X320635*
X334635Y91635*
Y125185*
X342635Y133185*
X355885*
X355235Y209385D02*
X361635D01*
X364635Y206385*
Y187885*
X367885Y184635*
X393335*
X355235Y224885D02*
X310659D01*
X304289Y218515*
X355235Y224885D02*
X363135D01*
X368635Y219385*
Y199635*
X370635Y197635*
X393335*
X355635Y173385D02*
X372385D01*
X355885Y148685D02*
X363685D01*
X367135Y152135*
Y160885*
X371385Y165135*
X393335*
X362135Y240385D02*
X268685D01*
X265885Y237585*
X369635Y73635D02*
X366635D01*
X362635Y69635*
X275635*
X270635Y64635*
Y63635*
X372385Y173385D02*
X374135Y171635D01*
X393335*
Y152135D02*
X373135D01*
X367885Y146885*
Y138685*
X362385Y133185*
X355885*
X393335Y158635D02*
X376135D01*
X393335Y191135D02*
X376385D01*
X393335Y204135D02*
X376635D01*
X459835Y158635D02*
X468635D01*
X475635Y151635*
Y140635*
X484635Y131635*
X506635*
X459835Y171635D02*
X472635D01*
X480635Y163635*
Y144635*
X482635Y142635*
X459835Y184635D02*
X472635D01*
X492635Y164635*
Y154635*
X476635Y197635D02*
X459835D01*
X482635Y204135D02*
X459835D01*
X492635Y142635D02*
X491635D01*
X484635Y149635*
Y166635*
X473135Y178135*
X459835*
X505635Y207635D02*
Y202235D01*
X515635Y192235*
X528945*
X506635Y131635D02*
X515635Y140635D01*
X528945*
Y141435*
X522635Y263745D02*
Y252635D01*
X526635Y248635*
X560635*
X568635Y240635*
Y208935*
X572635Y204935*
X584825*
X527635Y106335D02*
X515335D01*
X512635Y103635*
X528945Y166835D02*
X497635D01*
X473335Y191135*
X459835*
X528945Y217635D02*
X516635D01*
X511635Y222635*
X532135Y287745D02*
Y280135D01*
X527635Y275635*
X500635*
X494635Y269635*
Y206635*
X485635Y197635*
X476635*
X546635Y192635D02*
Y188635D01*
X554635Y180635*
Y154635*
X559635Y149635*
X564635*
X568635Y145635*
Y108635*
X562635Y102635*
Y70635*
X535635Y43635*
Y30635*
X562635Y140635D02*
Y109635D01*
X558635Y105635*
Y73635*
X541635Y56635*
X499635*
X485635Y42635*
Y30635*
X584825Y166835D02*
X596835D01*
X600635Y170635*
X584825Y192235D02*
X597235D01*
X603635Y198635*
X584825Y217635D02*
X599635D01*
X605635Y223635*
X584825Y230335D02*
Y247495D01*
X582635Y249685*
Y263745*
X592135Y287745D02*
Y301135D01*
X585635Y307635*
X515635*
X489635Y281635*
Y211135*
X482635Y204135*
X595635Y93635D02*
X585385D01*
X583635Y95385*
X568635*
X599635Y140635D02*
X585625D01*
X584825Y141435*
X623885Y152635D02*
X628635D01*
X631635Y155635*
Y233635*
X629635Y235635*
X602935*
X597635Y230335*
X584825*
X623885Y186635D02*
Y198385D01*
X614635Y207635*
X602335*
X599635Y204935*
X584825*
X639385Y152635D02*
X639635D01*
Y168635*
D02*
D93*
X527635Y93635D02*
D03*
Y106335D02*
D03*
Y119035D02*
D03*
X595635Y93635D02*
D03*
Y119035D02*
D03*
D02*
D104*
X446635Y104635D02*
D03*
X466635D02*
D03*
D02*
D108*
X528945Y141435D02*
D03*
Y154135D02*
D03*
Y166835D02*
D03*
Y179535D02*
D03*
Y192235D02*
D03*
Y204935D02*
D03*
Y217635D02*
D03*
Y230335D02*
D03*
X584825Y141435D02*
D03*
Y154135D02*
D03*
Y166835D02*
D03*
Y179535D02*
D03*
Y192235D02*
D03*
Y204935D02*
D03*
Y217635D02*
D03*
Y230335D02*
D03*
D02*
D117*
X140635Y222085D02*
X153605D01*
X157017Y218673*
Y48673D02*
X143923D01*
X138885Y43635*
X204289Y218515D02*
Y194289D01*
X180635Y170635*
Y117625*
X257017Y48673D02*
X246673D01*
X245385Y47385*
X257017Y218673D02*
Y220967D01*
X258135Y222085*
X244385*
X330635Y295635D02*
Y260635D01*
X335635Y255635*
X380635*
X387635Y248635*
Y232335*
X393335Y226635*
Y217135*
X330635Y325635D02*
Y295635D01*
X371635Y112385D02*
Y115688D01*
X372582Y116635*
Y124582*
X378635Y130635*
Y137135*
X380635Y139135*
X393335*
X380635Y266635D02*
X339635D01*
X330635Y275635*
Y295635*
X388635Y111635D02*
X379385D01*
X378635Y112385*
X371635*
X393335Y210635D02*
X381635D01*
X376635Y215635*
X396385Y91885D02*
X388385D01*
X385635Y94635*
X398285Y260635D02*
Y269285D01*
X402635Y273635*
X471635*
X483635Y261635*
X411635Y111635D02*
Y92135D01*
X411885Y91885*
X413785Y242535D02*
X430635D01*
Y260635*
X413785*
X446635Y104635D02*
Y113635D01*
X451635Y118635*
X459835*
Y132635*
Y139135D02*
X469135D01*
X472635Y135635*
Y119385*
X466635Y113385*
Y104635*
X459835Y145635D02*
X426675D01*
Y174273*
X459835Y217135D02*
Y225935D01*
X455635Y230135*
X435385*
X430635Y234885*
Y242535*
X413785*
X464585D02*
X475485D01*
X478135Y239885*
Y214885*
X473885Y210635*
X459835*
X474635Y161635D02*
X474135D01*
X470635Y165135*
X459835*
X486635Y69635D02*
X400635D01*
X392635Y61635*
X315409*
X304289Y50515*
Y48515*
X486635Y90635D02*
Y69635D01*
X494635Y120635D02*
X485635D01*
X479635Y114635*
Y93635*
X473635Y87635*
X432635*
X424635Y95635*
Y116635*
X418635Y122635*
X392635*
X388635Y118635*
Y111635*
X500635Y83635D02*
Y95885D01*
X513385*
X515635Y93635*
X527635*
X500635Y111385D02*
X491385D01*
X486635Y106635*
Y90635*
X500635Y111385D02*
X509985D01*
X517635Y119035*
X527635*
X504635Y151885D02*
Y142135D01*
X501635Y139135*
X513135Y287745D02*
X504745D01*
X499635Y282635*
X528945Y154135D02*
X548635D01*
Y175535*
X544635Y179535*
X528945*
Y154135D02*
X548635D01*
Y83635*
X534635Y69635*
X486635*
X573135Y287745D02*
Y297135D01*
X568635Y301635*
X518635*
X513635Y296635*
Y288245*
X513135Y287745*
X605635Y242635D02*
Y269635D01*
X599635Y275635*
X576135*
X573135Y278635*
Y287745*
X613635Y216635D02*
Y217635D01*
X615635Y219635*
X622885*
X638385D02*
X639385Y186635*
Y203635D01*
D02*
D118*
X528945Y204935D02*
X547635D01*
X528945Y230335D02*
Y235945D01*
X532635Y239635*
X528945Y230335D02*
X543935D01*
X547635Y226635*
Y204935*
X553335*
X564635Y193635*
Y179635*
Y161135*
X571635Y154135*
X584825*
Y179535D02*
Y179635D01*
X564635*
X595635Y119035D02*
X603035D01*
X611635Y127635*
Y147135*
X604635Y154135*
X584825*
X595635Y119035D02*
X610235D01*
X614635Y114635*
Y83635*
X604635Y73635*
X588635*
X560635Y45635*
Y30635*
D02*
D120*
X30635D02*
D03*
Y370635D02*
D03*
X320635D02*
D03*
X350635Y30635D02*
D03*
X620635D02*
D03*
Y370635D02*
D03*
D02*
D121*
X393335Y132635D02*
D03*
Y139135D02*
D03*
Y145635D02*
D03*
Y152135D02*
D03*
Y158635D02*
D03*
Y165135D02*
D03*
Y171635D02*
D03*
Y178135D02*
D03*
Y184635D02*
D03*
Y191135D02*
D03*
Y197635D02*
D03*
Y204135D02*
D03*
Y210635D02*
D03*
Y217135D02*
D03*
X459835Y132635D02*
D03*
Y139135D02*
D03*
Y145635D02*
D03*
Y152135D02*
D03*
Y158635D02*
D03*
Y165135D02*
D03*
Y171635D02*
D03*
Y178135D02*
D03*
Y184635D02*
D03*
Y191135D02*
D03*
Y197635D02*
D03*
Y204135D02*
D03*
Y210635D02*
D03*
Y217135D02*
D03*
D02*
D122*
X426675Y174273D02*
D03*
D02*
D124*
X460635Y30635D02*
D03*
X485635D02*
D03*
X510635D02*
D03*
X535635D02*
D03*
X560635D02*
D03*
D02*
D129*
X157017Y48673D02*
D03*
Y218673D02*
D03*
X204289Y48515D02*
D03*
Y218515D02*
D03*
X257017Y48673D02*
D03*
Y218673D02*
D03*
X304289Y48515D02*
D03*
Y218515D02*
D03*
D02*
D130*
X180635Y117625D02*
D03*
Y287625D02*
D03*
X280635Y117625D02*
D03*
Y287625D02*
D03*
D02*
D131*
X70635Y107635D02*
D03*
Y169635D02*
D03*
Y231635D02*
D03*
Y293635D02*
D03*
D02*
D132*
X381635Y338635D02*
D03*
X466635D02*
D03*
D02*
D133*
X100635Y12635D02*
D03*
Y145635D02*
D03*
Y165635D02*
D03*
Y185635D02*
D03*
Y195635D02*
D03*
Y215635D02*
D03*
Y235635D02*
D03*
Y255635D02*
D03*
X105635Y22635D02*
D03*
Y155635D02*
D03*
Y175635D02*
D03*
Y225635D02*
D03*
Y245635D02*
D03*
X110635Y12635D02*
D03*
Y145635D02*
D03*
Y165635D02*
D03*
Y185635D02*
D03*
Y215635D02*
D03*
Y235635D02*
D03*
Y255635D02*
D03*
Y325635D02*
D03*
Y345635D02*
D03*
X115635Y22635D02*
D03*
Y205635D02*
D03*
Y335635D02*
D03*
Y355635D02*
D03*
X120635Y12635D02*
D03*
Y105635D02*
D03*
Y325635D02*
D03*
Y345635D02*
D03*
X125635Y22635D02*
D03*
Y95635D02*
D03*
Y115635D02*
D03*
Y205635D02*
D03*
Y335635D02*
D03*
Y355635D02*
D03*
X130635Y12635D02*
D03*
Y85635D02*
D03*
Y105635D02*
D03*
Y125635D02*
D03*
Y195635D02*
D03*
Y325635D02*
D03*
Y345635D02*
D03*
X135635Y22635D02*
D03*
Y95635D02*
D03*
Y115635D02*
D03*
Y185635D02*
D03*
Y205635D02*
D03*
Y335635D02*
D03*
Y355635D02*
D03*
X138885Y43635D02*
D03*
X140635Y12635D02*
D03*
Y85635D02*
D03*
Y105635D02*
D03*
Y125635D02*
D03*
Y195635D02*
D03*
Y222085D02*
D03*
Y325635D02*
D03*
Y345635D02*
D03*
X145635Y22635D02*
D03*
Y185635D02*
D03*
Y335635D02*
D03*
Y355635D02*
D03*
X150635Y12635D02*
D03*
Y195635D02*
D03*
Y325635D02*
D03*
Y345635D02*
D03*
X151385Y69635D02*
D03*
X155635Y22635D02*
D03*
Y185635D02*
D03*
Y335635D02*
D03*
Y355635D02*
D03*
X159635Y241635D02*
D03*
X160635Y12635D02*
D03*
Y195635D02*
D03*
Y325635D02*
D03*
Y345635D02*
D03*
X165635Y22635D02*
D03*
Y185635D02*
D03*
Y335635D02*
D03*
Y355635D02*
D03*
X170635Y12635D02*
D03*
Y195635D02*
D03*
Y325635D02*
D03*
Y345635D02*
D03*
X175635Y22635D02*
D03*
Y185635D02*
D03*
Y205635D02*
D03*
Y335635D02*
D03*
Y355635D02*
D03*
X180635Y12635D02*
D03*
Y195635D02*
D03*
Y215635D02*
D03*
Y325635D02*
D03*
Y345635D02*
D03*
X185635Y22635D02*
D03*
Y185635D02*
D03*
Y205635D02*
D03*
Y335635D02*
D03*
Y355635D02*
D03*
X190635Y12635D02*
D03*
Y195635D02*
D03*
Y215635D02*
D03*
Y325635D02*
D03*
Y345635D02*
D03*
X195635Y22635D02*
D03*
Y185635D02*
D03*
Y335635D02*
D03*
Y355635D02*
D03*
X200635Y12635D02*
D03*
Y195635D02*
D03*
Y325635D02*
D03*
Y345635D02*
D03*
X205635Y22635D02*
D03*
Y185635D02*
D03*
Y335635D02*
D03*
Y355635D02*
D03*
X210635Y12635D02*
D03*
Y195635D02*
D03*
Y325635D02*
D03*
Y345635D02*
D03*
X215635Y22635D02*
D03*
Y335635D02*
D03*
Y355635D02*
D03*
X220635Y12635D02*
D03*
Y325635D02*
D03*
Y345635D02*
D03*
X225635Y22635D02*
D03*
Y335635D02*
D03*
Y355635D02*
D03*
X230635Y12635D02*
D03*
Y155635D02*
D03*
Y175635D02*
D03*
Y325635D02*
D03*
Y345635D02*
D03*
X235635Y22635D02*
D03*
Y165635D02*
D03*
Y335635D02*
D03*
Y355635D02*
D03*
X240635Y12635D02*
D03*
Y155635D02*
D03*
Y175635D02*
D03*
Y325635D02*
D03*
Y345635D02*
D03*
X244385Y222085D02*
D03*
X245385Y47385D02*
D03*
X245635Y22635D02*
D03*
Y165635D02*
D03*
Y335635D02*
D03*
Y355635D02*
D03*
X250635Y12635D02*
D03*
Y155635D02*
D03*
Y175635D02*
D03*
Y325635D02*
D03*
Y345635D02*
D03*
X255635Y22635D02*
D03*
Y165635D02*
D03*
Y335635D02*
D03*
Y355635D02*
D03*
X260635Y12635D02*
D03*
Y155635D02*
D03*
Y175635D02*
D03*
Y325635D02*
D03*
Y345635D02*
D03*
X265635Y22635D02*
D03*
Y165635D02*
D03*
Y335635D02*
D03*
Y355635D02*
D03*
X265885Y237585D02*
D03*
X270635Y12635D02*
D03*
Y63635D02*
D03*
Y155635D02*
D03*
Y175635D02*
D03*
Y325635D02*
D03*
Y345635D02*
D03*
X275635Y22635D02*
D03*
Y165635D02*
D03*
Y335635D02*
D03*
Y355635D02*
D03*
X280635Y12635D02*
D03*
Y155635D02*
D03*
Y175635D02*
D03*
Y325635D02*
D03*
Y345635D02*
D03*
X285635Y22635D02*
D03*
Y165635D02*
D03*
Y335635D02*
D03*
Y355635D02*
D03*
X290635Y12635D02*
D03*
Y155635D02*
D03*
Y175635D02*
D03*
Y325635D02*
D03*
X295635Y22635D02*
D03*
Y165635D02*
D03*
Y335635D02*
D03*
X300635Y12635D02*
D03*
Y155635D02*
D03*
Y175635D02*
D03*
Y325635D02*
D03*
X305635Y22635D02*
D03*
Y165635D02*
D03*
Y335635D02*
D03*
X310635Y12635D02*
D03*
Y155635D02*
D03*
Y175635D02*
D03*
Y325635D02*
D03*
X315635Y22635D02*
D03*
Y165635D02*
D03*
Y335635D02*
D03*
X320635Y155635D02*
D03*
Y175635D02*
D03*
Y325635D02*
D03*
X325635Y165635D02*
D03*
Y335635D02*
D03*
X330635Y325635D02*
D03*
X340635Y89635D02*
D03*
Y100635D02*
D03*
Y111635D02*
D03*
Y175635D02*
D03*
Y186635D02*
D03*
Y197635D02*
D03*
X341635Y233635D02*
D03*
X353635Y88635D02*
D03*
Y99635D02*
D03*
X362135Y240385D02*
D03*
X369635Y73635D02*
D03*
X371635Y225635D02*
D03*
X372385Y173385D02*
D03*
X376135Y158635D02*
D03*
X376385Y191135D02*
D03*
X376635Y204135D02*
D03*
Y215635D02*
D03*
Y245635D02*
D03*
X380635Y12635D02*
D03*
Y266635D02*
D03*
X385635Y22635D02*
D03*
Y94635D02*
D03*
X390635Y12635D02*
D03*
Y32635D02*
D03*
X395635Y22635D02*
D03*
Y42635D02*
D03*
X400635Y12635D02*
D03*
Y32635D02*
D03*
X405635Y22635D02*
D03*
Y42635D02*
D03*
X410635Y12635D02*
D03*
Y32635D02*
D03*
X415635Y22635D02*
D03*
Y42635D02*
D03*
X420635Y32635D02*
D03*
Y135635D02*
D03*
Y145635D02*
D03*
Y155635D02*
D03*
Y165635D02*
D03*
Y175635D02*
D03*
Y185635D02*
D03*
Y195635D02*
D03*
Y205635D02*
D03*
Y215635D02*
D03*
X425635Y42635D02*
D03*
X430635Y135635D02*
D03*
Y145635D02*
D03*
Y155635D02*
D03*
Y165635D02*
D03*
Y175635D02*
D03*
Y185635D02*
D03*
Y195635D02*
D03*
Y205635D02*
D03*
Y215635D02*
D03*
X440635Y305635D02*
D03*
Y365635D02*
D03*
X445635Y315635D02*
D03*
Y375635D02*
D03*
X450635Y305635D02*
D03*
Y365635D02*
D03*
X455635Y315635D02*
D03*
Y375635D02*
D03*
X460635Y305635D02*
D03*
Y365635D02*
D03*
X465635Y315635D02*
D03*
Y375635D02*
D03*
X470635Y305635D02*
D03*
Y365635D02*
D03*
X474635Y161635D02*
D03*
X475635Y315635D02*
D03*
Y375635D02*
D03*
X476635Y197635D02*
D03*
X482635Y142635D02*
D03*
Y204135D02*
D03*
X483635Y261635D02*
D03*
X486635Y90635D02*
D03*
X492635Y142635D02*
D03*
Y154635D02*
D03*
X494635Y120635D02*
D03*
X499635Y282635D02*
D03*
X500635Y83635D02*
D03*
X501635Y139135D02*
D03*
X505635Y207635D02*
D03*
X506635Y131635D02*
D03*
X511635Y222635D02*
D03*
X512635Y103635D02*
D03*
X532635Y239635D02*
D03*
X546635Y192635D02*
D03*
X562635Y140635D02*
D03*
X568635Y95385D02*
D03*
X599635Y140635D02*
D03*
X600635Y170635D02*
D03*
X603635Y198635D02*
D03*
X605635Y223635D02*
D03*
Y242635D02*
D03*
X613635Y216635D02*
D03*
X638385Y219635D02*
D03*
X639385Y203635D02*
D03*
X639635Y168635D02*
D03*
X0Y0D02*
M02*
