%FSLAX34Y34*%
%MOMM*%
G04 EasyPC Gerber Version 18.0.6 Build 3620 *
%ADD20R,0.65000X1.00000*%
%ADD88R,0.80000X0.90000*%
%ADD107R,0.80000X1.00000*%
%ADD98R,0.90000X1.30000*%
%ADD84R,1.50000X2.50000*%
%ADD126R,3.00000X5.00000*%
%ADD85R,7.00000X7.00000*%
%ADD22C,1.70000*%
%ADD27C,1.80000*%
%ADD83C,3.50000*%
%ADD124C,5.50000*%
%ADD125R,1.65000X0.45000*%
%ADD127R,2.03200X0.63500*%
%ADD25R,1.00000X0.65000*%
%ADD87R,1.20000X0.80000*%
%ADD70R,4.50000X2.50000*%
X0Y0D02*
D02*
D70*
X381635Y338635D02*
D03*
X466635D02*
D03*
D02*
D20*
X356135Y112385D02*
D03*
X371635D02*
D03*
X396385Y91885D02*
D03*
X398285Y242535D02*
D03*
Y260635D02*
D03*
X411885Y91885D02*
D03*
X413785Y242535D02*
D03*
Y260635D02*
D03*
X449085Y242535D02*
D03*
X464585D02*
D03*
X623885Y152635D02*
D03*
Y186635D02*
D03*
X639385Y152635D02*
D03*
Y186635D02*
D03*
D02*
D22*
X536635Y353635D02*
D03*
X556635D02*
D03*
D02*
D25*
X355235Y209385D02*
D03*
Y224885D02*
D03*
X355635Y173385D02*
D03*
Y188885D02*
D03*
X355885Y133185D02*
D03*
Y148685D02*
D03*
X500635Y95885D02*
D03*
Y111385D02*
D03*
X504635Y151885D02*
D03*
Y167385D02*
D03*
D02*
D27*
X460635Y30635D02*
D03*
X485635D02*
D03*
X510635D02*
D03*
X535635D02*
D03*
X560635D02*
D03*
D02*
D83*
X70635Y107635D02*
D03*
Y169635D02*
D03*
Y231635D02*
D03*
Y293635D02*
D03*
D02*
D84*
X157017Y48673D02*
D03*
Y218673D02*
D03*
X204289Y48515D02*
D03*
Y218515D02*
D03*
X257017Y48673D02*
D03*
Y218673D02*
D03*
X304289Y48515D02*
D03*
Y218515D02*
D03*
D02*
D85*
X180635Y117625D02*
D03*
Y287625D02*
D03*
X280635Y117625D02*
D03*
Y287625D02*
D03*
D02*
D87*
X527635Y93635D02*
D03*
Y106335D02*
D03*
Y119035D02*
D03*
X595635Y93635D02*
D03*
Y119035D02*
D03*
D02*
D88*
X388635Y111635D02*
D03*
X411635D02*
D03*
D02*
D98*
X446635Y104635D02*
D03*
X466635D02*
D03*
D02*
D107*
X513135Y287745D02*
D03*
X522635Y263745D02*
D03*
X532135Y287745D02*
D03*
X573135D02*
D03*
X582635Y263745D02*
D03*
X592135Y287745D02*
D03*
D02*
D124*
X30635Y30635D02*
D03*
Y370635D02*
D03*
X320635D02*
D03*
X350635Y30635D02*
D03*
X620635D02*
D03*
Y370635D02*
D03*
D02*
D125*
X393335Y132635D02*
D03*
Y139135D02*
D03*
Y145635D02*
D03*
Y152135D02*
D03*
Y158635D02*
D03*
Y165135D02*
D03*
Y171635D02*
D03*
Y178135D02*
D03*
Y184635D02*
D03*
Y191135D02*
D03*
Y197635D02*
D03*
Y204135D02*
D03*
Y210635D02*
D03*
Y217135D02*
D03*
X459835Y132635D02*
D03*
Y139135D02*
D03*
Y145635D02*
D03*
Y152135D02*
D03*
Y158635D02*
D03*
Y165135D02*
D03*
Y171635D02*
D03*
Y178135D02*
D03*
Y184635D02*
D03*
Y191135D02*
D03*
Y197635D02*
D03*
Y204135D02*
D03*
Y210635D02*
D03*
Y217135D02*
D03*
D02*
D126*
X426675Y174273D02*
D03*
D02*
D127*
X528945Y141435D02*
D03*
Y154135D02*
D03*
Y166835D02*
D03*
Y179535D02*
D03*
Y192235D02*
D03*
Y204935D02*
D03*
Y217635D02*
D03*
Y230335D02*
D03*
X584825Y141435D02*
D03*
Y154135D02*
D03*
Y166835D02*
D03*
Y179535D02*
D03*
Y192235D02*
D03*
Y204935D02*
D03*
Y217635D02*
D03*
Y230335D02*
D03*
X0Y0D02*
M02*
