G04 EasyPC Gerber Version 21.0.3 Build 4286 *
G04 #@! TF.Part,Single*
G04 #@! TF.FileFunction,Legend,Bot *
G04 #@! TF.FilePolarity,Positive *
%FSLAX34Y34*%
%MOMM*%
%ADD80C,0.02540*%
%ADD10C,0.12700*%
X0Y0D02*
D02*
D10*
X121595Y37845D02*
Y64925D01*
X136675*
Y37845*
X121595*
X123845Y216295D02*
Y243375D01*
X138925*
Y216295*
X123845*
X154675Y64925D02*
Y37845D01*
X139595*
Y64925*
X154675*
X156925Y243375D02*
Y216295D01*
X141845*
Y243375*
X156925*
X220885Y62635D02*
X180885D01*
Y116635*
X220885*
Y62635*
Y232635D02*
X180885D01*
Y286635*
X220885*
Y232635*
X243175Y68675D02*
Y41595D01*
X228095*
Y68675*
X243175*
Y243375D02*
Y216295D01*
X228095*
Y243375*
X243175*
X246095Y41595D02*
Y68675D01*
X261175*
Y41595*
X246095*
Y216295D02*
Y243375D01*
X261175*
Y216295*
X246095*
X320885Y62635D02*
X280885D01*
Y116635*
X320885*
Y62635*
Y232635D02*
X280885D01*
Y286635*
X320885*
Y232635*
X450345Y165595D02*
Y192675D01*
X465425*
Y165595*
X450345*
X471095Y165095D02*
Y192175D01*
X486175*
Y165095*
X471095*
X477885Y95635D02*
Y127635D01*
X461885*
Y95635*
X477885*
X489095Y165095D02*
Y192175D01*
X504175*
Y165095*
X489095*
X561095Y74095D02*
Y101175D01*
X576175*
Y74095*
X561095*
X563095Y148175D02*
X590175D01*
Y133095*
X563095*
Y148175*
X568095Y187175D02*
X595175D01*
Y172095*
X568095*
Y187175*
X590635Y245635D02*
Y255635D01*
X600635*
Y325635*
X590635*
Y335635*
X650635*
Y245635*
X590635*
X594175Y203095D02*
X567095D01*
Y218175*
X594175*
Y203095*
Y223095D02*
X567095D01*
Y238175*
X594175*
Y223095*
X617095Y231175D02*
X644175D01*
Y216095*
X617095*
Y231175*
X645175Y162095D02*
X618095D01*
Y177175*
X645175*
Y162095*
Y196095D02*
X618095D01*
Y211175*
X645175*
Y196095*
D02*
D80*
X480020Y76069D02*
Y69858D01*
X480030Y69516*
X480049Y69194*
X480088Y68881*
X480147Y68578*
X480215Y68295*
X480293Y68022*
X480391Y67758*
X480508Y67504*
X480674Y67211*
X480869Y66928*
X481084Y66655*
X481328Y66401*
X481602Y66147*
X481895Y65903*
X482217Y65678*
X482569Y65463*
X482930Y65268*
X483321Y65092*
X483721Y64955*
X484131Y64828*
X484571Y64740*
X485020Y64672*
X485489Y64633*
X485967Y64623*
X486367Y64633*
X486758Y64653*
X487149Y64692*
X487510Y64750*
X487871Y64819*
X488223Y64906*
X488565Y65004*
X488897Y65131*
X489141Y65229*
X489385Y65346*
X489610Y65473*
X489834Y65610*
X490049Y65766*
X490254Y65932*
X490449Y66108*
X490645Y66303*
X490830Y66508*
X490996Y66723*
X491153Y66947*
X491299Y67182*
X491436Y67426*
X491553Y67690*
X491670Y67953*
X491768Y68237*
X491826Y68451*
X491885Y68696*
X491934Y68949*
X491973Y69233*
X492002Y69526*
X492022Y69828*
X492041Y70160*
Y70512*
Y76069*
X491436*
Y74926*
X491426Y74731*
X491406Y74565*
X491358Y74428*
X491299Y74330*
X491221Y74262*
X491123Y74203*
X491006Y74174*
X490869Y74164*
X481182*
X481055Y74174*
X480957Y74213*
X480860Y74262*
X480772Y74340*
X480713Y74438*
X480664Y74555*
X480635Y74692*
X480625Y74838*
Y76069*
X480020*
X480625Y71713D02*
X480635Y71879D01*
X480664Y72026*
X480713Y72153*
X480781Y72250*
X480869Y72328*
X480977Y72377*
X481104Y72416*
X481240Y72426*
X490840*
X490977Y72416*
X491104Y72377*
X491201Y72309*
X491289Y72221*
X491348Y72104*
X491397Y71947*
X491426Y71762*
X491436Y71528*
Y70502*
X491426Y70170*
X491397Y69838*
X491338Y69526*
X491260Y69223*
X491162Y68920*
X491035Y68637*
X490899Y68364*
X490733Y68100*
X490606Y67934*
X490469Y67787*
X490323Y67641*
X490166Y67504*
X489990Y67387*
X489805Y67270*
X489610Y67172*
X489405Y67074*
X489102Y66967*
X488770Y66869*
X488418Y66781*
X488028Y66713*
X487617Y66664*
X487178Y66625*
X486709Y66606*
X486211Y66596*
X485840*
X485489Y66615*
X485147Y66635*
X484815Y66664*
X484492Y66694*
X484180Y66742*
X483887Y66801*
X483604Y66860*
X483340Y66928*
X483086Y67006*
X482842Y67094*
X482608Y67182*
X482383Y67289*
X482178Y67397*
X481983Y67514*
X481807Y67641*
X481533Y67885*
X481289Y68149*
X481084Y68442*
X480918Y68764*
X480791Y69115*
X480703Y69496*
X480645Y69906*
X480625Y70346*
Y71713*
X480020Y63080D02*
Y57543D01*
X480625*
Y58490*
Y58647*
X480635Y58783*
X480645Y58901*
X480664Y59008*
X480684Y59096*
X480713Y59174*
X480752Y59242*
X480781Y59291*
X480830Y59330*
X480889Y59360*
X480957Y59389*
X481035Y59418*
X481123Y59438*
X481221Y59447*
X481328Y59457*
X481455*
X490567*
X490694*
X490811Y59447*
X490918Y59438*
X491006Y59418*
X491084Y59399*
X491153Y59379*
X491211Y59350*
X491250Y59311*
X491289Y59262*
X491328Y59194*
X491367Y59125*
X491387Y59037*
X491406Y58940*
X491426Y58842*
X491436Y58725*
Y58608*
Y57543*
X492041*
Y63080*
X491436*
Y62035*
Y61899*
X491426Y61781*
X491416Y61674*
X491397Y61576*
X491377Y61498*
X491348Y61420*
X491309Y61362*
X491270Y61322*
X491231Y61283*
X491172Y61244*
X491094Y61215*
X491016Y61196*
X490918Y61176*
X490811Y61166*
X490694Y61156*
X490567*
X481455*
X481328*
X481221Y61166*
X481123Y61176*
X481035Y61196*
X480957Y61215*
X480899Y61235*
X480850Y61264*
X480811Y61303*
X480772Y61362*
X480733Y61440*
X480703Y61528*
X480674Y61625*
X480655Y61733*
X480635Y61860*
X480625Y61996*
Y62143*
Y63080*
X480020*
Y56498D02*
Y50287D01*
X480030Y49858*
X480069Y49438*
X480137Y49057*
X480225Y48686*
X480342Y48354*
X480479Y48041*
X480645Y47758*
X480840Y47494*
X481055Y47260*
X481289Y47055*
X481533Y46889*
X481787Y46742*
X482071Y46635*
X482364Y46557*
X482666Y46518*
X482998Y46498*
X483194Y46508*
X483379Y46518*
X483565Y46557*
X483750Y46596*
X483926Y46655*
X484092Y46723*
X484258Y46801*
X484414Y46889*
X484571Y46996*
X484707Y47114*
X484844Y47240*
X484971Y47377*
X485098Y47524*
X485205Y47680*
X485313Y47846*
X485410Y48031*
X485498Y48227*
X485576Y48451*
X485655Y48705*
X485723Y48989*
X485791Y49291*
X485840Y49623*
X485899Y49985*
X485938Y50365*
X486016Y50092*
X486094Y49828*
X486172Y49594*
X486250Y49389*
X486328Y49194*
X486406Y49028*
X486485Y48891*
X486563Y48764*
X486719Y48559*
X486905Y48373*
X487119Y48207*
X487344Y48061*
X487481Y47992*
X487656Y47924*
X487852Y47856*
X488086Y47778*
X488340Y47699*
X488633Y47621*
X488965Y47543*
X489317Y47455*
X489571Y47397*
X489805Y47328*
X490020Y47270*
X490215Y47201*
X490381Y47143*
X490528Y47074*
X490664Y47006*
X490772Y46938*
X490899Y46830*
X490987Y46723*
X491045Y46606*
X491065Y46489*
X491055Y46420*
X491045Y46362*
X491016Y46303*
X490977Y46244*
X490918Y46186*
X490860Y46127*
X490781Y46069*
X490694Y46020*
X490596Y45971*
X490479Y45922*
X490342Y45883*
X490186Y45844*
X490020Y45815*
X489824Y45795*
X489619Y45766*
X489395Y45756*
Y45199*
X489727Y45229*
X490039Y45268*
X490332Y45317*
X490606Y45385*
X490850Y45463*
X491084Y45561*
X491289Y45668*
X491465Y45785*
X491631Y45922*
X491768Y46069*
X491885Y46225*
X491983Y46401*
X492061Y46596*
X492119Y46791*
X492149Y47006*
X492158Y47240*
X492139Y47524*
X492080Y47787*
X491992Y48041*
X491856Y48266*
X491690Y48471*
X491485Y48647*
X491250Y48793*
X490977Y48920*
X490908Y48940*
X490840Y48959*
X490762Y48989*
X490664Y49008*
X490557Y49028*
X490449Y49057*
X490323Y49076*
X490176Y49096*
X490030Y49125*
X489873Y49145*
X489698Y49174*
X489512Y49194*
X489326Y49223*
X489121Y49252*
X488906Y49272*
X488672Y49301*
X488418Y49330*
X488174Y49369*
X487949Y49408*
X487754Y49457*
X487569Y49506*
X487412Y49565*
X487266Y49623*
X487139Y49692*
X486924Y49838*
X486729Y50024*
X486563Y50248*
X486406Y50512*
X486289Y50805*
X486201Y51127*
X486153Y51479*
X486133Y51850*
Y52836*
X490860*
X490996Y52826*
X491114Y52797*
X491211Y52748*
X491280Y52680*
X491348Y52572*
X491397Y52436*
X491426Y52270*
X491436Y52074*
Y50922*
X492041*
Y56498*
X491436*
Y55317*
X491426Y55141*
X491397Y54985*
X491348Y54848*
X491280Y54750*
X491201Y54662*
X491104Y54614*
X490987Y54574*
X490860Y54565*
X481240*
X481104Y54574*
X480977Y54614*
X480869Y54672*
X480781Y54750*
X480713Y54858*
X480664Y54985*
X480635Y55141*
X480625Y55317*
Y56498*
X480020*
X485547Y52836D02*
Y51410D01*
X485537Y51069*
X485518Y50737*
X485469Y50424*
X485410Y50141*
X485332Y49867*
X485244Y49614*
X485137Y49389*
X485010Y49174*
X484864Y48979*
X484688Y48822*
X484483Y48676*
X484258Y48569*
X484004Y48481*
X483721Y48412*
X483418Y48373*
X483086Y48364*
X482852*
X482637Y48383*
X482432Y48403*
X482237Y48442*
X482051Y48481*
X481885Y48539*
X481729Y48598*
X481582Y48666*
X481455Y48744*
X481328Y48832*
X481221Y48920*
X481123Y49018*
X481035Y49125*
X480957Y49233*
X480889Y49350*
X480830Y49467*
X480781Y49604*
X480742Y49780*
X480703Y49975*
X480674Y50209*
X480655Y50463*
X480635Y50756*
X480625Y51069*
Y51420*
Y51645*
X480635Y51860*
X480645Y52035*
X480664Y52201*
X480674Y52338*
X480703Y52446*
X480733Y52543*
X480762Y52612*
X480840Y52709*
X480938Y52778*
X481065Y52826*
X481221Y52836*
X485547*
X489395Y45219D02*
X489616D01*
X489395Y45457D02*
X490831D01*
X489395Y45695D02*
X491330D01*
X490505Y45933D02*
X491641D01*
X490903Y46171D02*
X491845D01*
X491053Y46409D02*
X491986D01*
X482039Y46647D02*
X483902D01*
X491025D02*
X492076D01*
X481533Y46885D02*
X484408D01*
X490834D02*
X492132D01*
X481211Y47123D02*
X484717D01*
X490424D02*
X492154D01*
X480962Y47361D02*
X484956D01*
X489693D02*
X492150D01*
X480762Y47599D02*
X485149D01*
X488727D02*
X492122D01*
X480599Y47837D02*
X485307D01*
X487909D02*
X492063D01*
X480464Y48075D02*
X485430D01*
X487322D02*
X491971D01*
X480360Y48313D02*
X485528D01*
X486982D02*
X491818D01*
X480273Y48551D02*
X481853D01*
X484206D02*
X485607D01*
X486727D02*
X491597D01*
X480201Y48789D02*
X481390D01*
X484642D02*
X485675D01*
X486548D02*
X491259D01*
X480144Y49027D02*
X481116D01*
X484900D02*
X485732D01*
X486406D02*
X490561D01*
X480100Y49265D02*
X480938D01*
X485064D02*
X485785D01*
X486300D02*
X488981D01*
X480063Y49503D02*
X480817D01*
X485191D02*
X485822D01*
X486207D02*
X487577D01*
X480041Y49741D02*
X480751D01*
X485288D02*
X485859D01*
X486123D02*
X487067D01*
X480027Y49979D02*
X480703D01*
X485364D02*
X485898D01*
X486049D02*
X486776D01*
X480022Y50217D02*
X480673D01*
X485426D02*
X485923D01*
X485980D02*
X486586D01*
X480020Y50455D02*
X480656D01*
X485474D02*
X486440D01*
X480020Y50693D02*
X480639D01*
X485511D02*
X486334D01*
X480020Y50931D02*
X480629D01*
X485529D02*
X486255D01*
X491436D02*
X492041D01*
X480020Y51169D02*
X480625D01*
X485540D02*
X486195D01*
X491436D02*
X492041D01*
X480020Y51407D02*
X480625D01*
X485547D02*
X486163D01*
X491436D02*
X492041D01*
X480020Y51645D02*
X480625D01*
X485547D02*
X486144D01*
X491436D02*
X492041D01*
X480020Y51883D02*
X480636D01*
X485547D02*
X486133D01*
X491436D02*
X492041D01*
X480020Y52121D02*
X480655D01*
X485547D02*
X486133D01*
X491434D02*
X492041D01*
X480020Y52359D02*
X480680D01*
X485547D02*
X486133D01*
X491410D02*
X492041D01*
X480020Y52597D02*
X480756D01*
X485547D02*
X486133D01*
X491332D02*
X492041D01*
X480020Y52835D02*
X492041D01*
X480020Y53073D02*
X492041D01*
X480020Y53311D02*
X492041D01*
X480020Y53549D02*
X492041D01*
X480020Y53787D02*
X492041D01*
X480020Y54025D02*
X492041D01*
X480020Y54263D02*
X492041D01*
X480020Y54501D02*
X492041D01*
X480020Y54739D02*
X480793D01*
X491270D02*
X492041D01*
X480020Y54977D02*
X480667D01*
X491394D02*
X492041D01*
X480020Y55215D02*
X480631D01*
X491430D02*
X492041D01*
X480020Y55453D02*
X480625D01*
X491436D02*
X492041D01*
X480020Y55691D02*
X480625D01*
X491436D02*
X492041D01*
X480020Y55929D02*
X480625D01*
X491436D02*
X492041D01*
X480020Y56167D02*
X480625D01*
X491436D02*
X492041D01*
X480020Y56405D02*
X480625D01*
X491436D02*
X492041D01*
X480020Y57595D02*
X480625D01*
X491436D02*
X492041D01*
X480020Y57833D02*
X480625D01*
X491436D02*
X492041D01*
X480020Y58071D02*
X480625D01*
X491436D02*
X492041D01*
X480020Y58309D02*
X480625D01*
X491436D02*
X492041D01*
X480020Y58547D02*
X480625D01*
X491436D02*
X492041D01*
X480020Y58785D02*
X480635D01*
X491431D02*
X492041D01*
X480020Y59023D02*
X480667D01*
X491390D02*
X492041D01*
X480020Y59261D02*
X480763D01*
X491289D02*
X492041D01*
X480020Y59499D02*
X492041D01*
X480020Y59737D02*
X492041D01*
X480020Y59975D02*
X492041D01*
X480020Y60213D02*
X492041D01*
X480020Y60451D02*
X492041D01*
X480020Y60689D02*
X492041D01*
X480020Y60927D02*
X492041D01*
X480020Y61165D02*
X481231D01*
X490811D02*
X492041D01*
X480020Y61403D02*
X480751D01*
X491337D02*
X492041D01*
X480020Y61641D02*
X480671D01*
X491410D02*
X492041D01*
X480020Y61879D02*
X480634D01*
X491434D02*
X492041D01*
X480020Y62117D02*
X480625D01*
X491436D02*
X492041D01*
X480020Y62355D02*
X480625D01*
X491436D02*
X492041D01*
X480020Y62593D02*
X480625D01*
X491436D02*
X492041D01*
X480020Y62831D02*
X480625D01*
X491436D02*
X492041D01*
X480020Y63069D02*
X480625D01*
X491436D02*
X492041D01*
X484604Y64735D02*
X487417D01*
X483668Y64973D02*
X488457D01*
X483057Y65211D02*
X489096D01*
X482595Y65449D02*
X489567D01*
X482204Y65687D02*
X489940D01*
X481869Y65925D02*
X490245D01*
X481585Y66163D02*
X490504D01*
X481328Y66401D02*
X490733D01*
X481099Y66639D02*
X485101D01*
X487336D02*
X490931D01*
X480909Y66877D02*
X483538D01*
X488797D02*
X491104D01*
X480740Y67115D02*
X482786D01*
X489491D02*
X491257D01*
X480594Y67353D02*
X482262D01*
X489936D02*
X491395D01*
X480468Y67591D02*
X481876D01*
X490266D02*
X491509D01*
X480365Y67829D02*
X481596D01*
X490508D02*
X491615D01*
X480280Y68067D02*
X481365D01*
X490708D02*
X491709D01*
X480213Y68305D02*
X481180D01*
X490862D02*
X491786D01*
X480155Y68543D02*
X481032D01*
X490988D02*
X491848D01*
X480107Y68781D02*
X480912D01*
X491100D02*
X491901D01*
X480071Y69019D02*
X480826D01*
X491194D02*
X491944D01*
X480045Y69257D02*
X480758D01*
X491269D02*
X491975D01*
X480031Y69495D02*
X480703D01*
X491330D02*
X491999D01*
X480024Y69733D02*
X480669D01*
X491377D02*
X492016D01*
X480020Y69971D02*
X480642D01*
X491409D02*
X492030D01*
X480020Y70209D02*
X480631D01*
X491427D02*
X492041D01*
X480020Y70447D02*
X480625D01*
X491434D02*
X492041D01*
X480020Y70685D02*
X480625D01*
X491436D02*
X492041D01*
X480020Y70923D02*
X480625D01*
X491436D02*
X492041D01*
X480020Y71161D02*
X480625D01*
X491436D02*
X492041D01*
X480020Y71399D02*
X480625D01*
X491436D02*
X492041D01*
X480020Y71637D02*
X480625D01*
X491431D02*
X492041D01*
X480020Y71875D02*
X480634D01*
X491408D02*
X492041D01*
X480020Y72113D02*
X480698D01*
X491343D02*
X492041D01*
X480020Y72351D02*
X480920D01*
X491141D02*
X492041D01*
X480020Y72589D02*
X492041D01*
X480020Y72827D02*
X492041D01*
X480020Y73065D02*
X492041D01*
X480020Y73303D02*
X492041D01*
X480020Y73541D02*
X492041D01*
X480020Y73779D02*
X492041D01*
X480020Y74017D02*
X492041D01*
X480020Y74255D02*
X480874D01*
X491209D02*
X492041D01*
X480020Y74493D02*
X480690D01*
X491381D02*
X492041D01*
X480020Y74731D02*
X480632D01*
X491426D02*
X492041D01*
X480020Y74969D02*
X480625D01*
X491436D02*
X492041D01*
X480020Y75207D02*
X480625D01*
X491436D02*
X492041D01*
X480020Y75445D02*
X480625D01*
X491436D02*
X492041D01*
X480020Y75683D02*
X480625D01*
X491436D02*
X492041D01*
X480020Y75921D02*
X480625D01*
X491436D02*
X492041D01*
X506020Y88000D02*
Y82063D01*
X506039Y81584*
X506078Y81125*
X506147Y80696*
X506244Y80295*
X506381Y79924*
X506537Y79592*
X506723Y79280*
X506928Y78996*
X507172Y78752*
X507426Y78537*
X507690Y78352*
X507983Y78205*
X508285Y78088*
X508617Y78010*
X508949Y77961*
X509311Y77942*
X509672Y77961*
X510004Y78000*
X510317Y78078*
X510610Y78186*
X510883Y78322*
X511127Y78489*
X511352Y78684*
X511557Y78918*
X511811Y79260*
X512026Y79621*
X512201Y80012*
X512358Y80412*
X512475Y80832*
X512553Y81281*
X512602Y81740*
X512621Y82219*
Y84367*
X516733*
X516899Y84358*
X517035Y84328*
X517153Y84270*
X517240Y84192*
X517328Y84074*
X517387Y83928*
X517426Y83772*
X517436Y83586*
Y82219*
X518041*
Y88000*
X517436*
Y86789*
X517426Y86623*
X517397Y86477*
X517358Y86360*
X517299Y86262*
X517221Y86194*
X517123Y86135*
X517026Y86106*
X516908Y86096*
X507319*
X507143Y86106*
X507006Y86145*
X506879Y86213*
X506791Y86311*
X506752Y86369*
X506713Y86438*
X506694Y86516*
X506664Y86614*
X506645Y86721*
X506635Y86838*
X506625Y86965*
Y87112*
Y88000*
X506020*
X512026Y84367D02*
Y82737D01*
X512016Y82356*
X511987Y82014*
X511938Y81692*
X511869Y81399*
X511772Y81135*
X511664Y80891*
X511528Y80676*
X511381Y80490*
X511205Y80334*
X511010Y80197*
X510776Y80071*
X510522Y79983*
X510248Y79905*
X509936Y79846*
X509604Y79817*
X509242Y79807*
X508998*
X508754Y79826*
X508539Y79846*
X508324Y79885*
X508139Y79924*
X507963Y79983*
X507797Y80041*
X507651Y80119*
X507387Y80285*
X507162Y80500*
X506977Y80744*
X506830Y81018*
X506762Y81184*
X506713Y81369*
X506664Y81574*
X506625Y81809*
X506596Y82072*
X506576Y82346*
X506557Y82658*
Y82981*
Y83205*
X506567Y83391*
X506586Y83567*
X506596Y83723*
X506625Y83850*
X506655Y83967*
X506694Y84055*
X506733Y84123*
X506830Y84231*
X506967Y84309*
X507123Y84348*
X507319Y84367*
X512026*
X506020Y77248D02*
Y73235D01*
X506625*
Y73518*
Y73664*
X506635Y73801*
Y73928*
X506655Y74035*
X506664Y74123*
X506684Y74201*
X506703Y74270*
X506723Y74319*
X506781Y74397*
X506850Y74446*
X506938Y74485*
X507035Y74494*
X507123Y74485*
X507231Y74465*
X507358Y74426*
X507504Y74367*
X507660Y74319*
X515287Y71877*
X508237Y69729*
X507953Y69826*
X507699Y69905*
X507475Y69992*
X507289Y70061*
X507123Y70129*
X506996Y70197*
X506899Y70256*
X506830Y70305*
X506781Y70364*
X506742Y70432*
X506703Y70510*
X506674Y70608*
X506655Y70705*
X506635Y70822*
X506625Y70959*
Y71096*
Y71828*
X506020*
Y66819*
X506625*
Y67336*
Y67492*
X506635Y67639*
X506645Y67776*
X506655Y67893*
X506674Y67990*
X506694Y68078*
X506713Y68156*
X506733Y68215*
X506801Y68303*
X506879Y68362*
X506967Y68401*
X507065Y68410*
X507240Y68401*
X507387Y68362*
X515287Y65881*
X508451Y63840*
X508256Y63781*
X508061Y63742*
X507875Y63723*
X507690Y63713*
X507436Y63733*
X507211Y63781*
X507026Y63860*
X506879Y63967*
X506772Y64104*
X506694Y64270*
X506645Y64475*
X506625Y64709*
Y65080*
X506020*
Y61311*
X506625*
X506664Y61545*
X506723Y61760*
X506781Y61936*
X506869Y62102*
X506967Y62239*
X507084Y62375*
X507211Y62492*
X507367Y62610*
X507455Y62658*
X507563Y62717*
X507670Y62766*
X507807Y62824*
X507944Y62883*
X508100Y62932*
X508276Y62990*
X508451Y63039*
X518324Y65998*
Y66574*
X509496Y69338*
X518324Y71985*
Y72590*
X507660Y75969*
X507504Y76028*
X507367Y76076*
X507250Y76135*
X507133Y76184*
X507035Y76242*
X506957Y76311*
X506879Y76369*
X506830Y76428*
X506742Y76574*
X506674Y76760*
X506635Y76985*
X506625Y77248*
X506020*
Y60930D02*
Y56916D01*
X515512Y53332*
X506020Y50041*
Y45930*
X506625*
Y46926*
Y47053*
X506635Y47170*
X506645Y47278*
X506664Y47375*
X506684Y47453*
X506713Y47531*
X506742Y47590*
X506781Y47639*
X506869Y47717*
X506996Y47776*
X507143Y47815*
X507319Y47824*
X516840*
X516977Y47815*
X517094Y47766*
X517201Y47697*
X517280Y47600*
X517319Y47541*
X517348Y47473*
X517377Y47395*
X517397Y47307*
X517416Y47209*
X517426Y47102*
X517436Y46975*
Y46848*
Y45930*
X518041*
Y51447*
X517436*
Y50422*
X517426Y50217*
X517397Y50031*
X517338Y49885*
X517270Y49768*
X517182Y49670*
X517084Y49602*
X516967Y49563*
X516840Y49553*
X506625*
X518041Y53518*
Y54065*
X506674Y58342*
X515424*
X515610*
X515785Y58332*
X515951Y58313*
X516098Y58293*
X516244Y58264*
X516371Y58235*
X516489Y58196*
X516586Y58147*
X516772Y58039*
X516928Y57912*
X517065Y57756*
X517182Y57590*
X517231Y57492*
X517270Y57375*
X517319Y57248*
X517348Y57112*
X517377Y56946*
X517406Y56780*
X517426Y56594*
X517436Y56389*
X518041*
Y60930*
X517436*
X517416Y60666*
X517377Y60412*
X517338Y60197*
X517280Y59992*
X517211Y59817*
X517143Y59660*
X517055Y59524*
X516957Y59416*
X516850Y59319*
X516713Y59240*
X516567Y59172*
X516391Y59114*
X516205Y59074*
X515990Y59045*
X515766Y59026*
X515512Y59016*
X507221*
X507074Y59026*
X506957Y59065*
X506850Y59123*
X506772Y59201*
X506733Y59250*
X506703Y59319*
X506684Y59387*
X506664Y59475*
X506645Y59563*
X506635Y59670*
X506625Y59778*
Y59905*
Y60930*
X506020*
Y46033D02*
X506625D01*
X517436D02*
X518041D01*
X506020Y46271D02*
X506625D01*
X517436D02*
X518041D01*
X506020Y46509D02*
X506625D01*
X517436D02*
X518041D01*
X506020Y46747D02*
X506625D01*
X517436D02*
X518041D01*
X506020Y46985D02*
X506625D01*
X517435D02*
X518041D01*
X506020Y47223D02*
X506640D01*
X517413D02*
X518041D01*
X506020Y47461D02*
X506687D01*
X517352D02*
X518041D01*
X506020Y47699D02*
X506849D01*
X517201D02*
X518041D01*
X506020Y47937D02*
X518041D01*
X506020Y48175D02*
X518041D01*
X506020Y48413D02*
X518041D01*
X506020Y48651D02*
X518041D01*
X506020Y48889D02*
X518041D01*
X506020Y49127D02*
X518041D01*
X506020Y49365D02*
X518041D01*
X506020Y49603D02*
X506769D01*
X517084D02*
X518041D01*
X506020Y49841D02*
X507454D01*
X517312D02*
X518041D01*
X506130Y50079D02*
X508139D01*
X517404D02*
X518041D01*
X506816Y50317D02*
X508825D01*
X517431D02*
X518041D01*
X507502Y50555D02*
X509510D01*
X517436D02*
X518041D01*
X508189Y50793D02*
X510195D01*
X517436D02*
X518041D01*
X508875Y51031D02*
X510880D01*
X517436D02*
X518041D01*
X509562Y51269D02*
X511566D01*
X517436D02*
X518041D01*
X510248Y51507D02*
X512251D01*
X510935Y51745D02*
X512936D01*
X511621Y51983D02*
X513621D01*
X512308Y52221D02*
X514307D01*
X512994Y52459D02*
X514992D01*
X513681Y52697D02*
X515677D01*
X514367Y52935D02*
X516362D01*
X515053Y53173D02*
X517048D01*
X515303Y53411D02*
X517733D01*
X514672Y53649D02*
X518041D01*
X514042Y53887D02*
X518041D01*
X513412Y54125D02*
X517882D01*
X512781Y54363D02*
X517249D01*
X512151Y54601D02*
X516616D01*
X511521Y54839D02*
X515984D01*
X510890Y55077D02*
X515351D01*
X510260Y55315D02*
X514719D01*
X509630Y55553D02*
X514086D01*
X508999Y55791D02*
X513454D01*
X508369Y56029D02*
X512821D01*
X507739Y56267D02*
X512189D01*
X507109Y56505D02*
X511556D01*
X517430D02*
X518041D01*
X506478Y56743D02*
X510924D01*
X517410D02*
X518041D01*
X506020Y56981D02*
X510291D01*
X517371D02*
X518041D01*
X506020Y57219D02*
X509659D01*
X517325D02*
X518041D01*
X506020Y57457D02*
X509026D01*
X517243D02*
X518041D01*
X506020Y57695D02*
X508394D01*
X517108D02*
X518041D01*
X506020Y57933D02*
X507761D01*
X516902D02*
X518041D01*
X506020Y58171D02*
X507128D01*
X516538D02*
X518041D01*
X506020Y58409D02*
X518041D01*
X506020Y58647D02*
X518041D01*
X506020Y58885D02*
X518041D01*
X506020Y59123D02*
X506850D01*
X516418D02*
X518041D01*
X506020Y59361D02*
X506691D01*
X516896D02*
X518041D01*
X506020Y59599D02*
X506642D01*
X517104D02*
X518041D01*
X506020Y59837D02*
X506625D01*
X517219D02*
X518041D01*
X506020Y60075D02*
X506625D01*
X517303D02*
X518041D01*
X506020Y60313D02*
X506625D01*
X517359D02*
X518041D01*
X506020Y60551D02*
X506625D01*
X517398D02*
X518041D01*
X506020Y60789D02*
X506625D01*
X517425D02*
X518041D01*
X506020Y61503D02*
X506657D01*
X506020Y61741D02*
X506718D01*
X506020Y61979D02*
X506804D01*
X506020Y62217D02*
X506951D01*
X506020Y62455D02*
X507171D01*
X506020Y62693D02*
X507519D01*
X506020Y62931D02*
X508097D01*
X506020Y63169D02*
X508885D01*
X506020Y63407D02*
X509679D01*
X506020Y63645D02*
X510473D01*
X506020Y63883D02*
X506994D01*
X508595D02*
X511267D01*
X506020Y64121D02*
X506764D01*
X509392D02*
X512061D01*
X506020Y64359D02*
X506673D01*
X510189D02*
X512855D01*
X506020Y64597D02*
X506635D01*
X510986D02*
X513649D01*
X506020Y64835D02*
X506625D01*
X511784D02*
X514444D01*
X506020Y65073D02*
X506625D01*
X512581D02*
X515238D01*
X513378Y65311D02*
X516032D01*
X514175Y65549D02*
X516826D01*
X514972Y65787D02*
X517620D01*
X514828Y66025D02*
X518324D01*
X514071Y66263D02*
X518324D01*
X513313Y66501D02*
X518324D01*
X512555Y66739D02*
X517797D01*
X506020Y66977D02*
X506625D01*
X511797D02*
X517037D01*
X506020Y67215D02*
X506625D01*
X511039D02*
X516277D01*
X506020Y67453D02*
X506625D01*
X510281D02*
X515517D01*
X506020Y67691D02*
X506639D01*
X509524D02*
X514756D01*
X506020Y67929D02*
X506662D01*
X508766D02*
X513996D01*
X506020Y68167D02*
X506717D01*
X508008D02*
X513236D01*
X506020Y68405D02*
X507011D01*
X507240D02*
X512476D01*
X506020Y68643D02*
X511716D01*
X506020Y68881D02*
X510956D01*
X506020Y69119D02*
X510195D01*
X506020Y69357D02*
X509559D01*
X506020Y69595D02*
X510353D01*
X506020Y69833D02*
X507930D01*
X508578D02*
X511147D01*
X506020Y70071D02*
X507265D01*
X509359D02*
X511941D01*
X506020Y70309D02*
X506827D01*
X510141D02*
X512734D01*
X506020Y70547D02*
X506692D01*
X510922D02*
X513528D01*
X506020Y70785D02*
X506641D01*
X511703D02*
X514322D01*
X506020Y71023D02*
X506625D01*
X512484D02*
X515116D01*
X506020Y71261D02*
X506625D01*
X513265D02*
X515909D01*
X506020Y71499D02*
X506625D01*
X514046D02*
X516703D01*
X506020Y71737D02*
X506625D01*
X514828D02*
X517497D01*
X514981Y71975D02*
X518291D01*
X514238Y72213D02*
X518324D01*
X513494Y72451D02*
X518324D01*
X512751Y72689D02*
X518012D01*
X512008Y72927D02*
X517260D01*
X511264Y73165D02*
X516509D01*
X506020Y73403D02*
X506625D01*
X510521D02*
X515758D01*
X506020Y73641D02*
X506625D01*
X509778D02*
X515007D01*
X506020Y73879D02*
X506635D01*
X509034D02*
X514256D01*
X506020Y74117D02*
X506663D01*
X508291D02*
X513505D01*
X506020Y74355D02*
X506750D01*
X507543D02*
X512754D01*
X506020Y74593D02*
X512003D01*
X506020Y74831D02*
X511251D01*
X506020Y75069D02*
X510500D01*
X506020Y75307D02*
X509749D01*
X506020Y75545D02*
X508998D01*
X506020Y75783D02*
X508247D01*
X506020Y76021D02*
X507523D01*
X506020Y76259D02*
X507016D01*
X506020Y76497D02*
X506788D01*
X506020Y76735D02*
X506683D01*
X506020Y76973D02*
X506637D01*
X506020Y77211D02*
X506626D01*
X508091Y78163D02*
X510548D01*
X507620Y78401D02*
X510998D01*
X507305Y78639D02*
X511300D01*
X507047Y78877D02*
X511521D01*
X506842Y79115D02*
X511703D01*
X506679Y79353D02*
X511866D01*
X506537Y79591D02*
X512008D01*
X506426Y79829D02*
X508722D01*
X509741D02*
X512119D01*
X506328Y80067D02*
X507748D01*
X510776D02*
X512223D01*
X506242Y80305D02*
X507366D01*
X511164D02*
X512316D01*
X506184Y80543D02*
X507129D01*
X511423D02*
X512394D01*
X506133Y80781D02*
X506957D01*
X511594D02*
X512461D01*
X506095Y81019D02*
X506830D01*
X511721D02*
X512507D01*
X506067Y81257D02*
X506743D01*
X511817D02*
X512549D01*
X506047Y81495D02*
X506683D01*
X511892D02*
X512576D01*
X506033Y81733D02*
X506638D01*
X511944D02*
X512601D01*
X506024Y81971D02*
X506607D01*
X511980D02*
X512611D01*
X506020Y82209D02*
X506586D01*
X512004D02*
X512621D01*
X506020Y82447D02*
X506570D01*
X512018D02*
X512621D01*
X517436D02*
X518041D01*
X506020Y82685D02*
X506557D01*
X512025D02*
X512621D01*
X517436D02*
X518041D01*
X506020Y82923D02*
X506557D01*
X512026D02*
X512621D01*
X517436D02*
X518041D01*
X506020Y83161D02*
X506557D01*
X512026D02*
X512621D01*
X517436D02*
X518041D01*
X506020Y83399D02*
X506568D01*
X512026D02*
X512621D01*
X517436D02*
X518041D01*
X506020Y83637D02*
X506590D01*
X512026D02*
X512621D01*
X517433D02*
X518041D01*
X506020Y83875D02*
X506631D01*
X512026D02*
X512621D01*
X517400D02*
X518041D01*
X506020Y84113D02*
X506727D01*
X512026D02*
X512621D01*
X517299D02*
X518041D01*
X506020Y84351D02*
X507154D01*
X512026D02*
X512621D01*
X516931D02*
X518041D01*
X506020Y84589D02*
X518041D01*
X506020Y84827D02*
X518041D01*
X506020Y85065D02*
X518041D01*
X506020Y85303D02*
X518041D01*
X506020Y85541D02*
X518041D01*
X506020Y85779D02*
X518041D01*
X506020Y86017D02*
X518041D01*
X506020Y86255D02*
X506841D01*
X517291D02*
X518041D01*
X506020Y86493D02*
X506700D01*
X517400D02*
X518041D01*
X506020Y86731D02*
X506644D01*
X517433D02*
X518041D01*
X506020Y86969D02*
X506625D01*
X517436D02*
X518041D01*
X506020Y87207D02*
X506625D01*
X517436D02*
X518041D01*
X506020Y87445D02*
X506625D01*
X517436D02*
X518041D01*
X506020Y87683D02*
X506625D01*
X517436D02*
X518041D01*
X506020Y87921D02*
X506625D01*
X517436D02*
X518041D01*
X531020Y102215D02*
Y96004D01*
X531030Y95574*
X531069Y95155*
X531137Y94774*
X531225Y94403*
X531342Y94071*
X531479Y93758*
X531645Y93475*
X531840Y93211*
X532055Y92977*
X532289Y92772*
X532533Y92606*
X532787Y92459*
X533071Y92352*
X533364Y92274*
X533666Y92235*
X533998Y92215*
X534194Y92225*
X534379Y92235*
X534565Y92274*
X534750Y92313*
X534926Y92371*
X535092Y92440*
X535258Y92518*
X535414Y92606*
X535571Y92713*
X535707Y92830*
X535844Y92957*
X535971Y93094*
X536098Y93240*
X536205Y93397*
X536313Y93563*
X536410Y93748*
X536498Y93944*
X536576Y94168*
X536655Y94422*
X536723Y94705*
X536791Y95008*
X536840Y95340*
X536899Y95701*
X536938Y96082*
X537016Y95809*
X537094Y95545*
X537172Y95311*
X537250Y95106*
X537328Y94910*
X537406Y94744*
X537485Y94608*
X537563Y94481*
X537719Y94276*
X537905Y94090*
X538119Y93924*
X538344Y93778*
X538481Y93709*
X538656Y93641*
X538852Y93572*
X539086Y93494*
X539340Y93416*
X539633Y93338*
X539965Y93260*
X540317Y93172*
X540571Y93114*
X540805Y93045*
X541020Y92987*
X541215Y92918*
X541381Y92860*
X541528Y92791*
X541664Y92723*
X541772Y92655*
X541899Y92547*
X541987Y92440*
X542045Y92322*
X542065Y92205*
X542055Y92137*
X542045Y92078*
X542016Y92020*
X541977Y91961*
X541918Y91903*
X541860Y91844*
X541781Y91785*
X541694Y91737*
X541596Y91688*
X541479Y91639*
X541342Y91600*
X541186Y91561*
X541020Y91531*
X540824Y91512*
X540619Y91483*
X540395Y91473*
Y90916*
X540727Y90946*
X541039Y90985*
X541332Y91033*
X541606Y91102*
X541850Y91180*
X542084Y91278*
X542289Y91385*
X542465Y91502*
X542631Y91639*
X542768Y91785*
X542885Y91942*
X542983Y92117*
X543061Y92313*
X543119Y92508*
X543149Y92723*
X543158Y92957*
X543139Y93240*
X543080Y93504*
X542992Y93758*
X542856Y93983*
X542690Y94188*
X542485Y94364*
X542250Y94510*
X541977Y94637*
X541908Y94656*
X541840Y94676*
X541762Y94705*
X541664Y94725*
X541557Y94744*
X541449Y94774*
X541323Y94793*
X541176Y94813*
X541030Y94842*
X540873Y94862*
X540698Y94891*
X540512Y94910*
X540326Y94940*
X540121Y94969*
X539906Y94989*
X539672Y95018*
X539418Y95047*
X539174Y95086*
X538949Y95125*
X538754Y95174*
X538569Y95223*
X538412Y95281*
X538266Y95340*
X538139Y95408*
X537924Y95555*
X537729Y95740*
X537563Y95965*
X537406Y96229*
X537289Y96522*
X537201Y96844*
X537153Y97196*
X537133Y97567*
Y98553*
X541860*
X541996Y98543*
X542114Y98514*
X542211Y98465*
X542280Y98397*
X542348Y98289*
X542397Y98153*
X542426Y97987*
X542436Y97791*
Y96639*
X543041*
Y102215*
X542436*
Y101033*
X542426Y100858*
X542397Y100701*
X542348Y100565*
X542280Y100467*
X542201Y100379*
X542104Y100330*
X541987Y100291*
X541860Y100281*
X532240*
X532104Y100291*
X531977Y100330*
X531869Y100389*
X531781Y100467*
X531713Y100574*
X531664Y100701*
X531635Y100858*
X531625Y101033*
Y102215*
X531020*
X536547Y98553D02*
Y97127D01*
X536537Y96785*
X536518Y96453*
X536469Y96141*
X536410Y95858*
X536332Y95584*
X536244Y95330*
X536137Y95106*
X536010Y94891*
X535864Y94696*
X535688Y94539*
X535483Y94393*
X535258Y94285*
X535004Y94197*
X534721Y94129*
X534418Y94090*
X534086Y94080*
X533852*
X533637Y94100*
X533432Y94119*
X533237Y94158*
X533051Y94197*
X532885Y94256*
X532729Y94315*
X532582Y94383*
X532455Y94461*
X532328Y94549*
X532221Y94637*
X532123Y94735*
X532035Y94842*
X531957Y94949*
X531889Y95067*
X531830Y95184*
X531781Y95321*
X531742Y95496*
X531703Y95692*
X531674Y95926*
X531655Y96180*
X531635Y96473*
X531625Y96785*
Y97137*
Y97362*
X531635Y97576*
X531645Y97752*
X531664Y97918*
X531674Y98055*
X531703Y98162*
X531733Y98260*
X531762Y98328*
X531840Y98426*
X531938Y98494*
X532065Y98543*
X532221Y98553*
X536547*
X531020Y89520D02*
Y79989D01*
X535073Y79764*
Y80311*
X534614Y80399*
X534184Y80496*
X533793Y80604*
X533442Y80731*
X533129Y80867*
X532846Y81014*
X532602Y81170*
X532387Y81336*
X532211Y81522*
X532055Y81717*
X531928Y81922*
X531821Y82147*
X531733Y82381*
X531674Y82635*
X531635Y82899*
X531625Y83172*
Y85526*
X531635Y85662*
X531664Y85770*
X531713Y85877*
X531781Y85955*
X531869Y86024*
X531977Y86063*
X532104Y86092*
X532250Y86102*
X536537*
Y85067*
X536528Y84871*
X536498Y84676*
X536459Y84490*
X536391Y84324*
X536303Y84158*
X536205Y84002*
X536088Y83865*
X535942Y83729*
X535785Y83602*
X535610Y83504*
X535414Y83406*
X535190Y83328*
X534955Y83270*
X534701Y83221*
X534418Y83192*
X534125Y83172*
Y82615*
X539692*
Y83172*
X539360Y83192*
X539047Y83221*
X538764Y83270*
X538510Y83328*
X538276Y83406*
X538061Y83504*
X537875Y83612*
X537709Y83739*
X537573Y83875*
X537455Y84022*
X537348Y84178*
X537260Y84354*
X537201Y84539*
X537153Y84735*
X537123Y84940*
X537114Y85164*
Y86102*
X541899*
X542026Y86092*
X542133Y86053*
X542221Y86004*
X542299Y85926*
X542358Y85828*
X542406Y85692*
X542426Y85535*
X542436Y85350*
Y83485*
X542416Y83123*
X542377Y82772*
X542299Y82440*
X542192Y82137*
X542055Y81844*
X541889Y81580*
X541694Y81326*
X541469Y81102*
X541215Y80897*
X540922Y80701*
X540610Y80535*
X540258Y80389*
X539887Y80262*
X539477Y80155*
X539037Y80067*
X538569Y79998*
Y79412*
X543041Y79617*
Y89520*
X542436*
Y88699*
X542426Y88475*
X542397Y88289*
X542338Y88143*
X542270Y88026*
X542182Y87938*
X542065Y87879*
X541938Y87840*
X541781Y87830*
X532250*
X532104Y87840*
X531977Y87869*
X531869Y87928*
X531781Y87996*
X531713Y88094*
X531664Y88221*
X531635Y88367*
X531625Y88533*
Y89520*
X531020*
X531928Y70906D02*
X530883Y70174D01*
Y69578*
X535258Y69530*
Y70067*
X534770Y70203*
X534321Y70350*
X533901Y70516*
X533520Y70692*
X533168Y70887*
X532846Y71092*
X532563Y71317*
X532319Y71551*
X532104Y71805*
X531908Y72069*
X531752Y72332*
X531625Y72615*
X531518Y72899*
X531449Y73201*
X531410Y73504*
X531391Y73826*
X531401Y74090*
X531430Y74334*
X531479Y74569*
X531557Y74793*
X531645Y75008*
X531752Y75213*
X531879Y75399*
X532035Y75574*
X532201Y75740*
X532367Y75877*
X532553Y75994*
X532748Y76082*
X532944Y76160*
X533158Y76219*
X533373Y76248*
X533598Y76258*
X533881Y76239*
X534145Y76190*
X534389Y76112*
X534614Y75994*
X534819Y75848*
X535004Y75672*
X535170Y75467*
X535317Y75223*
X535385Y75076*
X535463Y74910*
X535531Y74705*
X535600Y74481*
X535678Y74217*
X535746Y73934*
X535824Y73621*
X535903Y73280*
X536010Y72791*
X536117Y72352*
X536235Y71942*
X536342Y71571*
X536449Y71239*
X536567Y70946*
X536674Y70692*
X536791Y70467*
X536899Y70272*
X537026Y70086*
X537153Y69920*
X537289Y69764*
X537436Y69617*
X537592Y69490*
X537748Y69364*
X537914Y69266*
X538090Y69168*
X538266Y69090*
X538451Y69022*
X538647Y68963*
X538852Y68924*
X539067Y68895*
X539281Y68875*
X539506Y68865*
X539897Y68885*
X540278Y68934*
X540649Y69022*
X540990Y69139*
X541323Y69295*
X541625Y69481*
X541918Y69705*
X542201Y69959*
X542446Y70242*
X542670Y70545*
X542846Y70867*
X543002Y71209*
X543119Y71571*
X543198Y71951*
X543246Y72362*
X543266Y72781*
X543246Y73240*
X543188Y73680*
X543100Y74110*
X542963Y74520*
X542797Y74920*
X542592Y75301*
X542348Y75662*
X542065Y76014*
X543188Y76932*
Y77518*
X538530*
Y76932*
X538998Y76834*
X539438Y76707*
X539858Y76561*
X540248Y76375*
X540619Y76170*
X540961Y75946*
X541274Y75692*
X541567Y75408*
X541830Y75106*
X542055Y74793*
X542250Y74471*
X542406Y74139*
X542524Y73807*
X542612Y73455*
X542660Y73094*
X542680Y72733*
X542670Y72440*
X542641Y72156*
X542582Y71893*
X542504Y71639*
X542406Y71405*
X542280Y71180*
X542133Y70965*
X541967Y70770*
X541791Y70594*
X541596Y70438*
X541391Y70301*
X541186Y70194*
X540961Y70115*
X540727Y70057*
X540492Y70018*
X540239Y70008*
X539965Y70028*
X539701Y70076*
X539457Y70164*
X539233Y70291*
X539125Y70369*
X539018Y70457*
X538920Y70555*
X538832Y70662*
X538744Y70780*
X538656Y70906*
X538578Y71043*
X538500Y71190*
X538422Y71365*
X538344Y71580*
X538256Y71824*
X538168Y72108*
X538080Y72430*
X537983Y72791*
X537885Y73182*
X537778Y73621*
X537719Y73865*
X537660Y74100*
X537602Y74324*
X537533Y74539*
X537475Y74735*
X537406Y74930*
X537348Y75115*
X537280Y75291*
X537211Y75457*
X537143Y75614*
X537074Y75760*
X537006Y75897*
X536938Y76014*
X536869Y76131*
X536791Y76239*
X536723Y76336*
X536508Y76571*
X536264Y76776*
X536000Y76951*
X535727Y77098*
X535414Y77205*
X535092Y77283*
X534740Y77332*
X534379Y77352*
X533989Y77332*
X533617Y77283*
X533266Y77205*
X532934Y77098*
X532621Y76961*
X532319Y76785*
X532045Y76580*
X531781Y76336*
X531537Y76082*
X531332Y75799*
X531166Y75506*
X531020Y75184*
X530912Y74852*
X530834Y74510*
X530785Y74139*
X530766Y73758*
X530785Y73377*
X530834Y73016*
X530922Y72664*
X531039Y72313*
X531108Y72147*
X531196Y71971*
X531283Y71795*
X531391Y71619*
X531508Y71444*
X531635Y71268*
X531781Y71082*
X531928Y70906*
X531020Y67020D02*
Y57489D01*
X535073Y57264*
Y57811*
X534614Y57899*
X534184Y57996*
X533793Y58104*
X533442Y58231*
X533129Y58367*
X532846Y58514*
X532602Y58670*
X532387Y58836*
X532211Y59022*
X532055Y59217*
X531928Y59422*
X531821Y59647*
X531733Y59881*
X531674Y60135*
X531635Y60399*
X531625Y60672*
Y63026*
X531635Y63162*
X531664Y63270*
X531713Y63377*
X531781Y63455*
X531869Y63524*
X531977Y63563*
X532104Y63592*
X532250Y63602*
X536537*
Y62567*
X536528Y62371*
X536498Y62176*
X536459Y61990*
X536391Y61824*
X536303Y61658*
X536205Y61502*
X536088Y61365*
X535942Y61229*
X535785Y61102*
X535610Y61004*
X535414Y60906*
X535190Y60828*
X534955Y60770*
X534701Y60721*
X534418Y60692*
X534125Y60672*
Y60115*
X539692*
Y60672*
X539360Y60692*
X539047Y60721*
X538764Y60770*
X538510Y60828*
X538276Y60906*
X538061Y61004*
X537875Y61112*
X537709Y61239*
X537573Y61375*
X537455Y61522*
X537348Y61678*
X537260Y61854*
X537201Y62039*
X537153Y62235*
X537123Y62440*
X537114Y62664*
Y63602*
X541899*
X542026Y63592*
X542133Y63553*
X542221Y63504*
X542299Y63426*
X542358Y63328*
X542406Y63192*
X542426Y63035*
X542436Y62850*
Y60985*
X542416Y60623*
X542377Y60272*
X542299Y59940*
X542192Y59637*
X542055Y59344*
X541889Y59080*
X541694Y58826*
X541469Y58602*
X541215Y58397*
X540922Y58201*
X540610Y58035*
X540258Y57889*
X539887Y57762*
X539477Y57655*
X539037Y57567*
X538569Y57498*
Y56912*
X543041Y57117*
Y67020*
X542436*
Y66199*
X542426Y65975*
X542397Y65789*
X542338Y65643*
X542270Y65526*
X542182Y65438*
X542065Y65379*
X541938Y65340*
X541781Y65330*
X532250*
X532104Y65340*
X531977Y65369*
X531869Y65428*
X531781Y65496*
X531713Y65594*
X531664Y65721*
X531635Y65867*
X531625Y66033*
Y67020*
X531020*
Y55350D02*
Y45604D01*
X535561Y45369*
Y45926*
X535073Y46004*
X534623Y46092*
X534203Y46199*
X533813Y46317*
X533451Y46444*
X533119Y46590*
X532826Y46756*
X532563Y46922*
X532328Y47117*
X532123Y47313*
X531948Y47537*
X531811Y47762*
X531694Y48006*
X531615Y48270*
X531576Y48533*
X531557Y48826*
X531567Y49041*
X531596Y49227*
X531645Y49364*
X531723Y49471*
X531811Y49549*
X531938Y49598*
X532084Y49637*
X532260Y49647*
X541869*
X542006Y49637*
X542123Y49608*
X542221Y49549*
X542299Y49471*
X542358Y49373*
X542406Y49246*
X542426Y49100*
X542436Y48914*
Y47703*
X543041*
Y53289*
X542436*
Y51903*
X542426Y51776*
X542406Y51658*
X542358Y51561*
X542299Y51483*
X542221Y51414*
X542143Y51375*
X542045Y51346*
X541928Y51336*
X532182*
X532035Y51346*
X531908Y51385*
X531801Y51444*
X531713Y51522*
X531645Y51629*
X531596Y51766*
X531567Y51932*
X531557Y52127*
X531576Y52410*
X531625Y52684*
X531713Y52947*
X531840Y53201*
X531996Y53436*
X532182Y53670*
X532406Y53885*
X532670Y54080*
X532914Y54237*
X533198Y54383*
X533510Y54520*
X533852Y54647*
X534233Y54754*
X534643Y54852*
X535082Y54940*
X535561Y55018*
Y55614*
X531020Y55350*
X532740Y45515D02*
X535561D01*
X531020Y45753D02*
X535561D01*
X531020Y45991D02*
X535154D01*
X531020Y46229D02*
X534104D01*
X531020Y46467D02*
X533399D01*
X531020Y46705D02*
X532916D01*
X531020Y46943D02*
X532538D01*
X531020Y47181D02*
X532261D01*
X531020Y47419D02*
X532040D01*
X531020Y47657D02*
X531875D01*
X531020Y47895D02*
X531747D01*
X542436D02*
X543041D01*
X531020Y48133D02*
X531656D01*
X542436D02*
X543041D01*
X531020Y48371D02*
X531600D01*
X542436D02*
X543041D01*
X531020Y48609D02*
X531571D01*
X542436D02*
X543041D01*
X531020Y48847D02*
X531558D01*
X542436D02*
X543041D01*
X531020Y49085D02*
X531574D01*
X542427D02*
X543041D01*
X531020Y49323D02*
X531630D01*
X542377D02*
X543041D01*
X531020Y49561D02*
X531842D01*
X542201D02*
X543041D01*
X531020Y49799D02*
X543041D01*
X531020Y50037D02*
X543041D01*
X531020Y50275D02*
X543041D01*
X531020Y50513D02*
X543041D01*
X531020Y50751D02*
X543041D01*
X531020Y50989D02*
X543041D01*
X531020Y51227D02*
X543041D01*
X531020Y51465D02*
X531777D01*
X542279D02*
X543041D01*
X531020Y51703D02*
X531619D01*
X542414D02*
X543041D01*
X531020Y51941D02*
X531567D01*
X542436D02*
X543041D01*
X531020Y52179D02*
X531560D01*
X542436D02*
X543041D01*
X531020Y52417D02*
X531577D01*
X542436D02*
X543041D01*
X531020Y52655D02*
X531620D01*
X542436D02*
X543041D01*
X531020Y52893D02*
X531695D01*
X542436D02*
X543041D01*
X531020Y53131D02*
X531805D01*
X542436D02*
X543041D01*
X531020Y53369D02*
X531952D01*
X531020Y53607D02*
X532132D01*
X531020Y53845D02*
X532364D01*
X531020Y54083D02*
X532675D01*
X531020Y54321D02*
X533077D01*
X531020Y54559D02*
X533615D01*
X531020Y54797D02*
X534413D01*
X531020Y55035D02*
X535561D01*
X531020Y55273D02*
X535561D01*
X533789Y55511D02*
X535561D01*
X538569Y56939D02*
X539158D01*
X538569Y57177D02*
X543041D01*
X532353Y57415D02*
X535073D01*
X538569D02*
X543041D01*
X531020Y57653D02*
X535073D01*
X539477D02*
X543041D01*
X531020Y57891D02*
X534656D01*
X540258D02*
X543041D01*
X531020Y58129D02*
X533724D01*
X540787D02*
X543041D01*
X531020Y58367D02*
X533129D01*
X541170D02*
X543041D01*
X531020Y58605D02*
X532704D01*
X541469D02*
X543041D01*
X531020Y58843D02*
X532380D01*
X541707D02*
X543041D01*
X531020Y59081D02*
X532164D01*
X541889D02*
X543041D01*
X531020Y59319D02*
X531992D01*
X542039D02*
X543041D01*
X531020Y59557D02*
X531864D01*
X542155D02*
X543041D01*
X531020Y59795D02*
X531765D01*
X542248D02*
X543041D01*
X531020Y60033D02*
X531698D01*
X542321D02*
X543041D01*
X531020Y60271D02*
X531654D01*
X534125D02*
X539692D01*
X542377D02*
X543041D01*
X531020Y60509D02*
X531631D01*
X534125D02*
X539692D01*
X542403D02*
X543041D01*
X531020Y60747D02*
X531625D01*
X534836D02*
X538897D01*
X542423D02*
X543041D01*
X531020Y60985D02*
X531625D01*
X535572D02*
X538103D01*
X542436D02*
X543041D01*
X531020Y61223D02*
X531625D01*
X535935D02*
X537730D01*
X542436D02*
X543041D01*
X531020Y61461D02*
X531625D01*
X536170D02*
X537504D01*
X542436D02*
X543041D01*
X531020Y61699D02*
X531625D01*
X536325D02*
X537337D01*
X542436D02*
X543041D01*
X531020Y61937D02*
X531625D01*
X536437D02*
X537234D01*
X542436D02*
X543041D01*
X531020Y62175D02*
X531625D01*
X536498D02*
X537168D01*
X542436D02*
X543041D01*
X531020Y62413D02*
X531625D01*
X536530D02*
X537127D01*
X542436D02*
X543041D01*
X531020Y62651D02*
X531625D01*
X536537D02*
X537115D01*
X542436D02*
X543041D01*
X531020Y62889D02*
X531625D01*
X536537D02*
X537114D01*
X542434D02*
X543041D01*
X531020Y63127D02*
X531632D01*
X536537D02*
X537114D01*
X542414D02*
X543041D01*
X531020Y63365D02*
X531708D01*
X536537D02*
X537114D01*
X542336D02*
X543041D01*
X531020Y63603D02*
X543041D01*
X531020Y63841D02*
X543041D01*
X531020Y64079D02*
X543041D01*
X531020Y64317D02*
X543041D01*
X531020Y64555D02*
X543041D01*
X531020Y64793D02*
X543041D01*
X531020Y65031D02*
X543041D01*
X531020Y65269D02*
X543041D01*
X531020Y65507D02*
X531773D01*
X542251D02*
X543041D01*
X531020Y65745D02*
X531659D01*
X542379D02*
X543041D01*
X531020Y65983D02*
X531628D01*
X542426D02*
X543041D01*
X531020Y66221D02*
X531625D01*
X542436D02*
X543041D01*
X531020Y66459D02*
X531625D01*
X542436D02*
X543041D01*
X531020Y66697D02*
X531625D01*
X542436D02*
X543041D01*
X531020Y66935D02*
X531625D01*
X542436D02*
X543041D01*
X538301Y69077D02*
X540809D01*
X537831Y69315D02*
X541355D01*
X533162Y69553D02*
X535258D01*
X537515D02*
X541719D01*
X530883Y69791D02*
X535258D01*
X537265D02*
X542014D01*
X530883Y70029D02*
X535258D01*
X537070D02*
X539959D01*
X540558D02*
X542262D01*
X531016Y70267D02*
X534575D01*
X536902D02*
X539275D01*
X541326D02*
X542464D01*
X531356Y70505D02*
X533929D01*
X536771D02*
X538970D01*
X541680D02*
X542640D01*
X531695Y70743D02*
X533428D01*
X536653D02*
X538772D01*
X541940D02*
X542778D01*
X531865Y70981D02*
X533020D01*
X536553D02*
X538613D01*
X542144D02*
X542898D01*
X531673Y71219D02*
X532686D01*
X536457D02*
X538487D01*
X542302D02*
X543005D01*
X531499Y71457D02*
X532417D01*
X536379D02*
X538389D01*
X542428D02*
X543082D01*
X531344Y71695D02*
X532197D01*
X536306D02*
X538303D01*
X542521D02*
X543145D01*
X531215Y71933D02*
X532009D01*
X536238D02*
X538222D01*
X542591D02*
X543194D01*
X531098Y72171D02*
X531847D01*
X536169D02*
X538151D01*
X542643D02*
X543224D01*
X531007Y72409D02*
X531717D01*
X536103D02*
X538086D01*
X542667D02*
X543248D01*
X530928Y72647D02*
X531613D01*
X536045D02*
X538022D01*
X542677D02*
X543260D01*
X530867Y72885D02*
X531523D01*
X535989D02*
X537959D01*
X542672D02*
X543261D01*
X530819Y73123D02*
X531467D01*
X535937D02*
X537900D01*
X542656D02*
X543251D01*
X530787Y73361D02*
X531428D01*
X535884D02*
X537841D01*
X542624D02*
X543230D01*
X530774Y73599D02*
X531404D01*
X535829D02*
X537783D01*
X542576D02*
X543199D01*
X530770Y73837D02*
X531391D01*
X535770D02*
X537726D01*
X542513D02*
X543156D01*
X530782Y74075D02*
X531400D01*
X535712D02*
X537666D01*
X542429D02*
X543107D01*
X530808Y74313D02*
X531428D01*
X535650D02*
X537605D01*
X542324D02*
X543032D01*
X530843Y74551D02*
X531475D01*
X535578D02*
X537529D01*
X542202D02*
X542950D01*
X530898Y74789D02*
X531555D01*
X535503D02*
X537456D01*
X542055D02*
X542851D01*
X530969Y75027D02*
X531655D01*
X535408D02*
X537376D01*
X541887D02*
X542739D01*
X531057Y75265D02*
X531788D01*
X535292D02*
X537290D01*
X541692D02*
X542611D01*
X531166Y75503D02*
X531972D01*
X535141D02*
X537191D01*
X541469D02*
X542455D01*
X531299Y75741D02*
X532202D01*
X534931D02*
X537083D01*
X541214D02*
X542284D01*
X531462Y75979D02*
X532529D01*
X534635D02*
X536958D01*
X540911D02*
X542093D01*
X531667Y76217D02*
X533143D01*
X534000D02*
X536807D01*
X540534D02*
X542313D01*
X531910Y76455D02*
X536614D01*
X540080D02*
X542604D01*
X532196Y76693D02*
X536363D01*
X539478D02*
X542896D01*
X532570Y76931D02*
X536030D01*
X538530D02*
X543188D01*
X533154Y77169D02*
X535519D01*
X538530D02*
X543188D01*
X538530Y77407D02*
X543188D01*
X538569Y79549D02*
X541558D01*
X534659Y79787D02*
X535073D01*
X538569D02*
X543041D01*
X531020Y80025D02*
X535073D01*
X538752D02*
X543041D01*
X531020Y80263D02*
X535073D01*
X539887D02*
X543041D01*
X531020Y80501D02*
X534166D01*
X540528D02*
X543041D01*
X531020Y80739D02*
X533424D01*
X540979D02*
X543041D01*
X531020Y80977D02*
X532917D01*
X541314D02*
X543041D01*
X531020Y81215D02*
X532544D01*
X541583D02*
X543041D01*
X531020Y81453D02*
X532276D01*
X541791D02*
X543041D01*
X531020Y81691D02*
X532076D01*
X541959D02*
X543041D01*
X531020Y81929D02*
X531925D01*
X542095D02*
X543041D01*
X531020Y82167D02*
X531813D01*
X542203D02*
X543041D01*
X531020Y82405D02*
X531727D01*
X542287D02*
X543041D01*
X531020Y82643D02*
X531673D01*
X534125D02*
X539692D01*
X542347D02*
X543041D01*
X531020Y82881D02*
X531638D01*
X534125D02*
X539692D01*
X542389D02*
X543041D01*
X531020Y83119D02*
X531627D01*
X534125D02*
X539692D01*
X542416D02*
X543041D01*
X531020Y83357D02*
X531625D01*
X535273D02*
X538423D01*
X542429D02*
X543041D01*
X531020Y83595D02*
X531625D01*
X535772D02*
X537904D01*
X542436D02*
X543041D01*
X531020Y83833D02*
X531625D01*
X536054D02*
X537615D01*
X542436D02*
X543041D01*
X531020Y84071D02*
X531625D01*
X536248D02*
X537421D01*
X542436D02*
X543041D01*
X531020Y84309D02*
X531625D01*
X536383D02*
X537282D01*
X542436D02*
X543041D01*
X531020Y84547D02*
X531625D01*
X536471D02*
X537199D01*
X542436D02*
X543041D01*
X531020Y84785D02*
X531625D01*
X536515D02*
X537146D01*
X542436D02*
X543041D01*
X531020Y85023D02*
X531625D01*
X536535D02*
X537120D01*
X542436D02*
X543041D01*
X531020Y85261D02*
X531625D01*
X536537D02*
X537114D01*
X542436D02*
X543041D01*
X531020Y85499D02*
X531625D01*
X536537D02*
X537114D01*
X542428D02*
X543041D01*
X531020Y85737D02*
X531655D01*
X536537D02*
X537114D01*
X542390D02*
X543041D01*
X531020Y85975D02*
X531807D01*
X536537D02*
X537114D01*
X542250D02*
X543041D01*
X531020Y86213D02*
X543041D01*
X531020Y86451D02*
X543041D01*
X531020Y86689D02*
X543041D01*
X531020Y86927D02*
X543041D01*
X531020Y87165D02*
X543041D01*
X531020Y87403D02*
X543041D01*
X531020Y87641D02*
X543041D01*
X531020Y87879D02*
X531959D01*
X542065D02*
X543041D01*
X531020Y88117D02*
X531704D01*
X542323D02*
X543041D01*
X531020Y88355D02*
X531637D01*
X542407D02*
X543041D01*
X531020Y88593D02*
X531625D01*
X542431D02*
X543041D01*
X531020Y88831D02*
X531625D01*
X542436D02*
X543041D01*
X531020Y89069D02*
X531625D01*
X542436D02*
X543041D01*
X531020Y89307D02*
X531625D01*
X542436D02*
X543041D01*
X540395Y90973D02*
X540943D01*
X540395Y91211D02*
X541924D01*
X540395Y91449D02*
X542385D01*
X541596Y91687D02*
X542676D01*
X541940Y91925D02*
X542872D01*
X542059Y92163D02*
X543001D01*
X532941Y92401D02*
X534998D01*
X542006D02*
X543087D01*
X532484Y92639D02*
X535462D01*
X541791D02*
X543137D01*
X532169Y92877D02*
X535758D01*
X541332D02*
X543155D01*
X531928Y93115D02*
X535989D01*
X540571D02*
X543147D01*
X531735Y93353D02*
X536175D01*
X539577D02*
X543114D01*
X531577Y93591D02*
X536328D01*
X538798D02*
X543050D01*
X531448Y93829D02*
X536446D01*
X538265D02*
X542949D01*
X531342Y94067D02*
X536541D01*
X537935D02*
X542788D01*
X531260Y94305D02*
X532755D01*
X535300D02*
X536619D01*
X537697D02*
X542554D01*
X531192Y94543D02*
X532337D01*
X535688D02*
X536684D01*
X537525D02*
X542179D01*
X531136Y94781D02*
X532085D01*
X535928D02*
X536740D01*
X537389D02*
X541403D01*
X531093Y95019D02*
X531917D01*
X536086D02*
X536793D01*
X537285D02*
X539663D01*
X531060Y95257D02*
X531804D01*
X536209D02*
X536828D01*
X537193D02*
X538477D01*
X531037Y95495D02*
X531742D01*
X536301D02*
X536865D01*
X537111D02*
X538012D01*
X531026Y95733D02*
X531698D01*
X536374D02*
X536902D01*
X537038D02*
X537736D01*
X531021Y95971D02*
X531671D01*
X536434D02*
X536927D01*
X536970D02*
X537559D01*
X531020Y96209D02*
X531653D01*
X536480D02*
X537418D01*
X531020Y96447D02*
X531637D01*
X536517D02*
X537319D01*
X531020Y96685D02*
X531628D01*
X536531D02*
X537244D01*
X542436D02*
X543041D01*
X531020Y96923D02*
X531625D01*
X536541D02*
X537190D01*
X542436D02*
X543041D01*
X531020Y97161D02*
X531625D01*
X536547D02*
X537158D01*
X542436D02*
X543041D01*
X531020Y97399D02*
X531627D01*
X536547D02*
X537142D01*
X542436D02*
X543041D01*
X531020Y97637D02*
X531638D01*
X536547D02*
X537133D01*
X542436D02*
X543041D01*
X531020Y97875D02*
X531659D01*
X536547D02*
X537133D01*
X542432D02*
X543041D01*
X531020Y98113D02*
X531690D01*
X536547D02*
X537133D01*
X542404D02*
X543041D01*
X531020Y98351D02*
X531780D01*
X536547D02*
X537133D01*
X542309D02*
X543041D01*
X531020Y98589D02*
X543041D01*
X531020Y98827D02*
X543041D01*
X531020Y99065D02*
X543041D01*
X531020Y99303D02*
X543041D01*
X531020Y99541D02*
X543041D01*
X531020Y99779D02*
X543041D01*
X531020Y100017D02*
X543041D01*
X531020Y100255D02*
X543041D01*
X531020Y100493D02*
X531764D01*
X542298D02*
X543041D01*
X531020Y100731D02*
X531658D01*
X542403D02*
X543041D01*
X531020Y100969D02*
X531629D01*
X542432D02*
X543041D01*
X531020Y101207D02*
X531625D01*
X542436D02*
X543041D01*
X531020Y101445D02*
X531625D01*
X542436D02*
X543041D01*
X531020Y101683D02*
X531625D01*
X542436D02*
X543041D01*
X531020Y101921D02*
X531625D01*
X542436D02*
X543041D01*
X531020Y102159D02*
X531625D01*
X542436D02*
X543041D01*
X582420Y15846D02*
X578670D01*
Y15289*
X578846Y15280*
X579012Y15270*
X579158Y15260*
X579285Y15250*
X579393Y15231*
X579490Y15211*
X579569Y15182*
X579627Y15153*
X579715Y15084*
X579783Y15006*
X579822Y14918*
X579832Y14821*
X579813Y14635*
X579764Y14459*
X577733Y9967*
X575906Y14322*
X575867Y14440*
X575858Y14547*
X575877Y14694*
X575936Y14821*
X576024Y14928*
X576151Y15035*
X576317Y15114*
X576522Y15192*
X576756Y15240*
X577030Y15289*
Y15846*
X573875*
Y15289*
X574100Y15250*
X574305Y15201*
X574481Y15123*
X574637Y15026*
X574774Y14918*
X574891Y14781*
X574989Y14635*
X575076Y14459*
X577860Y8004*
X578299*
X581297Y14645*
X581385Y14811*
X581473Y14947*
X581580Y15055*
X581688Y15143*
X581824Y15201*
X581990Y15250*
X582186Y15280*
X582420Y15289*
Y15846*
X566024Y11989D02*
X571473D01*
X571453Y11569*
X571414Y11178*
X571365Y10826*
X571287Y10504*
X571199Y10211*
X571092Y9957*
X570965Y9723*
X570819Y9528*
X570643Y9342*
X570447Y9176*
X570242Y9039*
X570028Y8932*
X569803Y8844*
X569559Y8776*
X569305Y8737*
X569041Y8727*
X568846Y8737*
X568651Y8756*
X568465Y8785*
X568289Y8844*
X568114Y8903*
X567938Y8981*
X567772Y9078*
X567606Y9176*
X567449Y9303*
X567293Y9440*
X567147Y9586*
X567010Y9752*
X566864Y9928*
X566737Y10114*
X566610Y10319*
X566483Y10543*
X565955Y10319*
X566112Y10035*
X566268Y9772*
X566434Y9528*
X566610Y9303*
X566795Y9098*
X566990Y8903*
X567196Y8737*
X567401Y8580*
X567625Y8444*
X567850Y8326*
X568084Y8229*
X568328Y8151*
X568582Y8082*
X568836Y8043*
X569110Y8014*
X569383Y8004*
X569754Y8024*
X570115Y8072*
X570457Y8160*
X570789Y8278*
X571102Y8434*
X571405Y8629*
X571688Y8854*
X571951Y9108*
X572196Y9391*
X572410Y9703*
X572586Y10026*
X572733Y10367*
X572850Y10729*
X572928Y11110*
X572977Y11510*
X572996Y11940*
X572977Y12389*
X572928Y12819*
X572850Y13219*
X572742Y13610*
X572596Y13971*
X572420Y14313*
X572205Y14635*
X571971Y14928*
X571707Y15192*
X571424Y15426*
X571131Y15621*
X570828Y15787*
X570496Y15905*
X570164Y16002*
X569813Y16051*
X569442Y16071*
X569168Y16061*
X568905Y16031*
X568651Y15992*
X568416Y15924*
X568182Y15846*
X567957Y15748*
X567742Y15631*
X567537Y15504*
X567342Y15348*
X567156Y15182*
X566990Y15006*
X566824Y14811*
X566688Y14596*
X566551Y14371*
X566434Y14127*
X566326Y13873*
X566258Y13678*
X566199Y13473*
X566151Y13258*
X566102Y13024*
X566072Y12789*
X566053Y12535*
X566033Y12262*
X566024Y11989*
X571473Y12565D02*
X568172D01*
X568035Y12574*
X567918Y12614*
X567811Y12672*
X567723Y12760*
X567645Y12877*
X567596Y13033*
X567567Y13219*
X567557Y13444*
X567567Y13658*
X567596Y13873*
X567635Y14069*
X567694Y14264*
X567772Y14449*
X567869Y14625*
X567987Y14801*
X568114Y14957*
X568260Y15104*
X568406Y15231*
X568563Y15338*
X568719Y15426*
X568885Y15494*
X569061Y15543*
X569237Y15572*
X569422Y15582*
X569637Y15572*
X569832Y15533*
X570028Y15475*
X570203Y15397*
X570379Y15289*
X570545Y15153*
X570711Y15006*
X570858Y14830*
X570994Y14625*
X571121Y14401*
X571219Y14156*
X571307Y13883*
X571375Y13590*
X571424Y13268*
X571453Y12926*
X571473Y12565*
X564949Y15846D02*
X562225Y15983D01*
Y12897*
X562108Y13268*
X561990Y13619*
X561873Y13932*
X561737Y14235*
X561600Y14508*
X561463Y14762*
X561317Y14996*
X561160Y15201*
X561004Y15387*
X560838Y15543*
X560662Y15680*
X560467Y15787*
X560272Y15875*
X560067Y15934*
X559852Y15973*
X559627Y15983*
X559481Y15973*
X559334Y15963*
X559197Y15924*
X559071Y15885*
X558953Y15836*
X558846Y15768*
X558739Y15690*
X558641Y15602*
X558553Y15504*
X558475Y15397*
X558416Y15280*
X558358Y15162*
X558319Y15035*
X558289Y14889*
X558280Y14742*
X558270Y14596*
X558289Y14352*
X558328Y14137*
X558406Y13951*
X558514Y13795*
X558651Y13668*
X558797Y13580*
X558963Y13531*
X559139Y13512*
X559315Y13522*
X559471Y13571*
X559608Y13649*
X559725Y13756*
X559822Y13883*
X559891Y14039*
X559940Y14215*
X559949Y14420*
X559940Y14547*
X559920Y14674*
X559871Y14801*
X559822Y14918*
X559764Y15016*
X559725Y15094*
X559705Y15143*
X559696Y15172*
X559705Y15231*
X559735Y15260*
X559783Y15289*
X559852Y15299*
X559940Y15289*
X560028Y15270*
X560115Y15240*
X560213Y15201*
X560301Y15143*
X560408Y15074*
X560506Y14996*
X560614Y14908*
X560750Y14762*
X560887Y14606*
X561014Y14440*
X561131Y14254*
X561239Y14069*
X561346Y13854*
X561434Y13639*
X561522Y13405*
X561629Y13043*
X561737Y12701*
X561815Y12379*
X561883Y12076*
X561942Y11783*
X561981Y11520*
X562000Y11266*
X562010Y11041*
Y9401*
X562000Y9274*
X561961Y9156*
X561903Y9059*
X561815Y8981*
X561697Y8912*
X561551Y8873*
X561365Y8844*
X561151Y8834*
X560184*
Y8229*
X564901*
Y8834*
X564149*
X563973Y8844*
X563817Y8873*
X563680Y8922*
X563572Y8981*
X563485Y9059*
X563426Y9147*
X563387Y9244*
X563377Y9342*
Y14205*
X563387Y14459*
X563436Y14684*
X563504Y14869*
X563612Y15016*
X563739Y15123*
X563895Y15201*
X564080Y15250*
X564285Y15270*
X564949*
Y15846*
X555379Y10006D02*
X555408Y9947D01*
X555399Y9899*
X555360Y9840*
X555281Y9801*
X555174Y9752*
X555028Y9713*
X554852Y9674*
X554637Y9645*
X554393Y9615*
X554110Y9596*
X553797Y9576*
X553436Y9557*
X553055Y9547*
X552635Y9537*
X552176Y9528*
X551688*
X551541*
X551405Y9547*
X551278Y9567*
X551160Y9606*
X551063Y9655*
X550965Y9703*
X550887Y9772*
X550819Y9840*
X550750Y9938*
X550682Y10074*
X550614Y10240*
X550535Y10436*
X550467Y10680*
X550389Y10953*
X550301Y11256*
X550223Y11598*
X549666*
X549930Y8229*
X557215*
Y8668*
X554852Y11354*
X554608Y11617*
X554383Y11871*
X554158Y12106*
X553963Y12330*
X553768Y12545*
X553592Y12740*
X553426Y12926*
X553270Y13102*
X553123Y13268*
X552996Y13414*
X552879Y13551*
X552772Y13678*
X552684Y13785*
X552596Y13893*
X552528Y13981*
X552479Y14049*
X552205Y14440*
X551981Y14830*
X551795Y15201*
X551649Y15572*
X551531Y15934*
X551453Y16276*
X551405Y16608*
X551385Y16910*
X551395Y17155*
X551414Y17389*
X551463Y17604*
X551522Y17809*
X551600Y17994*
X551697Y18170*
X551805Y18336*
X551942Y18483*
X552078Y18619*
X552244Y18737*
X552410Y18834*
X552596Y18912*
X552791Y18981*
X553006Y19020*
X553231Y19049*
X553475Y19059*
X553739Y19049*
X554002Y19030*
X554246Y18981*
X554471Y18922*
X554696Y18854*
X554901Y18756*
X555096Y18658*
X555272Y18531*
X555438Y18395*
X555584Y18258*
X555701Y18121*
X555799Y17985*
X555877Y17848*
X555926Y17701*
X555965Y17555*
X555975Y17408*
X555965Y17311*
X555946Y17233*
X555916Y17155*
X555867Y17096*
X555809Y17047*
X555711Y16998*
X555594Y16959*
X555447Y16910*
X555252Y16852*
X555086Y16783*
X554949Y16686*
X554832Y16578*
X554744Y16451*
X554676Y16305*
X554637Y16139*
X554627Y15953*
X554647Y15758*
X554696Y15572*
X554783Y15416*
X554901Y15270*
X555047Y15153*
X555223Y15065*
X555408Y15016*
X555614Y14996*
X555731Y15006*
X555848Y15026*
X555965Y15065*
X556072Y15114*
X556180Y15172*
X556287Y15250*
X556385Y15348*
X556483Y15455*
X556571Y15572*
X556639Y15699*
X556707Y15836*
X556756Y15983*
X556805Y16139*
X556834Y16305*
X556844Y16471*
X556854Y16656*
X556844Y16862*
X556824Y17057*
X556795Y17252*
X556746Y17447*
X556688Y17633*
X556610Y17819*
X556531Y17994*
X556424Y18160*
X556317Y18326*
X556190Y18483*
X556043Y18639*
X555887Y18785*
X555721Y18912*
X555545Y19039*
X555350Y19166*
X555135Y19274*
X554920Y19381*
X554696Y19469*
X554471Y19537*
X554246Y19606*
X554012Y19655*
X553778Y19684*
X553533Y19703*
X553289Y19713*
X553045Y19703*
X552801Y19684*
X552567Y19655*
X552332Y19606*
X552108Y19547*
X551893Y19479*
X551668Y19391*
X551463Y19293*
X551258Y19176*
X551063Y19059*
X550887Y18932*
X550721Y18805*
X550574Y18658*
X550438Y18502*
X550311Y18346*
X550194Y18180*
X550096Y18004*
X550008Y17828*
X549940Y17643*
X549881Y17457*
X549832Y17272*
X549803Y17076*
X549783Y16881*
X549774Y16676*
X549783Y16403*
X549822Y16119*
X549891Y15826*
X549989Y15543*
X550106Y15260*
X550242Y14987*
X550408Y14713*
X550604Y14459*
X550955Y14039*
X551317Y13658*
X551678Y13297*
X552039Y12975*
X554188Y11168*
X554383Y11002*
X554569Y10836*
X554735Y10690*
X554891Y10533*
X555037Y10397*
X555164Y10260*
X555272Y10133*
X555379Y10006*
X546424D02*
X546229Y9987D01*
X546043Y9928*
X545877Y9840*
X545731Y9713*
X545604Y9557*
X545516Y9391*
X545467Y9205*
X545447Y9010*
X545467Y8805*
X545516Y8619*
X545604Y8453*
X545731Y8297*
X545877Y8170*
X546043Y8072*
X546229Y8024*
X546424Y8004*
X546619Y8024*
X546805Y8072*
X546971Y8170*
X547117Y8297*
X547244Y8453*
X547342Y8619*
X547391Y8805*
X547410Y9000*
X547391Y9205*
X547342Y9391*
X547244Y9557*
X547117Y9713*
X546971Y9840*
X546805Y9928*
X546619Y9987*
X546424Y10006*
X539471Y19713D02*
X539090Y19694D01*
X538719Y19635*
X538358Y19537*
X538026Y19401*
X537703Y19235*
X537391Y19020*
X537108Y18766*
X536834Y18473*
X536678Y18278*
X536531Y18072*
X536385Y17848*
X536258Y17623*
X536141Y17379*
X536033Y17115*
X535936Y16852*
X535848Y16569*
X535780Y16276*
X535711Y15963*
X535653Y15651*
X535604Y15319*
X535574Y14977*
X535545Y14615*
X535526Y14254*
Y13873*
Y13522*
X535545Y13170*
X535565Y12838*
X535594Y12526*
X535633Y12213*
X535682Y11910*
X535740Y11617*
X535809Y11344*
X535887Y11080*
X535965Y10817*
X536063Y10572*
X536160Y10338*
X536278Y10114*
X536395Y9899*
X536522Y9694*
X536658Y9498*
X536805Y9322*
X536951Y9147*
X537108Y8990*
X537264Y8844*
X537420Y8707*
X537586Y8590*
X537752Y8473*
X537918Y8375*
X538094Y8287*
X538270Y8219*
X538446Y8151*
X538631Y8102*
X538826Y8053*
X539012Y8024*
X539207Y8014*
X539412Y8004*
X539598*
X539783Y8024*
X539969Y8043*
X540155Y8082*
X540330Y8131*
X540496Y8180*
X540672Y8248*
X540828Y8317*
X540994Y8405*
X541151Y8492*
X541297Y8600*
X541444Y8707*
X541590Y8834*
X541727Y8971*
X541864Y9108*
X542000Y9264*
X542156Y9469*
X542303Y9684*
X542440Y9908*
X542567Y10143*
X542684Y10387*
X542791Y10651*
X542889Y10914*
X542977Y11197*
X543045Y11490*
X543114Y11793*
X543172Y12106*
X543221Y12428*
X543250Y12770*
X543280Y13112*
X543289Y13473*
X543299Y13834*
X543280Y14528*
X543221Y15192*
X543123Y15807*
X542996Y16393*
X542821Y16940*
X542606Y17447*
X542362Y17926*
X542069Y18365*
X541951Y18531*
X541815Y18678*
X541678Y18824*
X541541Y18951*
X541395Y19078*
X541248Y19186*
X541092Y19283*
X540936Y19371*
X540770Y19449*
X540594Y19518*
X540418Y19576*
X540242Y19625*
X540057Y19664*
X539871Y19694*
X539676Y19703*
X539471Y19713*
X539422Y19127D02*
X539686Y19108D01*
X539930Y19059*
X540164Y18981*
X540379Y18873*
X540574Y18727*
X540770Y18551*
X540936Y18336*
X541092Y18102*
X541170Y17965*
X541239Y17809*
X541297Y17633*
X541356Y17447*
X541414Y17242*
X541463Y17018*
X541502Y16774*
X541551Y16520*
X541580Y16246*
X541610Y15953*
X541639Y15641*
X541658Y15319*
X541678Y14967*
X541688Y14606*
X541697Y14235*
Y13834*
Y13444*
X541688Y13082*
X541678Y12721*
X541658Y12389*
X541639Y12067*
X541610Y11764*
X541580Y11471*
X541541Y11197*
X541502Y10944*
X541453Y10709*
X541405Y10485*
X541346Y10280*
X541287Y10084*
X541219Y9918*
X541151Y9752*
X541072Y9615*
X540916Y9371*
X540740Y9156*
X540545Y8971*
X540350Y8824*
X540135Y8707*
X539901Y8629*
X539666Y8580*
X539403Y8561*
X539149Y8580*
X538905Y8619*
X538680Y8697*
X538475Y8805*
X538280Y8942*
X538094Y9108*
X537928Y9303*
X537781Y9537*
X537703Y9684*
X537625Y9860*
X537557Y10035*
X537489Y10240*
X537430Y10446*
X537371Y10680*
X537322Y10924*
X537274Y11178*
X537235Y11451*
X537205Y11735*
X537176Y12037*
X537147Y12360*
X537127Y12692*
X537117Y13033*
X537108Y13405*
Y13776*
Y14166*
X537117Y14537*
X537127Y14899*
X537147Y15240*
X537166Y15563*
X537196Y15875*
X537225Y16158*
X537264Y16442*
X537303Y16696*
X537352Y16940*
X537410Y17164*
X537459Y17369*
X537528Y17565*
X537596Y17740*
X537664Y17906*
X537742Y18043*
X537908Y18297*
X538084Y18522*
X538270Y18707*
X538475Y18854*
X538699Y18971*
X538924Y19059*
X539168Y19108*
X539422Y19127*
X532547Y10006D02*
X532352Y9987D01*
X532166Y9928*
X532000Y9840*
X531854Y9713*
X531727Y9557*
X531639Y9391*
X531590Y9205*
X531571Y9010*
X531590Y8805*
X531639Y8619*
X531727Y8453*
X531854Y8297*
X532000Y8170*
X532166Y8072*
X532352Y8024*
X532547Y8004*
X532742Y8024*
X532928Y8072*
X533094Y8170*
X533240Y8297*
X533367Y8453*
X533465Y8619*
X533514Y8805*
X533533Y9000*
X533514Y9205*
X533465Y9391*
X533367Y9557*
X533240Y9713*
X533094Y9840*
X532928Y9928*
X532742Y9987*
X532547Y10006*
X524393Y14235D02*
X524110Y14156D01*
X523836Y14069*
X523592Y13971*
X523358Y13864*
X523133Y13737*
X522928Y13600*
X522742Y13453*
X522576Y13297*
X522381Y13082*
X522215Y12848*
X522069Y12614*
X521951Y12360*
X521864Y12096*
X521795Y11813*
X521756Y11530*
X521746Y11227*
X521766Y10885*
X521805Y10563*
X521883Y10250*
X521990Y9967*
X522137Y9694*
X522303Y9440*
X522508Y9196*
X522742Y8981*
X523035Y8746*
X523348Y8551*
X523680Y8385*
X524041Y8248*
X524422Y8141*
X524813Y8063*
X525242Y8024*
X525682Y8004*
X525946Y8014*
X526209Y8024*
X526453Y8053*
X526697Y8092*
X526922Y8141*
X527147Y8209*
X527352Y8278*
X527557Y8365*
X527742Y8453*
X527918Y8551*
X528084Y8668*
X528240Y8785*
X528377Y8903*
X528514Y9039*
X528621Y9176*
X528729Y9332*
X528817Y9479*
X528905Y9645*
X528963Y9811*
X529022Y9977*
X529061Y10153*
X529090Y10328*
X529110Y10514*
X529119Y10699*
X529100Y10992*
X529041Y11256*
X528953Y11481*
X528817Y11676*
X528739Y11764*
X528660Y11832*
X528572Y11901*
X528475Y11949*
X528387Y11989*
X528280Y12018*
X528172Y12028*
X528065Y12037*
X527869Y12018*
X527694Y11969*
X527537Y11881*
X527401Y11764*
X527283Y11617*
X527205Y11442*
X527166Y11246*
X527147Y11022*
X527156Y10875*
X527176Y10739*
X527215Y10621*
X527274Y10514*
X527352Y10406*
X527449Y10309*
X527576Y10221*
X527723Y10123*
X527811Y10084*
X527879Y10035*
X527938Y9987*
X527987Y9947*
X528026Y9899*
X528055Y9860*
X528065Y9811*
X528074Y9772*
X528055Y9645*
X528016Y9508*
X527938Y9371*
X527830Y9225*
X527684Y9078*
X527518Y8942*
X527322Y8834*
X527098Y8737*
X526834Y8649*
X526551Y8600*
X526229Y8561*
X525867Y8551*
X525565Y8561*
X525272Y8590*
X525008Y8639*
X524764Y8707*
X524539Y8795*
X524334Y8903*
X524149Y9030*
X523983Y9176*
X523836Y9352*
X523709Y9547*
X523612Y9762*
X523524Y9996*
X523455Y10260*
X523406Y10553*
X523377Y10865*
X523367Y11197*
X523377Y11549*
X523397Y11871*
X523446Y12174*
X523494Y12447*
X523572Y12692*
X523660Y12906*
X523768Y13102*
X523895Y13268*
X524031Y13414*
X524188Y13541*
X524354Y13639*
X524549Y13727*
X524744Y13795*
X524969Y13844*
X525203Y13873*
X525447Y13883*
X525594*
X525760Y13864*
X525946Y13844*
X526141Y13815*
X526297Y13795*
X526434Y13776*
X526541Y13766*
X526619*
X526737Y13776*
X526844Y13785*
X526932Y13824*
X527000Y13864*
X527059Y13922*
X527108Y13981*
X527127Y14049*
X527137Y14117*
X527127Y14205*
X527108Y14274*
X527069Y14332*
X527010Y14381*
X526942Y14430*
X526844Y14459*
X526737Y14469*
X526600Y14479*
X526151Y14459*
X525760Y14449*
X525516Y14459*
X525281Y14479*
X525057Y14528*
X524862Y14576*
X524676Y14655*
X524500Y14742*
X524344Y14850*
X524207Y14977*
X524090Y15114*
X523983Y15280*
X523895Y15455*
X523817Y15651*
X523758Y15856*
X523719Y16090*
X523699Y16344*
X523690Y16608*
X523699Y16930*
X523719Y17233*
X523758Y17516*
X523817Y17770*
X523885Y17994*
X523963Y18199*
X524071Y18375*
X524188Y18531*
X524315Y18668*
X524461Y18785*
X524627Y18883*
X524803Y18961*
X524998Y19030*
X525203Y19069*
X525428Y19098*
X525662Y19108*
X525877Y19098*
X526092Y19088*
X526287Y19059*
X526473Y19030*
X526649Y18981*
X526805Y18922*
X526961Y18854*
X527098Y18785*
X527225Y18697*
X527332Y18619*
X527430Y18541*
X527498Y18473*
X527557Y18395*
X527606Y18326*
X527625Y18248*
X527635Y18180*
X527615Y18082*
X527557Y17975*
X527459Y17848*
X527332Y17701*
X527225Y17604*
X527137Y17496*
X527059Y17389*
X527000Y17291*
X526951Y17184*
X526922Y17076*
X526903Y16969*
X526893Y16862*
X526912Y16696*
X526951Y16549*
X527030Y16422*
X527137Y16295*
X527264Y16197*
X527410Y16129*
X527576Y16080*
X527762Y16071*
X527957Y16090*
X528133Y16149*
X528289Y16246*
X528426Y16383*
X528533Y16549*
X528612Y16744*
X528660Y16979*
X528680Y17242*
X528670Y17457*
X528641Y17662*
X528592Y17858*
X528524Y18053*
X528436Y18239*
X528328Y18424*
X528211Y18600*
X528065Y18766*
X527830Y18990*
X527576Y19186*
X527293Y19342*
X527000Y19479*
X526668Y19576*
X526317Y19655*
X525946Y19694*
X525555Y19713*
X525184Y19703*
X524822Y19664*
X524490Y19596*
X524178Y19508*
X523885Y19391*
X523612Y19254*
X523348Y19088*
X523114Y18893*
X522899Y18678*
X522713Y18453*
X522557Y18219*
X522430Y17975*
X522332Y17711*
X522264Y17438*
X522215Y17155*
X522205Y16862*
X522215Y16647*
X522235Y16442*
X522274Y16246*
X522332Y16051*
X522401Y15865*
X522479Y15690*
X522576Y15524*
X522694Y15358*
X522830Y15201*
X522987Y15055*
X523162Y14908*
X523367Y14762*
X523592Y14625*
X523836Y14489*
X524100Y14362*
X524393Y14235*
X524194Y8205D02*
X527135D01*
X531960D02*
X533134D01*
X538306D02*
X540561D01*
X545837D02*
X547011D01*
X568159D02*
X570584D01*
X577773D02*
X578390D01*
X523564Y8443D02*
X527721D01*
X531735D02*
X533359D01*
X537803D02*
X541063D01*
X545612D02*
X547236D01*
X549913D02*
X557215D01*
X560184D02*
X564901D01*
X567625D02*
X571116D01*
X577671D02*
X578497D01*
X523139Y8681D02*
X524857D01*
X526930D02*
X528101D01*
X531623D02*
X533481D01*
X537457D02*
X538726D01*
X540057D02*
X541408D01*
X545500D02*
X547358D01*
X549895D02*
X557204D01*
X560184D02*
X564901D01*
X567269D02*
X571470D01*
X577568D02*
X578605D01*
X522819Y8919D02*
X524311D01*
X527476D02*
X528393D01*
X531579D02*
X533525D01*
X537184D02*
X538313D01*
X540476D02*
X541675D01*
X545456D02*
X547402D01*
X549876D02*
X556994D01*
X561709D02*
X563685D01*
X566974D02*
X568078D01*
X569995D02*
X571755D01*
X577465D02*
X578712D01*
X522550Y9157D02*
X524005D01*
X527762D02*
X528606D01*
X531585D02*
X533518D01*
X536943D02*
X538052D01*
X540740D02*
X541907D01*
X545462D02*
X547395D01*
X549857D02*
X556785D01*
X561961D02*
X563422D01*
X566742D02*
X567638D01*
X570419D02*
X571993D01*
X577363D02*
X578820D01*
X522341Y9395D02*
X523808D01*
X527952D02*
X528767D01*
X531639D02*
X533463D01*
X536744D02*
X537870D01*
X540931D02*
X542100D01*
X545516D02*
X547340D01*
X549839D02*
X556575D01*
X562010D02*
X563377D01*
X566538D02*
X567344D01*
X570693D02*
X572199D01*
X577260D02*
X578927D01*
X522177Y9633D02*
X523670D01*
X528052D02*
X528899D01*
X531789D02*
X533305D01*
X536564D02*
X537730D01*
X541082D02*
X542268D01*
X545666D02*
X547182D01*
X549820D02*
X551107D01*
X554539D02*
X556366D01*
X562010D02*
X563377D01*
X566363D02*
X567108D01*
X570898D02*
X572362D01*
X577157D02*
X579034D01*
X522042Y9871D02*
X523571D01*
X528047D02*
X528984D01*
X532058D02*
X533036D01*
X536412D02*
X537621D01*
X541200D02*
X542417D01*
X545935D02*
X546913D01*
X549801D02*
X550797D01*
X555380D02*
X556157D01*
X562010D02*
X563377D01*
X566209D02*
X566911D01*
X571045D02*
X572502D01*
X577055D02*
X579142D01*
X521936Y10109D02*
X523494D01*
X527755D02*
X529051D01*
X536281D02*
X537532D01*
X541295D02*
X542549D01*
X549783D02*
X550668D01*
X555292D02*
X555947D01*
X562010D02*
X563377D01*
X566071D02*
X566740D01*
X571156D02*
X572622D01*
X576952D02*
X577673D01*
X577797D02*
X579249D01*
X521859Y10347D02*
X523440D01*
X527411D02*
X529092D01*
X536156D02*
X537458D01*
X541365D02*
X542665D01*
X549764D02*
X550571D01*
X555083D02*
X555738D01*
X562010D02*
X563377D01*
X566021D02*
X566594D01*
X571240D02*
X572724D01*
X576849D02*
X577574D01*
X577905D02*
X579357D01*
X521802Y10585D02*
X523403D01*
X527235D02*
X529113D01*
X536058D02*
X537395D01*
X541426D02*
X542764D01*
X549745D02*
X550493D01*
X554839D02*
X555529D01*
X562010D02*
X563377D01*
X571307D02*
X572803D01*
X576747D02*
X577474D01*
X578012D02*
X579464D01*
X521774Y10823D02*
X523381D01*
X527164D02*
X529111D01*
X535963D02*
X537342D01*
X541477D02*
X542855D01*
X549727D02*
X550426D01*
X554584D02*
X555319D01*
X562010D02*
X563377D01*
X571365D02*
X572869D01*
X576644D02*
X577374D01*
X578120D02*
X579572D01*
X521756Y11061D02*
X523371D01*
X527150D02*
X529085D01*
X535893D02*
X537296D01*
X541520D02*
X542935D01*
X549708D02*
X550358D01*
X554314D02*
X555110D01*
X562009D02*
X563377D01*
X571398D02*
X572918D01*
X576542D02*
X577274D01*
X578228D02*
X579679D01*
X521748Y11299D02*
X523370D01*
X527177D02*
X529024D01*
X535822D02*
X537257D01*
X541556D02*
X543001D01*
X549689D02*
X550291D01*
X554032D02*
X554900D01*
X561998D02*
X563377D01*
X571426D02*
X572951D01*
X576439D02*
X577174D01*
X578335D02*
X579786D01*
X521757Y11537D02*
X523377D01*
X527247D02*
X528914D01*
X535760D02*
X537226D01*
X541587D02*
X543056D01*
X549671D02*
X550237D01*
X553749D02*
X554682D01*
X561978D02*
X563377D01*
X571450D02*
X572978D01*
X576336D02*
X577074D01*
X578443D02*
X579894D01*
X521790Y11775D02*
X523391D01*
X527414D02*
X528726D01*
X535709D02*
X537201D01*
X541611D02*
X543110D01*
X553466D02*
X554468D01*
X561943D02*
X563377D01*
X571463D02*
X572989D01*
X576234D02*
X576975D01*
X578550D02*
X580001D01*
X521844Y12013D02*
X523420D01*
X527851D02*
X528298D01*
X535665D02*
X537178D01*
X541634D02*
X543155D01*
X553183D02*
X554247D01*
X561896D02*
X563377D01*
X566025D02*
X572993D01*
X576131D02*
X576875D01*
X578658D02*
X580109D01*
X521915Y12251D02*
X523460D01*
X535628D02*
X537157D01*
X541650D02*
X543194D01*
X552900D02*
X554032D01*
X561844D02*
X563377D01*
X566033D02*
X572983D01*
X576028D02*
X576775D01*
X578766D02*
X580216D01*
X522011Y12489D02*
X523507D01*
X535599D02*
X537139D01*
X541664D02*
X543226D01*
X552617D02*
X553819D01*
X561788D02*
X563377D01*
X566050D02*
X572966D01*
X575926D02*
X576675D01*
X578873D02*
X580324D01*
X522140Y12727D02*
X523586D01*
X535575D02*
X537126D01*
X541678D02*
X543246D01*
X552334D02*
X553604D01*
X561729D02*
X563377D01*
X566067D02*
X567756D01*
X571464D02*
X572938D01*
X575823D02*
X576575D01*
X578981D02*
X580431D01*
X522298Y12965D02*
X523693D01*
X535557D02*
X537119D01*
X541685D02*
X543267D01*
X552051D02*
X553391D01*
X561654D02*
X562204D01*
X562225D02*
X563377D01*
X566094D02*
X567617D01*
X571450D02*
X572900D01*
X575720D02*
X576475D01*
X579089D02*
X580539D01*
X522491Y13203D02*
X523845D01*
X535543D02*
X537113D01*
X541691D02*
X543282D01*
X551783D02*
X553181D01*
X561582D02*
X562128D01*
X562225D02*
X563377D01*
X566139D02*
X567569D01*
X571430D02*
X572853D01*
X575618D02*
X576375D01*
X579196D02*
X580646D01*
X522729Y13441D02*
X524064D01*
X535530D02*
X537108D01*
X541697D02*
X543288D01*
X551534D02*
X552973D01*
X561508D02*
X562050D01*
X562225D02*
X563377D01*
X566192D02*
X567557D01*
X571398D02*
X572789D01*
X575515D02*
X576276D01*
X579304D02*
X580753D01*
X523046Y13679D02*
X524443D01*
X535526D02*
X537108D01*
X541697D02*
X543295D01*
X551297D02*
X552771D01*
X558639D02*
X559641D01*
X561418D02*
X561968D01*
X562225D02*
X563377D01*
X566258D02*
X567570D01*
X571354D02*
X572714D01*
X575412D02*
X576176D01*
X579411D02*
X580861D01*
X523474Y13917D02*
X527054D01*
X535526D02*
X537108D01*
X541697D02*
X543297D01*
X551071D02*
X552577D01*
X558430D02*
X559837D01*
X561315D02*
X561879D01*
X562225D02*
X563377D01*
X566345D02*
X567605D01*
X571296D02*
X572618D01*
X575310D02*
X576076D01*
X579519D02*
X580968D01*
X524110Y14155D02*
X527133D01*
X535526D02*
X537108D01*
X541697D02*
X543290D01*
X550858D02*
X552405D01*
X558325D02*
X559923D01*
X561189D02*
X561773D01*
X562225D02*
X563377D01*
X566447D02*
X567661D01*
X571219D02*
X572501D01*
X575207D02*
X575976D01*
X579627D02*
X581076D01*
X524036Y14393D02*
X526993D01*
X535533D02*
X537114D01*
X541693D02*
X543284D01*
X550659D02*
X552238D01*
X558286D02*
X559948D01*
X561044D02*
X561658D01*
X562225D02*
X563384D01*
X566564D02*
X567748D01*
X571124D02*
X572367D01*
X575104D02*
X575883D01*
X579734D02*
X581183D01*
X523582Y14631D02*
X524733D01*
X535546D02*
X537120D01*
X541687D02*
X543271D01*
X550471D02*
X552095D01*
X558272D02*
X559927D01*
X560865D02*
X561534D01*
X562225D02*
X563424D01*
X566710D02*
X567873D01*
X570990D02*
X572208D01*
X574989D02*
X575869D01*
X579813D02*
X581291D01*
X523217Y14869D02*
X524324D01*
X535565D02*
X537126D01*
X541681D02*
X543250D01*
X550313D02*
X551961D01*
X558288D02*
X559843D01*
X560650D02*
X561396D01*
X562225D02*
X563504D01*
X566873D02*
X568042D01*
X570825D02*
X572018D01*
X574816D02*
X575975D01*
X579827D02*
X581423D01*
X522931Y15107D02*
X524096D01*
X535585D02*
X537139D01*
X541670D02*
X543229D01*
X550182D02*
X551842D01*
X555139D02*
X556057D01*
X558341D02*
X559720D01*
X560357D02*
X561232D01*
X562225D02*
X563720D01*
X567085D02*
X568263D01*
X570597D02*
X571792D01*
X574507D02*
X576302D01*
X579686D02*
X581644D01*
X522705Y15345D02*
X523950D01*
X535608D02*
X537153D01*
X541656D02*
X543197D01*
X550071D02*
X551738D01*
X554840D02*
X556382D01*
X558449D02*
X561039D01*
X562225D02*
X564949D01*
X567342D02*
X568575D01*
X570288D02*
X571522D01*
X573875D02*
X577030D01*
X578670D02*
X582420D01*
X522542Y15583D02*
X523844D01*
X535643D02*
X537168D01*
X541642D02*
X543159D01*
X549975D02*
X551645D01*
X554693D02*
X556577D01*
X558624D02*
X560787D01*
X562225D02*
X564949D01*
X567665D02*
X571188D01*
X573875D02*
X577030D01*
X578670D02*
X582420D01*
X522421Y15821D02*
X523768D01*
X535685D02*
X537191D01*
X541622D02*
X543120D01*
X549893D02*
X551568D01*
X554641D02*
X556700D01*
X558929D02*
X560392D01*
X562225D02*
X564949D01*
X568125D02*
X570732D01*
X573875D02*
X577030D01*
X578670D02*
X582420D01*
X522330Y16059D02*
X523724D01*
X535732D02*
X537215D01*
X541599D02*
X543068D01*
X549836D02*
X551502D01*
X554633D02*
X556780D01*
X569168D02*
X569665D01*
X522264Y16297D02*
X523703D01*
X527137D02*
X528340D01*
X535785D02*
X537244D01*
X541575D02*
X543017D01*
X549798D02*
X551450D01*
X554674D02*
X556833D01*
X522226Y16535D02*
X523692D01*
X526960D02*
X528524D01*
X535840D02*
X537278D01*
X541548D02*
X542951D01*
X549779D02*
X551416D01*
X554802D02*
X556847D01*
X522209Y16773D02*
X523695D01*
X526903D02*
X528618D01*
X535911D02*
X537318D01*
X541502D02*
X542874D01*
X549778D02*
X551394D01*
X555072D02*
X556848D01*
X522210Y17011D02*
X523704D01*
X526910D02*
X528662D01*
X535995D02*
X537370D01*
X541464D02*
X542791D01*
X549796D02*
X551389D01*
X555737D02*
X556829D01*
X522231Y17249D02*
X523721D01*
X526981D02*
X528680D01*
X536088D02*
X537430D01*
X541412D02*
X542690D01*
X549829D02*
X551403D01*
X555950D02*
X556796D01*
X522276Y17487D02*
X523754D01*
X527130D02*
X528666D01*
X536193D02*
X537501D01*
X541343D02*
X542586D01*
X549891D02*
X551436D01*
X555970D02*
X556734D01*
X522337Y17725D02*
X523807D01*
X527353D02*
X528625D01*
X536316D02*
X537590D01*
X541267D02*
X542464D01*
X549970D02*
X551498D01*
X555918D02*
X556649D01*
X522426Y17963D02*
X523876D01*
X527548D02*
X528555D01*
X536460D02*
X537696D01*
X541170D02*
X542337D01*
X550075D02*
X551587D01*
X555812D02*
X556545D01*
X522548Y18201D02*
X523964D01*
X527632D02*
X528454D01*
X536623D02*
X537845D01*
X541026D02*
X542178D01*
X550209D02*
X551717D01*
X555633D02*
X556398D01*
X522704Y18439D02*
X524119D01*
X527524D02*
X528318D01*
X536807D02*
X538019D01*
X540856D02*
X542016D01*
X550387D02*
X551901D01*
X555384D02*
X556226D01*
X522899Y18677D02*
X524326D01*
X527252D02*
X528143D01*
X537025D02*
X538240D01*
X540630D02*
X541816D01*
X550593D02*
X552160D01*
X555058D02*
X556002D01*
X523140Y18915D02*
X524699D01*
X526821D02*
X527909D01*
X537274D02*
X538592D01*
X540295D02*
X541580D01*
X550865D02*
X552604D01*
X554494D02*
X555717D01*
X523451Y19153D02*
X527619D01*
X537584D02*
X541293D01*
X551220D02*
X555370D01*
X523885Y19391D02*
X527188D01*
X538007D02*
X540893D01*
X551668D02*
X554895D01*
X524651Y19629D02*
X526433D01*
X538697D02*
X540223D01*
X552442D02*
X554136D01*
X0Y0D02*
M02*
